<?xml version="1.0" standalone="no"?>
<!DOCTYPE svg PUBLIC "-//W3C//DTD SVG 20010904//EN"
 "http://www.w3.org/TR/2001/REC-SVG-20010904/DTD/svg10.dtd">
<svg version="1.0" xmlns="http://www.w3.org/2000/svg"
 width="550.000000pt" height="550.000000pt" viewBox="0 0 550.000000 550.000000"
 preserveAspectRatio="xMidYMid meet">
<metadata>
Created by potrace 1.11, written by Peter Selinger 2001-2013
</metadata>
<g transform="translate(0.000000,550.000000) scale(0.100000,-0.100000)"
fill="#000000" stroke="none">
<path d="M1815 4771 c-544 -149 -1611 -445 -1615 -448 -2 -2 1 -12 7 -21 6 -9
100 -156 210 -327 192 -297 225 -355 205 -355 -14 0 -352 85 -490 123 -67 19
-122 31 -122 26 0 -4 6 -9 14 -11 7 -2 199 -111 425 -243 l411 -240 0 -35 c0
-30 20 -418 70 -1385 14 -268 22 -372 29 -383 3 -5 380 -149 836 -320 457
-171 906 -340 999 -376 92 -36 184 -68 202 -72 31 -6 48 2 157 72 67 43 172
109 232 147 740 467 1146 732 1150 752 5 18 65 1176 82 1558 4 107 11 156 22
177 13 23 624 567 811 722 25 20 42 39 39 42 -3 3 -117 -42 -254 -99 -136 -58
-259 -108 -272 -111 l-24 -6 32 58 c18 33 35 64 40 69 17 22 139 246 139 255
0 6 -2 10 -5 10 -11 0 -479 80 -585 100 -58 11 -265 47 -460 80 -195 33 -418
71 -495 85 -188 34 -468 74 -477 69 -8 -5 -539 -779 -552 -805 -10 -21 15 -56
-374 523 -147 219 -271 397 -277 397 -5 -1 -55 -13 -110 -28z"/>
</g>
</svg>
