<svg width="300" height="300" viewBox="0 0 79 78" xmlns="http://www.w3.org/2000/svg"><g fill="none" fill-rule="evenodd"><path d="M15.4 32.6c.2.1.3.2.2.3l-.4.6c-.1.2-.2.2-.4 0l.6-.9zm53 27.6v0zm0 .3zM63 70.8l-4.6-25.4-.4-.2.1.3h.3v-.1L63 70.8zm-4.8-31.2v0zm0 .6zm0 .2v-.2H58c.2 0 .3.1.3.2z" fill="#DD3735"/><path d="M78.7 34c0-1 0-2-.2-3.1-.2-1.4-.3-2.8-.7-4.2-.2-1.1-.6-2.2-1-3.3l-1.6-3.8c-1-2-2.4-3.7-3.6-5.5-.8-1.1-1.9-2-2.7-3.3A8 8 0 0067.2 9l-3.3-2.3A32.5 32.5 0 0061.3 5L59.1 4c-.8-.4-1.7-.9-2.6-1l-.7-.3-1.8-.6-2.7-.9-2.9-.5-3.1-.3a26.8 26.8 0 00-2-.2h-3L38.6 0c-.8 0-1.5 0-2.3.2l-2.2.3-2.6.3c-.8 0-1.7.2-2.5.4l-.8.2-2 .4A52.9 52.9 0 0020 4.4l-3 1.9a45.3 45.3 0 00-2.6 1.9L12 10.3 11 11.7l-2 2.3-1.5 2-2.3 3.8-.9 1.6-1.1 2.4a231.6 231.6 0 00-1.7 5.7C1 30.6 1 31.8.8 33l.2 3.2c0 .2-.1.5.2.7-.1.3 0 .5.1.5-.2.3.1.5 0 .8l.1.2v.3l.2.7.2.6v.3c-.2.2-.2.3 0 .4.2.4.1.5 0 .7v.3c.3.5.4 1 .4 1.4l.1.4v.5l.4-.2a8.5 8.5 0 00.3 1.3l.4 1.4-.2-1.5 1 .2V45l-.5-.5v.3l-.3-.1c0-.2.2-.3.3-.5 0-.2 0-.4-.5-.4l.5-.2c.3-.1 0-.4 0-.8l-.3-1.3-.2-2.6c-.1-.2-.3.2-.3.2l.2 2-.4-1.8v.3c-.2.2 0 .3 0 .5h-.4v.7l-.4-.7-.2-.6v-.3a16 16 0 010-.6v-.4h.4c-.3-.3 0-.5 0-.7 0-.2.3-.2.3-.3.2-.4.6-.7.6-1.2v-.7l.2-1.4.1-1.7A37.4 37.4 0 015 27.5l1.3-3c.7-1.5 1.5-2.8 2.3-4.2l1.6-2.6 1.6-2.4a21.5 21.5 0 012.8-3c1-1 2-1.9 3.2-2.8a32.2 32.2 0 014.7-3c1.3-.7 2.7-1.2 4.1-1.8l2.8-.7c1-.4 2.1-.5 3.2-.6.7 0 1.4 0 2.1-.2l2-.1-.2.2-.9 1.2-.7 1-1.3 1.8-1.8 2.6-2 2.5-2.5 3.4-2.4 3.2-2 2.9-2.8 4.3a272 272 0 01-2.4 3.3l-.2.2-.3.7-.6 1.1-.5.6c0-.3.4-.4.2-.8l-.4.6-.3.6c.1 0 .3.1.1.3l-.2.4a1 1 0 00.3-.3c0 .3-.2.6-.3.8l-.6.5.3.2.3-.2.2-.2c.1-.3.3-.5.5-.6l.3-.2 2.3-2.5 3.2-4.1 1.4-1.7v1.7l-.2 3v1.2l-.1.2v.9l-.2 2.9.1.6c-.1 1.4.2 2.9 0 4.4l.2-.7v-.7-1.5l.1-1.5.1-.7v.3c0 1.5 0 3-.2 4.6 0 0 .1.3-.2.3-.2.5 0 .8-.2 1l.1.5c-.1.3-.1.3 0 .4l.2 1.6c.4-1 .2-2 .4-3v3.3l-.1.4c-.1.4-.1.7-.3 1V49c.6 0 .3.4.5.6-.1.2 0 .3 0 .4l-.1.6v2.1a96.1 96.1 0 01-.1 1l-.1-3.4h-.4c0 1.6 0 3-.2 4.5h-3.2l-3 .1H10.3l-2.1.1-1.5.1-.6.2h-.4c-.3 0-.5.2-.8.3-.4 0-.5.2-.4.6v.2h.5l-.1.3.4-.2c.4.2.8 0 1.1.1a20.8 20.8 0 005.2.6l2.9.1h8.5L28 57l3-.2h6.4l2.6-.1 3-.2 1.5-.1 2-.2 2.8-.1 3.6-.2h3.3l3-.2h1.6l1.7-.1 2.8-.2h1.8l3-.1h1.2l-.5.5.3.1a.7.7 0 01-.4.1l-.1.5h.4l-.5.4c-.2 0-.4 0-.5.3.2 0 .2.1.1.3-.3 0-.5.2-.4.5l-.3.2c-.2.2-.4.3-.4.5l.3.1-.4.2c-.4.3-.2.5-.1.6l-.3.1c0 .3.2.3.2.3a9.3 9.3 0 00-.4.3c0 .3-.2.4-.3.5-.1.2-.1.4-.3.5-.5.7-1 1.4-1.6 1.8l-.8.7-1.4 1.4a29.6 29.6 0 01-2 1.5 151.6 151.6 0 01-2.6 1.8l-1.5.9-1.5.8-1 .7-2.6 1-2.2 1-1.9.4H48l-1.4.3-3.5.4-2 .3h-2.4c-.6 0-1.2-.2-1.7-.3h-1.1l-.4-.1h-.3l-.9-.2-1-.2-1.4-.3a2.4 2.4 0 01-.5-.3l-1.5-.1c-.4-.2-.8-.4-1.2-.3h-.2l-.3-.3c-.5 0-.8-.5-1.3-.6-.2 0-.4-.3-.6-.4-.6-.3-1-.8-1.7-.8l-.7-.2.2.2-2.2-1.2-.2-.2-.7-.4c-.4 0-.6-.1-.7-.2l-2.2-1.3-.9-.7c-.3-.5-.8-.8-1.3-1l-1.1-.7c-.2-.2-.4-.3-.4-.6 0-.2 0-.4-.3-.3l-.3-.4c-.3 0-.6-.3-.8-.5-.2-.3-.4-.5-.7-.6l-1.2-1-2-2.8-.3-.2.4.8c-.3-.1-.5-.3-.6-.5l1.8 3 .5.8a.8.8 0 01-.8-.5c-.3-.4-.5-.6-1-.6a4.6 4.6 0 01-.2-.6h-.4l1 1.7-.2-.2c.5.5.8 1.1 1.4 1.4.2.7.8 1 1 1.5h-.4l-.7-.9c0 .2.2.4.3.5l1 1.1c0 .2.3.2.3.5h.3c0 .2 0 .5.3.4.2.4.4.4.7.3.4.3.6.4.8.2v.3l.1-.2.3.2.8 1 1.5 1.2c.9.8 2 1.4 3 2l3.7 2.2a20.3 20.3 0 006.8 2.2l1.6.5 2.6.5h.6l.6.1c0 .2.2.1.3 0h.7l2.1.2c.2 0 .4-.2.6 0h.4v.2l-.3.1a6 6 0 002.7 0c1.3.2 2.5 0 3.7-.4 0 .1.1.3.3 0h.3l.7-.2h.5l1-.2.4-.1a1.3 1.3 0 00-.6-.2l1-.4-.3.2h.4l-.3.4 2.6-.7c-.2-.5.4-.3.6-.6l-.8.2 2.7-1.3-.5.4h.3c.4.2.3-.2.5-.5l.9-.1c.3 0 .5-.2.8-.3l1.2-.6h.3l.5-.3c.4 0 .6-.1.7-.4l.5-.4 1.7-1h.4l1-.5a2.3 2.3 0 01-.3 0l.5-.2c.6-.8 1.5-1.3 2.1-1.8.3 0 .3-.2.3-.2l.4-.4 1.7-1.5a37.2 37.2 0 002.2-2.4l1.8-2.3 2-3.5L75 56l.2-.2 2.1-.2.5-.2-.2-.4c0-.2-.3-.3-.4-.5l-.2-.4-.3-.4a9.7 9.7 0 01-.4-.9v-.3l1-3.1c.5-1 .6-2.3.8-3.4l.5-3.3.2-2.2V37v-3zm-66 32.4l-.5-.7 1 1-.5-.3zm.4.2h.2l.3.4c-.4 0-.6-.1-.5-.4zm27.4 11v-.2l1.4-.1-1.4.2zm6.6-.8L46 77c-.2 0-.3.2-.4 0h-.1c.1.4.4 0 .7.2l-1.7.2h.5v-.2a7.7 7.7 0 00-.8 0l-.3.1h-.3l-1.3.1h-.1l5.2-.8.1.2h-.4zm.4-.2l1.7-.2c-1.2.3-1.6.4-1.7.2zm-23-53.2l2.6-3.5.8-1c0-.2.2-.2.3-.4l.2-.3.3-.7.1-.1c.4.2.4-.2.5-.4l.7-.8.5-.6-.1-.3s0-.2.2-.2a15.1 15.1 0 011.5-2l-.2.4h.1l1-1.2h-.1l-.4.4v-.1l.7-1 .2.3.3-.6-.2.2h-.1l.5-.8 1.5-2.1.5-.8c.5-1 1.3-1.8 2-2.7 0-.2.3-.3.4-.5.1-.1.3 0 .4 0l2 2.8c.6.6 1.1 1.2 1.6 2l1.8 2.5 2 3 3 4.3 2.2 3.3h-1.4c-1.2 0-2.5-.2-3.7-.1a74.4 74.4 0 01-11.5.6l-2.3.1-2.7.2h-5.2zm30.3 12v.3h-.1l-.4-1c-.2-.8-.5-1.6-1-2.3l-1.5-2.3-.5-.5c-.6-.6-1.1-1.2-1.8-1.6a21.5 21.5 0 00-3.3-1.7 7.4 7.4 0 01-1-.5h5.2l2.9-.2c.2 0 .4.1.5.3l.7 1.2.1.2v1.8l.1 1.8v4.6zm-28.4-8.7l3.7-.2 2.8-.1h1.2l-1.2.6-1.4 1.1-1.3 1.2-1.6 1.7-1 1.3c-.5.6-1 1.2-1.3 1.9 0-2.5.2-5 .1-7.5zM43.6 52l-2.5.6h-4.3c-.8-.1-1.6-.2-2.3-.5l-2-.9a5 5 0 01-1.7-1.3c-.3-.4-.8-.7-1.2-1 0 .2.3.5.6.7-.2.1-.4 0-.6-.4l-.2.1.2-.5-.3-.7-.6-1-.1-.2a5.9 5.9 0 01-.4-.5l-.7-1v.3l-.6-1.3.5 1.7h-.1l-.2-.3c0-.2-.2-.2-.4-.1v.3a30.6 30.6 0 00.7 1.8l.1.2.3.6.8 1 .6.9h.2c.1.5.5.8.9.6 0 .6.7.8 1 1.4a12 12 0 01-.8-.3l.9.6.7.5 1.2.5v-.1l2 1-8.7.2v-1.5-.6c0-1.2 0-2.4-.2-3.6-.2-1.3-.2-2.5-.2-3.8v-2-2.8l.1-.4.1.2.3.2.5-.4.1-1 .2-.5.2-.3-.4-.2c.1-.3.1-.7.5-.8V37l.2-.6.1.1v-.4c.4 0 .2-.4.4-.5v-.2-.1c.4 0 .3-.5.5-.7l.3-.2c.2.3-.2.5-.2.8.4-.3.6-1 .3-1.1l.3-.3.8-1c.2-.1.3-.4.5-.7l.5-.3c.5-.3 1-.5 1.2-1l.2-.1.3-.2-.1-.2.4-.3-.2.4h.2c.2 0 .6-.3.8-.5h-.1l-.7.2.1-.1 1.2-.7 2.7-1.2h.8a22.9 22.9 0 011.8-.5h2.4l1 .3a9.9 9.9 0 011.2.5l1.2.8 2.3 1.5a6 6 0 011.8 1.7c.5.8 1.2 1.5 1.5 2.5l.4 1.8c0 .3.2.6.1 1l-.3 2c0 .3-.1.5 0 .8 0 .8-.3 1.5-.7 2.3l-.4.7a.8.8 0 00.3.1l.2-.5-.3 1.2-1 2.4-.9 1.3-.7 1-.8.9-2.2 1.4c-.5.3-1 .5-1.6.6zm-14-1.4h-.2l-.6-1v-.3l.8 1.3zM46 54.2c1.2-.5 2.1-1.2 3-2l.4-.4c1.2-.7 2-1.6 2.7-2.7.8-1.2 1.4-2.5 2-3.8a2.7 2.7 0 01.2-.3c0 3 .3 6 .7 9l-9 .2zm26.7-.8l-.1.2-.1-.2c-.2.4-.5.2-.7.2h-8.5l-1.3.2h-3.3l-.3-.2a1.8 1.8 0 01-.1.3l-.1-.2-.1.2H58l-.2-1 .1-2.5v-1c.2 0 .2.1.3.2l.2-.3h-.1V49l.2-.2-.1-.5.2.8h.1c-.1-.2.2-.3 0-.6v-.2l-.2-.5.2-.1-.3-.2c.3-.2.3-.3 0-.6h.1v-.7c0-.3 0-.6-.3-.8a.8.8 0 000 .2l-.1.1c-.3-.3-.1-.7-.2-1.2l.4.1-.2-.6H58v-1.7h.3c0-.2-.2-.3-.3-.4-.2-.3 0-.7 0-.8v-1.8c.2.3-.2.6.2.8v-.3-1.2H58v.1H58l.1-6.2.8 1 2.1 3 1.8 2.7 2 3.3a81.4 81.4 0 001.7 2.4l1.6 2 1.3 1.9L71 51l.9 1c.1.3.4.5.5.6l.1.2c.3.2.3.3.2.5zM74 47v-.2.2zm.9-11.7l-.2-.2v.3l-.3-.1.2 1h.5c-.5.4-.4.8-.1 1.2 0 .1.2.3 0 .5v.4h.2l-.3.1-.3-.3v1.3c.2 0 .2.4.3.6a.8.8 0 00.1-.2v.5l-.2.7v.1c-.2.7 0 1.4-.2 2v1.6c0 .5-.2 1-.3 1.4l-.2.2v-.8l-.4-.2.3 1.3-.4-.2-.1 1c0 .3-.3.5-.3.8 0 .2.2.3.1.5h.3l.2-1.5.1.1v1.4l-.1.6V49h-.4l.2.4h-.1l-.9-1.2-2-3a6.3 6.3 0 01-.5-.8 37 37 0 00-2.7-4c-.8-1-1.4-2-2-3l-2-3-.8-1-2-3.2-1.8-2.6-.6-1a.4.4 0 010-.1l-.2-1.8v-2-.4l.2-.1h-2.4c-.5 0-.7-.2-1-.6-1-1.1-1.8-2.4-2.7-3.6a162.4 162.4 0 00-2.5-3.4l-2-2.8-2.3-3.1-3-3.8L41 3l1 .2h1.3l2.8.3 2.4.4c1.8.3 3.5.8 5.1 1.3 1 .3 2 .8 2.9 1.2 2.1.8 4.1 1.9 6.1 3 .7.3 1 .9 1.5 1.4l2 2.1 2.3 2.7 2 2.4.5.8 1.3 1.9.6 1.6.8 2.4.4 2 .2 1.2c.2.6 0 1.2.2 1.7v.2c.2.1.3.2.1.4v.2l.1-.2v.4l.1.2c.1 0 .2 0 .3-.2.2 1 .2 1.8.2 2.8 0 .8.2 1.7-.2 2.5 0-.2-.1-.5 0-.8z" fill="#DD3A0A"/><path d="M58 45.5h.1zm4.2 26c-.3.2-.5.4-1 .5.3-.3.6-.5 1-.6v.1zM13 35.8l.9-1h.3l-1 1.3-.2-.3zm-7.5 13l-.6-1.4a1 1 0 01.2-.2l.7 1.4-.3.1zM12.1 36l-.4.7s-.4.1-.4 0l.7-.8h.1zm47.3 36.5h.7c-.4.3-.6.2-.7 0zM12.2 37.2l.1-.3h.1l.3-.5h-.1l-.5.3v.2c-.2 0-.2 0-.3.3l-.3.2-.1.4h-.1l-.5.5v.3c0-.2.4-.6.6-.8l.4-.4-.2.7h-.2l-.2.3-.5.3-.8.7-.6 1c.3-.2.4 0 .4.2.3 0 .4-.2.5-.4V40l.8-.6v-.2H11c.2-.4.5-.8.8-1l.2-.4c0-.2.2-.3.4-.4l-.1-.2z" fill="#DD3735"/><path d="M12.7 36.9c0 .2-.2.3-.3.5h-.2c0 .5-.4 1-.8 1.2h.3l.2-.2.7-1 .2-.4v-.1zM4 48.5h.5l.1-.2.1.4h-.5l-.2-.2zm-.2-1.3l-.2-.2.2-.4v.6zm.7-1.6l.3.8a.8.8 0 00-.2 0l-.3-.7a.7.7 0 01.2-.1zM63 70.8l.5-.2-.6.5v-.3zM30.6 15l.5-.3-.4.7-.1-.4zm7.7 13.3l.8-.3v.3a1 1 0 00-.3 0l-.6.2.1-.2zm19.8 22.4c0 .2.5.3 0 .6l.3.1a.2.2 0 010 .2H58v-.2-.7z" fill="#DD3735"/></g></svg>