<?xml version="1.0" encoding="UTF-8" standalone="no"?>
<svg
   xmlns:dc="http://purl.org/dc/elements/1.1/"
   xmlns:cc="http://creativecommons.org/ns#"
   xmlns:rdf="http://www.w3.org/1999/02/22-rdf-syntax-ns#"
   xmlns:svg="http://www.w3.org/2000/svg"
   xmlns="http://www.w3.org/2000/svg"
   viewBox="0 0 486.66666 299.39999"
   height="299.39999"
   width="486.66666"
   xml:space="preserve"
   id="svg2"
   version="1.1"><metadata
     id="metadata8"><rdf:RDF><cc:Work
         rdf:about=""><dc:format>image/svg+xml</dc:format><dc:type
           rdf:resource="http://purl.org/dc/dcmitype/StillImage" /></cc:Work></rdf:RDF></metadata><defs
     id="defs6" /><g
     transform="matrix(1.3333333,0,0,-1.3333333,0,299.4)"
     id="g10"><g
       transform="scale(0.1)"
       id="g12"><path
         id="path14"
         style="fill:#efc895;fill-opacity:1;fill-rule:nonzero;stroke:none"
         d="m 3054.26,1544.68 c -5.7,125.34 11.39,236.45 -45.58,330.46 -136.74,233.6 -478.6,370.34 -1162.31,370.34 v -19.94 h -14.25 14.25 v 19.94 c -683.72,0 -1042.667,-136.74 -1179.409,-373.19 -54.125,-96.86 -48.43,-205.12 -56.977,-330.47 -5.699,-99.7 -51.277,-205.11 -31.336,-319.06 22.79,-148.14 31.336,-296.28 54.125,-433.022 C 649.867,678.641 803.703,584.629 817.949,479.219 857.832,188.641 1159.8,54.75 1843.52,54.75 V 31.9609 h -17.1 2.85 17.1 V 54.75 c 683.71,0 974.29,133.891 1011.32,424.469 14.25,108.261 156.69,199.422 173.78,310.519 22.79,136.742 31.34,284.882 54.13,433.022 19.94,113.95 -25.64,222.2 -31.34,321.92" /><path
         id="path16"
         style="fill:#c9a681;fill-opacity:1;fill-rule:nonzero;stroke:none"
         d="m 1834.97,1442.12 c 122.5,-2.85 207.96,-79.77 287.73,-150.99 94.01,-82.61 253.54,-139.59 319.07,-210.81 65.52,-71.22 150.98,-142.441 182.32,-253.539 31.34,-111.109 39.88,-253.551 39.88,-290.582 0,-37.039 19.94,-28.488 76.92,0 133.89,65.52 282.03,242.153 282.03,242.153 C 3005.83,667.238 2860.54,567.539 2846.3,462.129 2812.11,171.551 2530.08,31.9609 1832.12,31.9609 h -2.85 17.1" /><path
         id="path18"
         style="fill:#c9a681;fill-opacity:1;fill-rule:nonzero;stroke:none"
         d="m 2285.08,1664.32 c 25.64,-88.31 116.8,-387.43 -59.82,-287.73 0,0 74.07,-42.73 119.65,-205.11 48.43,-162.38 165.23,-182.32 165.23,-182.32 0,0 190.87,-37.039 333.31,85.46 119.65,102.56 139.59,284.88 88.31,424.47 -51.28,136.75 -142.44,179.48 -276.33,207.96 -133.9,31.34 -401.68,56.98 -370.35,-42.73" /><path
         id="path20"
         style="fill:#100f0d;fill-opacity:1;fill-rule:nonzero;stroke:none"
         d="m 2624.09,1590.25 c 138.45,0 250.69,-112.23 250.69,-250.69 0,-138.45 -112.24,-250.69 -250.69,-250.69 -138.46,0 -250.7,112.24 -250.7,250.69 0,138.46 112.24,250.69 250.7,250.69" /><path
         id="path22"
         style="fill:#ffffff;fill-opacity:1;fill-rule:nonzero;stroke:none"
         d="m 2558.57,1516.19 c 36.18,0 65.52,-29.34 65.52,-65.53 0,-36.18 -29.34,-65.52 -65.52,-65.52 -36.19,0 -65.53,29.34 -65.53,65.52 0,36.19 29.34,65.53 65.53,65.53" /><path
         id="path24"
         style="fill:#efc895;fill-opacity:1;fill-rule:nonzero;stroke:none"
         d="m 2242.35,1350.96 c 0,0 225.06,-153.84 347.55,-304.83 122.5,-150.982 119.65,-179.47 119.65,-179.47 l -88.31,-39.879 c 0,0 -125.35,236.449 -279.18,324.759 -156.69,88.31 -173.78,162.38 -173.78,162.38 l 74.07,37.04" /><path
         id="path26"
         style="fill:#c9a681;fill-opacity:1;fill-rule:nonzero;stroke:none"
         d="m 1843.52,1442.12 c -122.5,-2.85 -213.66,-79.77 -296.28,-150.99 C 1453.23,1208.52 1288,1151.54 1222.48,1080.32 1156.96,1009.1 1068.64,937.879 1037.31,826.781 1005.97,715.672 994.574,573.23 994.574,536.199 c 0,-37.039 5.696,-39.89 -76.918,0 C 783.762,598.871 635.625,778.352 635.625,778.352 652.719,667.238 798.008,567.539 812.25,462.129 852.133,171.551 1134.17,31.9609 1832.12,31.9609 h 2.85 11.4" /><path
         id="path28"
         style="fill:#4f2b27;fill-opacity:1;fill-rule:nonzero;stroke:none"
         d="m 2504.44,960.672 c -136.74,168.078 -356.1,324.758 -660.92,324.758 h -2.85 c -304.82,0 -524.18,-156.68 -660.92,-324.758 C 1037.31,786.891 1048.7,718.52 1048.7,553.289 c 0,-598.2499 210.81,-427.32 350.4,-501.3906 142.44,-71.2187 290.58,-48.42965 441.57,-48.42965 h 2.85 c 153.83,0 299.12,-19.93755 441.56,51.28125 139.59,71.219 350.4,-105.4102 350.4,492.84 2.85,165.23 11.4,239.301 -131.04,413.082" /><path
         id="path30"
         style="fill:#3d2220;fill-opacity:1;fill-rule:nonzero;stroke:none"
         d="m 1829.27,1137.3 c 0,0 -19.94,-276.339 -59.82,-330.472 l 74.07,17.102 -14.25,313.37" /><path
         id="path32"
         style="fill:#3d2220;fill-opacity:1;fill-rule:nonzero;stroke:none"
         d="m 1849.21,1137.3 c 0,0 19.95,-276.339 59.83,-330.472 l -74.07,17.102 14.24,313.37" /><path
         id="path34"
         style="fill:#4f2b27;fill-opacity:1;fill-rule:nonzero;stroke:none"
         d="m 1609.92,1202.82 c -28.49,65.52 74.06,170.93 236.45,173.77 162.38,0 264.93,-105.4 236.45,-173.77 -28.49,-68.37 -131.05,-88.32 -236.45,-91.16 -102.56,2.84 -207.97,22.79 -236.45,91.16" /><path
         id="path36"
         style="fill:#100f0d;fill-opacity:1;fill-rule:nonzero;stroke:none"
         d="m 1846.37,1137.3 c 0,11.39 96.86,14.24 148.13,48.42 0,0 -105.4,-34.18 -128.19,-19.94 -22.79,11.4 -28.49,45.58 -28.49,45.58 0,0 -8.55,-34.18 -25.64,-45.58 -19.94,-11.39 -139.59,19.94 -139.59,19.94 0,0 159.53,-39.88 159.53,-48.42 0,-8.55 -2.85,-37.04 -2.85,-56.98 0,-71.22 0,-247.851 11.4,-262.09 17.09,-25.64 11.39,190.87 11.39,262.09 -2.85,22.79 -2.85,45.58 -5.69,56.98" /><path
         id="path38"
         style="fill:#7a3e3a;fill-opacity:1;fill-rule:nonzero;stroke:none"
         d="m 1852.06,755.559 c 48.43,0 133.9,-34.188 210.81,-88.321 -74.06,82.621 -162.38,139.59 -210.81,139.59 -51.27,0 -159.53,-62.668 -236.45,-153.828 79.77,62.672 182.33,102.559 236.45,102.559" /><path
         id="path40"
         style="fill:#3d2220;fill-opacity:1;fill-rule:nonzero;stroke:none"
         d="m 1832.12,251.32 c -108.25,0 -213.66,34.18 -310.52,59.821 -19.94,5.699 -39.88,-8.539 -59.82,-2.852 -179.48,56.981 -324.77,153.84 -413.08,276.34 0,-8.551 0,-19.938 0,-28.488 0,-598.2504 210.81,-430.172 350.4,-501.391 142.44,-71.2188 290.58,-48.42969 441.57,-48.42969 h 2.85 c 153.83,0 299.12,-19.94141 441.56,51.28129 139.59,71.2184 350.4,-102.5625 350.4,495.6874 0,22.789 0,45.582 2.85,65.52 -82.61,-133.887 -233.6,-239.297 -421.62,-301.969 -17.09,-5.699 -56.98,8.551 -74.07,5.699 -102.56,-34.187 -193.72,-71.219 -310.52,-71.219" /><path
         id="path42"
         style="fill:#3d2220;fill-opacity:1;fill-rule:nonzero;stroke:none"
         d="m 1561.49,573.23 c 0,0 -71.22,-213.66 -22.79,-307.671 l -65.53,28.492 c 0,0 48.43,216.508 88.32,279.179" /><path
         id="path44"
         style="fill:#3d2220;fill-opacity:1;fill-rule:nonzero;stroke:none"
         d="m 2125.55,573.23 c 0,0 71.22,-213.66 22.79,-307.671 l 65.52,28.492 c 0,0 -51.28,216.508 -88.31,279.179" /><path
         id="path46"
         style="fill:#c9a681;fill-opacity:1;fill-rule:nonzero;stroke:none"
         d="m 1379.16,1664.32 c -25.64,-88.31 -116.8,-387.43 59.83,-287.73 0,0 -74.07,-42.73 -119.65,-205.11 -45.58,-162.38 -165.23,-182.32 -165.23,-182.32 0,0 -190.872,-37.039 -333.313,85.46 -119.649,102.56 -139.594,284.88 -88.313,424.47 51.278,139.59 142.442,179.48 276.336,207.96 133.89,31.34 398.83,56.98 370.34,-42.73" /><path
         id="path48"
         style="fill:#100f0d;fill-opacity:1;fill-rule:nonzero;stroke:none"
         d="m 1843.52,806.828 c 76.91,0 316.21,-165.226 319.06,-367.488 0,2.851 0,5.699 0,11.39 0,210.821 -193.72,378.891 -319.06,378.891 -125.35,0 -319.07,-170.922 -319.07,-378.891 0,-2.851 0,-5.691 0,-11.39 2.85,202.262 242.15,367.488 319.07,367.488" /><path
         id="path50"
         style="fill:#2d1815;fill-opacity:1;fill-rule:nonzero;stroke:none"
         d="m 1884.36,1284.02 c 12.19,3.15 26.85,-12.83 32.74,-35.68 5.89,-22.86 0.79,-43.93 -11.4,-47.07 -12.19,-3.14 -26.84,12.83 -32.74,35.68 -5.89,22.86 -0.79,43.93 11.4,47.07" /><path
         id="path52"
         style="fill:#2d1815;fill-opacity:1;fill-rule:nonzero;stroke:none"
         d="m 1784.6,1283.32 c 12.02,-3.73 16.1,-25.03 9.1,-47.57 -6.99,-22.54 -22.4,-37.79 -34.43,-34.06 -12.02,3.73 -16.09,25.03 -9.1,47.57 6.99,22.54 22.4,37.79 34.43,34.06" /><path
         id="path54"
         style="fill:#100f0d;fill-opacity:1;fill-rule:nonzero;stroke:none"
         d="m 1054.4,1590.25 c 138.45,0 250.69,-112.23 250.69,-250.69 0,-138.45 -112.24,-250.69 -250.69,-250.69 -138.459,0 -250.697,112.24 -250.697,250.69 0,138.46 112.238,250.69 250.697,250.69" /><path
         id="path56"
         style="fill:#ffffff;fill-opacity:1;fill-rule:nonzero;stroke:none"
         d="m 1119.92,1516.19 c 36.19,0 65.52,-29.34 65.52,-65.53 0,-36.18 -29.33,-65.52 -65.52,-65.52 -36.19,0 -65.52,29.34 -65.52,65.52 0,36.19 29.33,65.53 65.52,65.53" /><path
         id="path58"
         style="fill:#7a3e3a;fill-opacity:1;fill-rule:nonzero;stroke:none"
         d="m 1917.59,1336.71 c 0,2.85 -65.53,-28.49 -82.62,-31.33 -17.09,2.84 -82.61,34.18 -82.61,31.33 0,0 54.12,0 82.61,0 28.49,0 82.62,0 82.62,0" /><path
         id="path60"
         style="fill:#efc895;fill-opacity:1;fill-rule:nonzero;stroke:none"
         d="m 1419.05,1350.96 c 0,0 -225.06,-153.84 -347.56,-304.83 C 948.992,895.148 951.84,866.66 951.84,866.66 l 88.31,-39.879 c 0,0 125.35,236.449 279.19,324.759 153.83,88.31 173.77,162.38 173.77,162.38 l -74.06,37.04" /><path
         id="path62"
         style="fill:#c9a681;fill-opacity:1;fill-rule:nonzero;stroke:none"
         d="m 926.203,1806.77 c 0,0 -76.918,-210.82 -247.848,-299.13 0,0 267.79,31.34 247.848,299.13" /><path
         id="path64"
         style="fill:#c9a681;fill-opacity:1;fill-rule:nonzero;stroke:none"
         d="m 2723.8,1806.77 c 0,0 76.92,-210.82 247.84,-299.13 0,0 -267.78,31.34 -247.84,299.13" /><path
         id="path66"
         style="fill:#c9a681;fill-opacity:1;fill-rule:nonzero;stroke:none"
         d="m 2236.65,1413.63 c 0,0 -168.08,176.62 -393.13,182.32 -2.85,0 5.69,0 2.85,0 -2.85,0 2.84,0 2.84,0 -227.9,-5.7 -393.13,-182.32 -393.13,-182.32 196.57,136.74 364.65,133.89 393.13,133.89 -2.84,0 190.87,2.85 387.44,-133.89" /><path
         id="path68"
         style="fill:#c9a681;fill-opacity:1;fill-rule:nonzero;stroke:none"
         d="m 2040.08,1783.97 c 0,0 -85.46,119.66 -199.41,122.5 h 2.85 2.85 c -85.47,-2.84 -196.57,-122.5 -196.57,-122.5 96.86,94.01 196.57,91.17 196.57,91.17 0,0 94.01,2.84 193.71,-91.17" /><path
         id="path70"
         style="fill:#c9a681;fill-opacity:1;fill-rule:nonzero;stroke:none"
         d="m 1054.4,909.391 c 0,0 -133.896,-65.52 -230.755,-25.641 h -2.848 c -85.465,48.43 -128.195,193.72 -128.195,193.72 0,0 85.461,-256.392 361.798,-168.079" /><path
         id="path72"
         style="fill:#c9a681;fill-opacity:1;fill-rule:nonzero;stroke:none"
         d="m 2615.54,909.391 c 0,0 133.9,-65.52 230.76,-25.641 113.95,48.43 131.04,193.72 131.04,193.72 0,0 -85.46,-256.392 -361.8,-168.079" /><path
         id="path74"
         style="fill:#c9a681;fill-opacity:1;fill-rule:nonzero;stroke:none"
         d="m 1208.23,1821.01 c 74.07,14.24 196.57,17.09 293.43,-14.24 122.5,-42.74 22.79,-199.42 48.43,-207.97 25.64,-8.55 59.83,108.25 287.73,96.86 230.75,-11.39 256.39,-113.95 287.73,-96.86 31.34,17.09 -31.34,284.88 313.37,222.21 0,0 -361.8,96.86 -344.71,-165.23 0,0 -207.96,159.53 -498.54,17.09 2.85,0 76.92,245 -387.44,148.14" /><path
         id="path76"
         style="fill:#c9a681;fill-opacity:1;fill-rule:nonzero;stroke:none"
         d="m 2470.25,1821.01 c 5.7,0 8.55,-2.85 11.4,-2.85 2.85,0 -2.85,2.85 -11.4,2.85" /><path
         id="path78"
         style="fill:#c9a681;fill-opacity:1;fill-rule:nonzero;stroke:none"
         d="m 1108.53,2171.41 c 0,0 -307.675,-387.44 -353.257,-535.57 C 709.691,1484.85 675.508,866.66 635.625,778.352 l -142.441,609.638 262.089,635.28 353.257,148.14" /><path
         id="path80"
         style="fill:#c9a681;fill-opacity:1;fill-rule:nonzero;stroke:none"
         d="m 2555.72,2171.41 c 0,0 307.67,-387.44 353.25,-535.57 45.58,-150.99 79.77,-769.18 119.65,-857.488 l 142.44,609.638 -262.09,635.28 -353.25,148.14" /><path
         id="path82"
         style="fill:#4f2b27;fill-opacity:1;fill-rule:nonzero;stroke:none"
         d="m 2541.47,2171.41 c 0,0 330.47,-276.33 427.33,-595.4 96.85,-319.06 56.97,-706.498 131.04,-754.932 105.41,-68.367 225.06,339.012 264.94,381.742 62.67,68.37 270.64,242.14 284.88,273.48 14.24,31.34 -421.62,507.09 -612.49,601.1 -230.76,108.26 -515.64,116.8 -495.7,94.01" /><path
         id="path84"
         style="fill:#3d2220;fill-opacity:1;fill-rule:nonzero;stroke:none"
         d="m 2823.51,2000.48 c 0,0 390.28,-498.54 384.58,-1119.582 l 156.69,319.072 c -2.85,0 -139.59,407.38 -541.27,800.51" /><path
         id="path86"
         style="fill:#4f2b27;fill-opacity:1;fill-rule:nonzero;stroke:none"
         d="m 1108.53,2171.41 c 0,0 -330.467,-276.33 -427.327,-595.4 C 584.348,1256.95 624.23,869.512 550.16,821.078 444.754,752.711 325.105,1160.09 285.223,1202.82 222.547,1271.19 14.5859,1444.96 0.339844,1476.3 -13.9023,1507.64 421.965,1983.39 612.836,2077.4 c 230.75,108.26 515.634,116.8 495.694,94.01" /><path
         id="path88"
         style="fill:#3d2220;fill-opacity:1;fill-rule:nonzero;stroke:none"
         d="m 826.492,2000.48 c 0,0 -390.285,-498.54 -384.586,-1119.582 L 288.07,1199.97 c 0,0 136.743,407.38 538.422,800.51" /><path
         id="path90"
         style="fill:#c9a681;fill-opacity:1;fill-rule:nonzero;stroke:none"
         d="m 615.684,869.512 c 0,0 28.488,-153.84 74.066,-202.274 45.582,-48.429 14.246,37.043 14.246,37.043 0,0 -48.43,25.641 -39.883,222.199 8.547,196.57 -48.429,-56.968 -48.429,-56.968" /><path
         id="path92"
         style="fill:#c9a681;fill-opacity:1;fill-rule:nonzero;stroke:none"
         d="m 3045.71,869.512 c 0,0 -28.49,-153.84 -74.07,-202.274 -45.58,-48.429 -14.24,37.043 -14.24,37.043 0,0 48.43,25.641 39.88,222.199 -8.54,196.57 48.43,-56.968 48.43,-56.968" /><path
         id="path94"
         style="fill:#3d2220;fill-opacity:1;fill-rule:nonzero;stroke:none"
         d="m 1547.24,1009.1 c 12.59,0 22.79,-10.202 22.79,-22.791 0,-12.59 -10.2,-22.789 -22.79,-22.789 -12.59,0 -22.79,10.199 -22.79,22.789 0,12.589 10.2,22.791 22.79,22.791" /><path
         id="path96"
         style="fill:#3d2220;fill-opacity:1;fill-rule:nonzero;stroke:none"
         d="m 1416.2,872.359 c 12.58,0 22.79,-10.211 22.79,-22.789 0,-12.59 -10.21,-22.789 -22.79,-22.789 -12.59,0 -22.79,10.199 -22.79,22.789 0,12.578 10.2,22.789 22.79,22.789" /><path
         id="path98"
         style="fill:#3d2220;fill-opacity:1;fill-rule:nonzero;stroke:none"
         d="m 1373.46,1009.1 c 12.59,0 22.79,-10.202 22.79,-22.791 0,-12.59 -10.2,-22.789 -22.79,-22.789 -12.58,0 -22.79,10.199 -22.79,22.789 0,12.589 10.21,22.791 22.79,22.791" /><path
         id="path100"
         style="fill:#3d2220;fill-opacity:1;fill-rule:nonzero;stroke:none"
         d="m 2102.76,1009.1 c 12.59,0 22.79,-10.202 22.79,-22.791 0,-12.59 -10.2,-22.789 -22.79,-22.789 -12.59,0 -22.79,10.199 -22.79,22.789 0,12.589 10.2,22.791 22.79,22.791" /><path
         id="path102"
         style="fill:#3d2220;fill-opacity:1;fill-rule:nonzero;stroke:none"
         d="m 2233.8,872.359 c 12.59,0 22.79,-10.211 22.79,-22.789 0,-12.59 -10.2,-22.789 -22.79,-22.789 -12.58,0 -22.79,10.199 -22.79,22.789 0,12.578 10.21,22.789 22.79,22.789" /><path
         id="path104"
         style="fill:#3d2220;fill-opacity:1;fill-rule:nonzero;stroke:none"
         d="m 2276.54,1009.1 c 12.58,0 22.79,-10.202 22.79,-22.791 0,-12.59 -10.21,-22.789 -22.79,-22.789 -12.59,0 -22.79,10.199 -22.79,22.789 0,12.589 10.2,22.791 22.79,22.791" /></g></g></svg>