<svg width="160" viewBox="0 0 195 32" fill="none" role="img" aria-label="Atlassian">
  <defs>
    <linearGradient id="atlassian-blue-gradient" x1="10.2524" y1="12.8168" x2="4.07222" y2="23.4945" gradientUnits="userSpaceOnUse">
      <stop stop-color="#0052CC" />
      <stop offset="0.9228" stop-color="#2684FF" />
    </linearGradient>
    <linearGradient id="atlassian-white-gradient" x1="10.2586" y1="12.8161" x2="4.08618" y2="23.507" gradientUnits="userSpaceOnUse">
      <stop stop-color="white" stop-opacity="0.4" />
      <stop offset="0.9228" stop-color="white" />
    </linearGradient>
  </defs>
  <style>
    .atlassian-gradient {
      fill: url(#atlassian-blue-gradient);
    }

    .atlassian-a {
      fill: #2684FF;
    }

    .atlassian-text {
      fill: #0052CC;
    }

    @media (prefers-color-scheme: dark) {
      .atlassian-gradient {
        fill: url(#atlassian-white-gradient);
      }

      .atlassian-a,
      .atlassian-text {
        fill: currentColor;
      }
    }
  </style>
  <g>
    <g>
      <g>
        <g>
          <path d="M7.04039 11.0258C6.68099 10.6294 6.14188 10.6655 5.89029 11.1339L0.0679016 22.8437C-0.147743 23.3121 0.175724 23.8526 0.678893 23.8526H8.80149C9.05307 23.8526 9.30466 23.7085 9.41248 23.4563C11.2095 19.8172 10.1313 14.3045 7.04039 11.0258Z" class="atlassian-gradient" />
          <path d="M11.3174 0.360786C8.04684 5.54916 8.26248 11.278 10.4189 15.6016C12.5754 19.9253 14.2286 23.204 14.3365 23.4562C14.4443 23.7085 14.6959 23.8526 14.9474 23.8526H23.07C23.5732 23.8526 23.9326 23.3121 23.681 22.8437C23.681 22.8437 12.7551 0.937272 12.4675 0.396816C12.2878 -0.107609 11.6409 -0.143639 11.3174 0.360786Z" class="atlassian-a" />
        </g>
      </g>
      <g>
        <g>
          <g>
            <g>
              <path d="M121.727 18.0517C121.727 14.6288 119.894 13.0074 114.79 11.8905C111.951 11.278 111.268 10.6294 111.268 9.72868C111.268 8.61174 112.275 8.10732 114.144 8.10732C116.408 8.10732 118.636 8.79189 120.757 9.76471V5.26092C119.283 4.50428 116.983 3.9278 114.287 3.9278C109.22 3.9278 106.596 6.12565 106.596 9.76471C106.596 12.6471 107.926 14.9531 113.173 15.9619C116.3 16.6105 116.947 17.1149 116.947 18.1598C116.947 19.1686 116.3 19.8172 114.072 19.8172C111.52 19.8172 108.465 18.9525 106.488 17.7635V22.4834C108.07 23.2761 110.154 24.1408 114.036 24.1408C119.535 24.1408 121.727 21.6908 121.727 18.0517Z" class="atlassian-text" />
              <path d="M177.004 4.21603V23.8526H181.173V8.89998L182.934 12.8633L188.828 23.8526H194.076V4.21603H189.907V16.8987L188.325 13.2236L183.581 4.21603H177.004Z" class="atlassian-text" />
              <path d="M150.516 4.21603H145.951V23.8166H150.516V4.21603Z" class="atlassian-text" />
              <path d="M140.668 18.0517C140.668 14.6288 138.835 13.0074 133.731 11.8905C130.892 11.278 130.209 10.6294 130.209 9.72868C130.209 8.61174 131.216 8.10732 133.084 8.10732C135.349 8.10732 137.577 8.79189 139.698 9.76471V5.26092C138.224 4.50428 135.924 3.9278 133.228 3.9278C128.161 3.9278 125.537 6.12565 125.537 9.76471C125.537 12.6471 126.867 14.9531 132.114 15.9619C135.241 16.6105 135.888 17.1149 135.888 18.1598C135.888 19.1686 135.241 19.8172 133.013 19.8172C130.461 19.8172 127.406 18.9525 125.429 17.7635V22.4834C127.01 23.2761 129.095 24.1408 132.977 24.1408C138.511 24.1408 140.668 21.6908 140.668 18.0517Z" class="atlassian-text" />
              <path d="M71.2304 4.21603V23.8526H80.575L82.0485 19.601H75.7949V4.21603H71.2304Z" class="atlassian-text" />
              <path d="M52.721 4.2168V8.46839H57.7886V23.8534H62.3531V8.46839H67.7801V4.2168H52.721Z" class="atlassian-text" />
            </g>
          </g>
          <path d="M46.0721 4.2168H40.07L33.2412 23.8173H38.4526L39.423 20.5025C40.5731 20.8268 41.7951 21.043 43.089 21.043C44.3469 21.043 45.5689 20.8628 46.7549 20.5025L47.7253 23.8173H52.9367L46.0721 4.2168ZM43.0531 17.0076C42.1905 17.0076 41.3279 16.8635 40.5372 16.6473L43.0531 8.07205L45.5689 16.6473C44.7782 16.8635 43.9516 17.0076 43.0531 17.0076Z" class="atlassian-text" />
          <path d="M96.7484 4.21603H90.7463L83.9176 23.8166H89.129L90.0994 20.5018C91.2495 20.826 92.4715 21.0422 93.7653 21.0422C95.0233 21.0422 96.2453 20.8621 97.4313 20.5018L98.4017 23.8166H103.613L96.7484 4.21603ZM93.7294 17.0068C92.8668 17.0068 92.0043 16.8627 91.2136 16.6465L93.7294 8.07128L96.2452 16.6465C95.4546 16.8627 94.592 17.0068 93.7294 17.0068Z" class="atlassian-text" />
          <path d="M166.905 4.21603H160.902L154.074 23.8166H159.285L160.255 20.5018C161.406 20.826 162.628 21.0422 163.921 21.0422C165.179 21.0422 166.401 20.8621 167.587 20.5018L168.558 23.8166H173.769L166.905 4.21603ZM163.921 17.0068C163.059 17.0068 162.196 16.8627 161.406 16.6465L163.921 8.07128L166.437 16.6465C165.611 16.8627 164.784 17.0068 163.921 17.0068Z" class="atlassian-text" />
        </g>
      </g>
    </g>
  </g>
</svg>
