<svg width="160" viewBox="0 0 312.8 55.5" role="img" aria-label="Sourcegraph">
<style type="text/css">
	.st0{fill:#FF5543;}
	.st1{fill:#A112FF;}
	.st2{fill:#00CBEC;}
	.st3{fill:currentColor;}
</style>
<g>
	<g>
		<g>
			<path class="st0" d="M34.8,53.8c-2.8,0.5-5.5-1.3-6-4.1L21.2,8.2c-0.5-2.8,1.3-5.5,4.1-6s5.5,1.3,6,4.1l7.6,41.5
				C39.4,50.6,37.5,53.3,34.8,53.8z"/>
		</g>
		<g>
			<path class="st1" d="M14.9,46.7C13.1,47,11.3,46.4,10,45c-1.8-2.2-1.6-5.4,0.6-7.2l32.1-27.3c2.2-1.8,5.4-1.6,7.2,0.6
				s1.6,5.4-0.6,7.2l-32,27.3C16.6,46.2,15.7,46.6,14.9,46.7z"/>
		</g>
		<g>
			<g>
				<path class="st2" d="M50.8,40.1c-0.9,0.2-1.8,0.1-2.6-0.2L8.4,25.8c-2.7-1-4.1-3.9-3.1-6.6s3.9-4.1,6.6-3.1l39.7,14.1
					c2.7,1,4.1,3.9,3.1,6.6C54.1,38.6,52.5,39.8,50.8,40.1z"/>
			</g>
		</g>
	</g>
	<path class="st3" d="M84,35.1c0-1-0.4-1.8-1.1-2.4c-0.7-0.6-1.6-1.2-2.7-1.7s-2.3-1-3.6-1.6c-1.3-0.5-2.5-1.2-3.6-2s-2-1.8-2.7-3
		s-1.1-2.7-1.1-4.5c0-1.6,0.3-3,0.8-4.1c0.5-1.2,1.3-2.1,2.3-2.9c1-0.8,2.1-1.3,3.5-1.7c1.3-0.4,2.8-0.6,4.5-0.6
		c1.9,0,3.7,0.2,5.3,0.5s3.1,0.8,4.1,1.4l-2,5.3C87,17.4,86,17,84.6,16.7c-1.4-0.4-2.8-0.5-4.4-0.5c-1.5,0-2.6,0.3-3.4,0.9
		s-1.2,1.4-1.2,2.4c0,0.9,0.4,1.7,1.1,2.3c0.7,0.6,1.6,1.2,2.7,1.7s2.3,1.1,3.6,1.6c1.3,0.6,2.5,1.2,3.6,2s2,1.8,2.7,2.9
		c0.7,1.2,1.1,2.6,1.1,4.3s-0.3,3.2-0.9,4.5s-1.4,2.3-2.4,3.1s-2.3,1.5-3.8,1.9s-3.1,0.6-4.9,0.6c-2.3,0-4.4-0.2-6.1-0.7
		c-1.8-0.4-3.1-0.9-3.9-1.3l2-5.4c0.3,0.2,0.8,0.4,1.3,0.6c0.5,0.2,1.2,0.4,1.8,0.6c0.7,0.2,1.4,0.3,2.2,0.5
		c0.8,0.1,1.5,0.2,2.3,0.2c1.9,0,3.3-0.3,4.3-1C83.5,37.3,84,36.4,84,35.1z"/>
	<path class="st3" d="M93.1,32.2c0-3.9,1-7,2.9-9.1s4.6-3.2,8.1-3.2c1.9,0,3.5,0.3,4.8,0.9c1.4,0.6,2.5,1.4,3.4,2.5s1.6,2.4,2,3.9
		s0.7,3.2,0.7,5c0,3.9-1,7-2.9,9.1s-4.6,3.2-8.1,3.2c-1.9,0-3.5-0.3-4.8-0.9c-1.4-0.6-2.5-1.4-3.4-2.5s-1.6-2.4-2-3.9
		C93.3,35.7,93.1,34,93.1,32.2z M99.3,32.2c0,1,0.1,2,0.3,2.8c0.2,0.9,0.5,1.6,0.8,2.3c0.4,0.7,0.9,1.2,1.5,1.5
		c0.6,0.4,1.3,0.5,2.2,0.5c1.6,0,2.8-0.6,3.5-1.7c0.8-1.1,1.2-3,1.2-5.4c0-2.1-0.4-3.9-1.1-5.2c-0.7-1.3-1.9-2-3.6-2
		c-1.5,0-2.7,0.6-3.5,1.7C99.7,27.8,99.3,29.6,99.3,32.2z"/>
	<path class="st3" d="M124.1,20.6v13.2c0,1.9,0.2,3.3,0.7,4.1c0.4,0.8,1.3,1.3,2.6,1.3c1.1,0,2.1-0.3,2.9-1c0.8-0.7,1.3-1.5,1.7-2.5
		v-15h6v16.2c0,1.3,0.1,2.5,0.2,3.7c0.1,1.2,0.3,2.3,0.6,3.3h-4.6l-1.1-3.4h-0.2c-0.7,1.2-1.7,2.2-3,2.9c-1.3,0.8-2.8,1.2-4.5,1.2
		c-1.2,0-2.2-0.2-3.2-0.5c-0.9-0.3-1.7-0.8-2.3-1.5c-0.6-0.7-1.1-1.7-1.4-2.9S118,36.9,118,35V20.6H124.1z"/>
	<path class="st3" d="M155.5,26.2c-1-0.3-1.8-0.5-2.6-0.5c-1.1,0-2,0.3-2.7,0.9s-1.2,1.3-1.5,2.2v15h-6V20.6h4.7l0.7,3.1h0.2
		c0.5-1.1,1.2-2,2.1-2.7s2-0.9,3.2-0.9c0.8,0,2.5,0.4,3.4,0.8L155.5,26.2z"/>
	<path class="st3" d="M175.1,42.4c-0.9,0.7-2.1,1.2-3.4,1.6c-1.3,0.4-2.7,0.5-4.1,0.5c-1.9,0-3.4-0.3-4.7-0.9
		c-1.3-0.6-2.3-1.4-3.1-2.5s-1.4-2.4-1.7-3.9c-0.4-1.5-0.5-3.2-0.5-5c0-3.9,0.9-7,2.7-9.1s4.3-3.2,7.7-3.2c1.7,0,3.1,0.1,4.1,0.4
		s2,0.6,2.8,1.1l-1.4,4.9c-0.7-0.3-1.4-0.6-2.1-0.8c-0.7-0.2-1.5-0.3-2.4-0.3c-1.7,0-2.9,0.6-3.8,1.7c-0.9,1.1-1.3,2.9-1.3,5.3
		c0,1,0.1,1.9,0.3,2.7s0.5,1.6,1,2.2c0.4,0.6,1,1.1,1.7,1.5s1.5,0.5,2.4,0.5c1,0,1.9-0.1,2.6-0.4c0.7-0.3,1.3-0.6,1.9-1L175.1,42.4z
		"/>
	<path class="st3" d="M196.4,41.8c-0.9,0.7-2.2,1.4-3.8,1.9s-3.3,0.8-5.1,0.8c-3.8,0-6.5-1.1-8.2-3.3s-2.6-5.2-2.6-9
		c0-4.1,1-7.2,2.9-9.2s4.7-3.1,8.2-3.1c1.2,0,2.3,0.2,3.4,0.5s2.1,0.8,3,1.5s1.6,1.7,2.1,2.9c0.5,1.2,0.8,2.7,0.8,4.5
		c0,0.7,0,1.3-0.1,2.1c-0.1,0.7-0.2,1.5-0.3,2.3h-14c0.1,2,0.6,3.4,1.5,4.4s2.4,1.5,4.4,1.5c1.3,0,2.4-0.2,3.4-0.6
		c1-0.4,1.8-0.8,2.3-1.2L196.4,41.8z M187.7,24.7c-1.6,0-2.8,0.5-3.5,1.4c-0.8,0.9-1.2,2.2-1.4,3.8h8.6c0.1-1.7-0.1-3-0.8-3.9
		C190.1,25.2,189.1,24.7,187.7,24.7z"/>
	<path class="st3" d="M220.6,43.8c0,3.4-0.9,5.9-2.7,7.5s-4.4,2.4-7.7,2.4c-2.2,0-4-0.2-5.3-0.5s-2.3-0.6-2.9-1l1.3-4.8
		c0.7,0.3,1.5,0.6,2.5,0.8s2.1,0.4,3.5,0.4c2.1,0,3.5-0.5,4.3-1.4s1.1-2.2,1.1-3.8V42h-0.2c-1.1,1.5-3,2.2-5.8,2.2
		c-3,0-5.2-0.9-6.7-2.8c-1.5-1.9-2.2-4.8-2.2-8.7c0-4.2,1-7.3,3-9.4s4.9-3.2,8.6-3.2c2,0,3.8,0.1,5.3,0.4s2.8,0.6,3.8,1L220.6,43.8
		L220.6,43.8z M210.4,39.3c1.2,0,2.1-0.3,2.7-0.8c0.6-0.5,1.1-1.3,1.5-2.4V25.7c-1-0.4-2.2-0.6-3.6-0.6c-1.6,0-2.8,0.6-3.6,1.7
		c-0.9,1.2-1.3,3-1.3,5.6c0,2.3,0.4,4,1.1,5.2C207.9,38.8,209,39.3,210.4,39.3z"/>
	<path class="st3" d="M238.1,26.2c-1-0.3-1.8-0.5-2.6-0.5c-1.1,0-2,0.3-2.7,0.9s-1.2,1.3-1.5,2.2v15h-6V20.6h4.7l0.7,3.1h0.2
		c0.5-1.1,1.2-2,2.1-2.7s2-0.9,3.2-0.9c0.8,0,1.7,0.2,2.7,0.5L238.1,26.2z"/>
	<path class="st3" d="M241,21.7c1.2-0.6,2.1-0.8,3.8-1.1c1.7-0.3,3.5-0.5,5.3-0.5c1.6,0,3,0.2,4,0.6s1.9,0.9,2.6,1.7
		c0.6,0.7,1.1,1.6,1.3,2.6c0.3,1,0.4,2.1,0.4,3.3c0,1.4,0,2.7-0.1,4.1c-0.1,1.4-0.1,2.7-0.2,4.1c0,1.3,0,2.6,0.1,3.9
		s0.3,2.4,0.7,3.6H254l-1-3.2l0,0c-0.6,1-1.5,1.8-2.6,2.5s-2.5,1-4.3,1c-1.1,0-2.1-0.2-2.9-0.5c-0.9-0.3-1.6-0.8-2.2-1.4
		s-1.1-1.3-1.4-2.1c-0.3-0.8-0.5-1.7-0.5-2.8c0-1.4,0.3-2.6,1-3.6s1.5-1.8,2.7-2.4s2.6-1,4.3-1.3s3.5-0.3,5.6-0.2
		c0.2-1.7,0.1-3-0.4-3.7c-0.5-0.8-1.5-1.1-3.1-1.1c-1.2,0-2.5,0.1-3.8,0.4s-1.9,0.4-2.7,0.8L241,21.7z M248.1,39.2
		c1.2,0,2.2-0.3,2.9-0.8s1.2-1.1,1.6-1.7v-3c-1-0.1-1.9-0.1-2.8,0c-0.9,0.1-1.7,0.2-2.3,0.4s-1.2,0.5-1.6,0.9
		c-0.4,0.4-0.6,0.9-0.6,1.5c0,0.9,0.3,1.5,0.8,2C246.5,39,247.2,39.2,248.1,39.2z"/>
	<path class="st3" d="M263.1,20.6h4.4l0.7,2.8h0.2c0.8-1.2,1.8-2,2.9-2.6s2.4-0.8,4-0.8c2.9,0,5.1,0.9,6.6,2.8s2.2,4.8,2.2,8.9
		c0,2-0.2,3.8-0.7,5.4s-1.2,3-2.1,4.1s-2,2-3.3,2.6s-2.8,0.9-4.5,0.9c-1,0-1.8-0.1-2.4-0.2c-0.6-0.1-1.2-0.4-1.9-0.7v9.5h-6V20.6
		H263.1z M273.4,25c-1.2,0-2.1,0.3-2.8,0.9s-1.2,1.5-1.6,2.7v9.7c0.4,0.3,0.9,0.6,1.4,0.8s1.2,0.3,2,0.3c1.7,0,3-0.6,3.9-1.8
		s1.3-3.2,1.3-6.1c0-2-0.3-3.6-1-4.7C276,25.6,274.9,25,273.4,25z"/>
	<path class="st3" d="M301.6,43.8V30.6c0-1.9-0.3-3.3-0.8-4.1s-1.5-1.3-2.9-1.3c-1,0-2,0.3-2.8,1c-0.9,0.7-1.4,1.6-1.7,2.7v14.8h-6
		V11.3h6v11.9h0.2c0.7-1,1.7-1.8,2.7-2.4c1.1-0.6,2.5-0.9,4.1-0.9c1.2,0,2.2,0.2,3.1,0.5s1.7,0.8,2.3,1.5s1.1,1.7,1.3,2.9
		s0.4,2.7,0.4,4.5v14.5C307.5,43.8,301.6,43.8,301.6,43.8z"/>
</g>
</svg>
