<svg id="svg" version="1.1" width="400" height="400" viewBox="0 0 400 400" xmlns="http://www.w3.org/2000/svg" xmlns:xlink="http://www.w3.org/1999/xlink" ><g id="svgg"><path id="path0" d="M114.668 102.666 C 114.334 103.000,114.310 138.499,114.643 139.367 C 114.861 139.936,117.819 140.000,143.981 140.000 C 173.051 140.000,173.077 140.001,173.838 140.842 C 174.582 141.664,174.602 143.818,174.703 231.646 L 174.807 321.607 195.103 321.504 L 215.400 321.400 215.600 231.514 C 215.790 145.916,215.834 141.594,216.514 140.914 C 217.183 140.245,219.079 140.187,246.314 140.000 L 275.400 139.800 275.400 121.200 L 275.400 102.600 195.168 102.499 C 151.040 102.443,114.815 102.518,114.668 102.666 " stroke="none" fill="#040404" fill-rule="evenodd"></path><path id="path1" d="M30.000 199.000 L 30.000 367.200 66.600 367.200 L 103.200 367.200 103.200 349.600 L 103.200 332.000 86.689 332.000 C 69.332 332.000,69.126 331.981,67.906 330.223 C 67.205 329.213,67.558 68.533,68.261 67.949 C 68.794 67.507,72.248 67.378,86.061 67.288 L 103.200 67.175 103.200 48.988 L 103.200 30.800 66.600 30.800 L 30.000 30.800 30.000 199.000 M292.000 48.987 L 292.000 67.175 308.833 67.287 C 324.964 67.395,325.689 67.432,326.233 68.176 C 326.818 68.978,327.131 327.323,326.549 329.495 C 325.907 331.892,325.142 331.999,308.553 332.013 C 296.587 332.023,293.253 332.137,292.700 332.557 C 292.053 333.048,292.000 334.369,292.000 350.144 L 292.000 367.200 328.600 367.200 L 365.200 367.200 365.200 199.000 L 365.200 30.800 328.600 30.800 L 292.000 30.800 292.000 48.987 M114.229 102.229 C 113.282 103.175,113.277 138.960,114.223 140.311 L 114.845 141.200 144.033 141.200 L 173.220 141.200 173.610 142.226 C 173.859 142.882,174.000 175.426,174.000 232.346 C 174.000 301.108,174.110 321.550,174.480 321.920 C 175.172 322.612,215.228 322.612,215.920 321.920 C 216.290 321.550,216.400 301.064,216.400 232.149 L 216.400 142.858 217.454 142.029 C 218.498 141.208,218.783 141.200,246.792 141.200 C 273.685 141.200,275.109 141.164,275.738 140.469 C 276.593 139.524,276.766 102.926,275.920 102.080 C 275.090 101.250,115.060 101.397,114.229 102.229 M275.400 121.200 L 275.400 139.800 246.314 140.000 C 219.079 140.187,217.183 140.245,216.514 140.914 C 215.834 141.594,215.790 145.916,215.600 231.514 L 215.400 321.400 195.103 321.504 L 174.807 321.607 174.703 231.646 C 174.602 143.818,174.582 141.664,173.838 140.842 C 173.077 140.001,173.051 140.000,143.981 140.000 C 117.819 140.000,114.861 139.936,114.643 139.367 C 114.310 138.499,114.334 103.000,114.668 102.666 C 114.815 102.518,151.040 102.443,195.168 102.499 L 275.400 102.600 275.400 121.200 " stroke="none" fill="#7c8484" fill-rule="evenodd"></path><path id="path2" d="M0.000 200.000 L 0.000 400.000 200.000 400.000 L 400.000 400.000 400.000 200.000 L 400.000 0.000 200.000 0.000 L 0.000 0.000 0.000 200.000 M104.171 30.229 C 105.268 31.325,105.106 66.894,104.000 68.000 C 103.226 68.774,102.667 68.800,86.600 68.800 L 70.000 68.800 70.000 198.957 C 70.000 317.275,70.058 329.136,70.633 329.357 C 70.981 329.491,78.416 329.600,87.156 329.600 C 100.247 329.600,103.184 329.700,103.824 330.168 C 105.050 331.064,105.035 367.746,103.807 368.644 C 102.689 369.462,29.142 369.302,28.320 368.480 C 27.421 367.581,27.362 31.325,28.261 30.333 C 29.213 29.281,103.122 29.179,104.171 30.229 M366.173 30.230 C 367.281 31.338,366.918 367.832,365.807 368.644 C 364.689 369.462,291.141 369.302,290.320 368.480 C 289.393 367.553,289.578 331.451,290.514 330.514 C 291.169 329.859,292.570 329.784,307.514 329.600 L 323.800 329.400 323.901 199.124 L 324.001 68.848 307.368 68.724 C 291.441 68.605,290.711 68.567,290.167 67.824 C 289.244 66.560,289.333 31.358,290.262 30.331 C 291.214 29.279,365.123 29.181,366.173 30.230 M276.586 101.241 L 278.000 102.483 278.000 121.094 C 278.000 141.527,277.958 141.889,275.495 142.549 C 275.003 142.681,261.865 142.792,246.300 142.795 L 218.000 142.800 218.000 232.153 L 218.000 321.505 216.724 322.753 L 215.448 324.000 195.153 324.000 L 174.858 324.000 174.029 322.946 L 173.200 321.892 173.200 232.346 L 173.200 142.800 144.426 142.800 C 127.720 142.800,115.243 142.644,114.677 142.429 C 112.024 141.421,112.000 141.229,112.000 121.013 L 112.000 102.720 113.360 101.360 L 114.720 100.000 194.946 100.000 L 275.172 100.000 276.586 101.241 " stroke="none" fill="#fcfcfc" fill-rule="evenodd"></path><path id="path3" d="M29.300 30.665 C 28.323 31.059,28.596 367.062,29.574 367.586 C 30.759 368.220,102.884 368.156,103.520 367.520 C 104.050 366.990,104.164 333.878,103.642 332.000 L 103.364 331.000 86.743 330.800 C 73.469 330.640,69.989 330.489,69.461 330.051 C 68.341 329.121,68.453 69.014,69.574 68.414 C 70.071 68.148,76.191 68.000,86.694 68.000 C 98.874 68.000,103.162 67.878,103.520 67.520 C 104.345 66.695,104.197 30.961,103.367 30.643 C 102.611 30.352,30.021 30.374,29.300 30.665 M291.300 30.665 C 290.910 30.822,290.800 34.870,290.800 49.010 C 290.800 63.085,290.912 67.225,291.300 67.476 C 291.575 67.654,299.180 67.890,308.200 68.000 C 317.220 68.110,324.825 68.346,325.100 68.524 C 325.498 68.781,325.600 95.316,325.600 198.995 L 325.600 329.142 324.546 329.971 C 323.520 330.778,323.072 330.800,307.560 330.800 C 292.218 330.800,291.613 330.829,291.214 331.574 C 290.339 333.210,290.677 367.106,291.574 367.586 C 292.759 368.220,364.884 368.156,365.520 367.520 C 366.355 366.685,366.203 30.964,365.367 30.643 C 364.611 30.352,292.021 30.374,291.300 30.665 M103.200 48.988 L 103.200 67.175 86.061 67.288 C 72.248 67.378,68.794 67.507,68.261 67.949 C 67.558 68.533,67.205 329.213,67.906 330.223 C 69.126 331.981,69.332 332.000,86.689 332.000 L 103.200 332.000 103.200 349.600 L 103.200 367.200 66.600 367.200 L 30.000 367.200 30.000 199.000 L 30.000 30.800 66.600 30.800 L 103.200 30.800 103.200 48.988 M365.200 199.000 L 365.200 367.200 328.600 367.200 L 292.000 367.200 292.000 350.144 C 292.000 334.369,292.053 333.048,292.700 332.557 C 293.253 332.137,296.587 332.023,308.553 332.013 C 325.142 331.999,325.907 331.892,326.549 329.495 C 327.131 327.323,326.818 68.978,326.233 68.176 C 325.689 67.432,324.964 67.395,308.833 67.287 L 292.000 67.175 292.000 48.987 L 292.000 30.800 328.600 30.800 L 365.200 30.800 365.200 199.000 M113.862 101.931 C 112.766 103.142,112.862 139.494,113.965 140.856 L 114.729 141.800 144.165 142.000 C 163.699 142.133,173.555 142.065,173.467 141.800 C 173.380 141.539,163.170 141.366,144.167 141.304 L 115.000 141.208 114.300 140.360 C 113.284 139.128,113.216 103.241,114.229 102.229 C 115.060 101.397,275.090 101.250,275.920 102.080 C 276.826 102.986,276.586 139.708,275.669 140.538 C 275.002 141.141,272.415 141.200,246.722 141.200 C 218.784 141.200,218.498 141.208,217.454 142.029 L 216.400 142.858 216.400 232.149 C 216.400 301.064,216.290 321.550,215.920 321.920 C 215.228 322.612,175.172 322.612,174.480 321.920 C 174.110 321.550,173.977 300.925,173.901 232.020 L 173.802 142.600 173.700 231.925 C 173.630 293.045,173.729 321.494,174.013 322.025 C 174.526 322.982,215.373 323.267,216.320 322.320 C 216.690 321.950,216.800 301.416,216.800 232.334 C 216.800 144.252,216.812 142.822,217.574 142.414 C 218.086 142.140,227.922 142.000,246.704 142.000 L 275.061 142.000 275.930 141.074 C 277.187 139.737,277.316 102.991,276.069 101.862 C 274.873 100.780,114.842 100.849,113.862 101.931 " stroke="none" fill="#9ca4a4" fill-rule="evenodd"></path><path id="path4" d="M28.261 30.333 C 27.362 31.325,27.421 367.581,28.320 368.480 C 29.142 369.302,102.689 369.462,103.807 368.644 C 105.035 367.746,105.050 331.064,103.824 330.168 C 103.184 329.700,100.247 329.600,87.156 329.600 C 78.416 329.600,70.981 329.491,70.633 329.357 C 70.058 329.136,70.000 317.275,70.000 198.957 L 70.000 68.800 86.600 68.800 C 102.667 68.800,103.226 68.774,104.000 68.000 C 105.106 66.894,105.268 31.325,104.171 30.229 C 103.122 29.179,29.213 29.281,28.261 30.333 M290.262 30.331 C 289.333 31.358,289.244 66.560,290.167 67.824 C 290.711 68.567,291.441 68.605,307.368 68.724 L 324.001 68.848 323.901 199.124 L 323.800 329.400 307.514 329.600 C 292.570 329.784,291.169 329.859,290.514 330.514 C 289.578 331.451,289.393 367.553,290.320 368.480 C 291.141 369.302,364.689 369.462,365.807 368.644 C 366.918 367.832,367.281 31.338,366.173 30.230 C 365.123 29.181,291.214 29.279,290.262 30.331 M103.367 30.643 C 104.197 30.961,104.345 66.695,103.520 67.520 C 103.162 67.878,98.874 68.000,86.694 68.000 C 76.191 68.000,70.071 68.148,69.574 68.414 C 68.453 69.014,68.341 329.121,69.461 330.051 C 69.989 330.489,73.469 330.640,86.743 330.800 L 103.364 331.000 103.642 332.000 C 104.164 333.878,104.050 366.990,103.520 367.520 C 102.884 368.156,30.759 368.220,29.574 367.586 C 28.596 367.062,28.323 31.059,29.300 30.665 C 30.021 30.374,102.611 30.352,103.367 30.643 M365.367 30.643 C 366.203 30.964,366.355 366.685,365.520 367.520 C 364.884 368.156,292.759 368.220,291.574 367.586 C 290.677 367.106,290.339 333.210,291.214 331.574 C 291.613 330.829,292.218 330.800,307.560 330.800 C 323.072 330.800,323.520 330.778,324.546 329.971 L 325.600 329.142 325.600 198.995 C 325.600 95.316,325.498 68.781,325.100 68.524 C 324.825 68.346,317.220 68.110,308.200 68.000 C 299.180 67.890,291.575 67.654,291.300 67.476 C 290.912 67.225,290.800 63.085,290.800 49.010 C 290.800 34.870,290.910 30.822,291.300 30.665 C 292.021 30.374,364.611 30.352,365.367 30.643 M113.360 101.360 L 112.000 102.720 112.000 121.013 C 112.000 141.229,112.024 141.421,114.677 142.429 C 115.243 142.644,127.720 142.800,144.426 142.800 L 173.200 142.800 173.200 232.346 L 173.200 321.892 174.029 322.946 L 174.858 324.000 195.153 324.000 L 215.448 324.000 216.724 322.753 L 218.000 321.505 218.000 232.153 L 218.000 142.800 246.300 142.795 C 261.865 142.792,275.003 142.681,275.495 142.549 C 277.958 141.889,278.000 141.527,278.000 121.094 L 278.000 102.483 276.586 101.241 L 275.172 100.000 194.946 100.000 L 114.720 100.000 113.360 101.360 M276.069 101.862 C 277.316 102.991,277.187 139.737,275.930 141.074 L 275.061 142.000 246.704 142.000 C 227.922 142.000,218.086 142.140,217.574 142.414 C 216.812 142.822,216.800 144.252,216.800 232.334 C 216.800 301.416,216.690 321.950,216.320 322.320 C 215.609 323.031,174.584 323.011,174.124 322.300 C 173.946 322.025,173.710 281.390,173.600 232.000 L 173.400 142.200 144.065 142.000 L 114.729 141.800 113.965 140.856 C 112.862 139.494,112.766 103.142,113.862 101.931 C 114.842 100.849,274.873 100.780,276.069 101.862 " stroke="none" fill="#c4c4c4" fill-rule="evenodd"></path></g></svg>