<svg id="svg" version="1.1" width="400" height="400" viewBox="0 0 400 400" xmlns="http://www.w3.org/2000/svg" xmlns:xlink="http://www.w3.org/1999/xlink" ><g id="svgg"><path id="path0" d="M213.246 1.500 C 213.230 4.040,213.093 5.424,212.908 4.898 C 212.811 4.621,212.567 4.497,212.366 4.621 C 212.165 4.745,212.000 4.672,212.000 4.457 C 212.000 4.242,212.225 3.976,212.500 3.865 C 212.877 3.713,212.880 3.655,212.514 3.632 C 212.247 3.614,211.835 3.960,211.600 4.400 C 211.275 5.007,211.296 5.201,211.686 5.206 C 212.073 5.211,212.082 5.287,211.722 5.516 C 211.459 5.683,211.297 6.175,211.361 6.610 C 211.541 7.826,210.813 10.141,210.068 10.717 C 209.388 11.244,209.338 11.373,209.250 12.824 C 209.222 13.286,209.017 13.534,208.782 13.389 C 208.048 12.935,207.150 14.084,207.235 15.368 C 207.452 18.640,207.245 19.534,206.297 19.430 C 205.488 19.342,205.388 19.515,205.339 21.090 C 205.279 23.044,205.190 23.213,204.145 23.367 C 203.624 23.443,203.392 23.863,203.331 24.837 C 203.285 25.587,203.205 26.917,203.154 27.792 C 203.103 28.668,202.987 29.162,202.897 28.890 C 202.806 28.618,202.567 28.497,202.366 28.621 C 202.165 28.745,202.000 28.672,202.000 28.457 C 202.000 28.242,202.225 27.976,202.500 27.865 C 202.877 27.713,202.880 27.655,202.514 27.632 C 201.789 27.584,201.076 29.083,201.703 29.337 C 202.041 29.474,202.066 29.645,201.781 29.870 C 201.550 30.051,201.323 30.780,201.275 31.488 C 201.166 33.127,200.536 34.800,200.028 34.800 C 199.813 34.800,199.518 35.428,199.374 36.196 C 199.230 36.965,198.944 37.489,198.739 37.362 C 197.950 36.875,197.221 38.111,197.217 39.940 C 197.212 42.718,197.140 43.455,196.925 42.898 C 196.819 42.621,196.567 42.497,196.366 42.621 C 196.165 42.745,196.000 42.672,196.000 42.457 C 196.000 42.242,196.225 41.976,196.500 41.865 C 196.877 41.713,196.880 41.655,196.514 41.632 C 196.247 41.614,195.835 41.960,195.600 42.400 C 195.275 43.007,195.296 43.201,195.686 43.206 C 196.047 43.210,196.022 43.327,195.600 43.600 C 195.067 43.945,195.067 43.989,195.600 44.000 C 196.001 44.008,196.050 44.110,195.747 44.306 C 195.499 44.468,195.296 45.103,195.297 45.717 C 195.300 47.004,195.149 47.220,194.137 47.368 C 193.632 47.442,193.382 47.841,193.343 48.638 C 193.311 49.277,193.266 50.199,193.243 50.687 C 193.215 51.255,193.007 51.501,192.664 51.369 C 191.855 51.059,191.203 52.106,191.256 53.636 C 191.373 57.070,191.254 57.535,190.281 57.429 C 189.505 57.343,189.355 57.521,189.323 58.564 C 189.236 61.410,189.198 61.574,188.664 61.369 C 187.877 61.067,187.285 62.006,187.256 63.600 C 187.210 66.213,187.085 67.402,186.908 66.898 C 186.811 66.621,186.567 66.497,186.366 66.621 C 186.165 66.745,186.000 66.672,186.000 66.457 C 186.000 66.242,186.225 65.976,186.500 65.865 C 186.877 65.713,186.880 65.655,186.514 65.632 C 186.247 65.614,185.835 65.960,185.600 66.400 C 185.275 67.007,185.296 67.201,185.686 67.206 C 186.081 67.211,186.074 67.292,185.655 67.558 C 185.194 67.849,185.194 67.937,185.655 68.120 C 186.042 68.274,186.055 68.346,185.700 68.368 C 185.401 68.387,185.200 68.964,185.200 69.800 C 185.200 70.570,185.020 71.223,184.800 71.250 C 184.580 71.278,184.175 71.323,183.900 71.350 C 183.625 71.377,183.374 71.940,183.343 72.600 C 183.311 73.260,183.266 74.199,183.243 74.687 C 183.215 75.255,183.007 75.501,182.664 75.369 C 181.855 75.059,181.203 76.106,181.256 77.636 C 181.373 81.070,181.254 81.535,180.281 81.429 C 179.505 81.343,179.355 81.521,179.323 82.564 C 179.253 84.872,179.200 85.049,178.302 86.013 C 177.478 86.898,177.315 87.514,177.144 90.400 C 177.111 90.950,177.005 91.174,176.908 90.898 C 176.811 90.621,176.567 90.497,176.366 90.621 C 176.165 90.745,176.000 90.672,176.000 90.457 C 176.000 90.242,176.225 89.976,176.500 89.865 C 176.877 89.713,176.880 89.655,176.514 89.632 C 176.247 89.614,175.835 89.960,175.600 90.400 C 175.275 91.007,175.296 91.201,175.686 91.206 C 176.008 91.210,176.048 91.322,175.793 91.506 C 175.569 91.668,175.353 92.496,175.314 93.346 C 175.232 95.095,175.160 95.218,174.137 95.368 C 173.632 95.442,173.382 95.841,173.343 96.638 C 173.311 97.277,173.266 98.199,173.243 98.687 C 173.215 99.255,173.007 99.501,172.664 99.369 C 171.855 99.059,171.203 100.106,171.256 101.636 C 171.373 105.070,171.254 105.535,170.281 105.429 C 169.505 105.343,169.355 105.521,169.323 106.564 C 169.253 108.872,169.200 109.049,168.302 110.013 C 167.478 110.898,167.315 111.514,167.144 114.400 C 167.111 114.950,167.005 115.174,166.908 114.898 C 166.811 114.621,166.567 114.497,166.366 114.621 C 166.165 114.745,166.000 114.672,166.000 114.457 C 166.000 114.242,166.225 113.976,166.500 113.865 C 166.877 113.713,166.880 113.655,166.514 113.632 C 166.247 113.614,165.835 113.960,165.600 114.400 C 165.275 115.007,165.296 115.201,165.686 115.206 C 166.073 115.211,166.082 115.287,165.722 115.516 C 165.459 115.683,165.297 116.175,165.361 116.610 C 165.541 117.826,164.813 120.141,164.068 120.717 C 163.388 121.244,163.338 121.373,163.250 122.824 C 163.222 123.286,163.017 123.534,162.782 123.389 C 161.953 122.877,161.221 124.071,161.217 125.940 C 161.212 128.718,161.140 129.455,160.925 128.898 C 160.819 128.621,160.567 128.497,160.366 128.621 C 160.165 128.745,160.000 128.672,160.000 128.457 C 160.000 128.242,160.225 127.976,160.500 127.865 C 160.877 127.713,160.880 127.655,160.514 127.632 C 160.247 127.614,159.835 127.960,159.600 128.400 C 159.275 129.007,159.296 129.201,159.686 129.206 C 160.047 129.210,160.022 129.327,159.600 129.600 C 159.067 129.945,159.067 129.989,159.600 130.000 C 160.001 130.008,160.050 130.110,159.747 130.306 C 159.499 130.468,159.296 131.102,159.297 131.717 C 159.300 133.002,159.148 133.220,158.145 133.367 C 157.624 133.443,157.392 133.863,157.331 134.837 C 157.285 135.587,157.205 136.917,157.154 137.792 C 157.103 138.668,156.987 139.162,156.897 138.890 C 156.806 138.618,156.567 138.497,156.366 138.621 C 156.165 138.745,156.000 138.672,156.000 138.457 C 156.000 138.242,156.225 137.976,156.500 137.865 C 156.877 137.713,156.880 137.655,156.514 137.632 C 155.789 137.584,155.076 139.083,155.703 139.337 C 156.041 139.474,156.066 139.645,155.781 139.870 C 155.550 140.051,155.323 140.780,155.275 141.488 C 155.167 143.110,154.537 144.800,154.042 144.800 C 153.834 144.800,153.554 145.300,153.420 145.910 C 153.286 146.521,152.776 147.196,152.288 147.410 C 151.609 147.708,151.380 148.177,151.317 149.400 C 151.135 152.888,151.078 153.381,150.908 152.898 C 150.811 152.621,150.567 152.497,150.366 152.621 C 150.165 152.745,150.000 152.672,150.000 152.457 C 150.000 152.242,150.225 151.976,150.500 151.865 C 150.877 151.713,150.880 151.655,150.514 151.632 C 150.247 151.614,149.835 151.960,149.600 152.400 C 149.275 153.007,149.296 153.201,149.686 153.206 C 150.081 153.211,150.074 153.292,149.655 153.558 C 149.194 153.849,149.194 153.937,149.655 154.120 C 150.042 154.274,150.055 154.346,149.700 154.368 C 149.401 154.387,149.200 154.964,149.200 155.800 C 149.200 156.570,149.020 157.222,148.800 157.250 C 148.580 157.278,148.175 157.322,147.900 157.350 C 147.625 157.378,147.374 157.940,147.343 158.600 C 147.311 159.260,147.266 160.199,147.243 160.687 C 147.215 161.255,147.007 161.501,146.664 161.369 C 145.855 161.059,145.203 162.106,145.256 163.636 C 145.373 167.070,145.254 167.535,144.281 167.429 C 143.505 167.343,143.355 167.521,143.323 168.564 C 143.236 171.410,143.198 171.574,142.664 171.369 C 141.877 171.067,141.285 172.006,141.256 173.600 C 141.210 176.213,141.085 177.402,140.908 176.898 C 140.811 176.621,140.567 176.497,140.366 176.621 C 140.165 176.745,140.000 176.672,140.000 176.457 C 140.000 176.242,140.225 175.976,140.500 175.865 C 140.877 175.713,140.880 175.655,140.514 175.632 C 140.247 175.614,139.835 175.960,139.600 176.400 C 139.275 177.007,139.296 177.201,139.686 177.206 C 140.081 177.211,140.074 177.292,139.655 177.558 C 139.194 177.849,139.194 177.937,139.655 178.120 C 140.042 178.274,140.055 178.346,139.700 178.368 C 139.401 178.387,139.200 178.964,139.200 179.800 C 139.200 180.570,139.020 181.222,138.800 181.250 C 138.580 181.278,138.175 181.322,137.900 181.350 C 137.625 181.378,137.374 181.940,137.343 182.600 C 137.311 183.260,137.266 184.216,137.243 184.724 C 137.218 185.256,137.023 185.538,136.782 185.389 C 135.925 184.859,135.282 186.043,135.256 188.200 C 135.223 191.030,133.730 190.860,157.396 190.718 L 176.992 190.600 177.196 189.600 C 177.308 189.050,177.670 188.600,178.000 188.600 C 178.330 188.600,178.605 188.330,178.611 188.000 C 178.616 187.670,178.752 187.191,178.912 186.936 C 179.072 186.681,179.100 186.205,178.974 185.878 C 178.844 185.538,179.092 185.041,179.554 184.717 C 180.653 183.947,181.352 182.065,180.789 181.387 C 180.512 181.053,180.501 180.785,180.756 180.627 C 180.973 180.493,181.082 180.027,180.998 179.592 C 180.882 178.986,181.065 178.800,181.776 178.800 C 182.826 178.800,183.506 177.242,182.685 176.720 C 182.388 176.532,182.367 176.410,182.632 176.406 C 182.869 176.403,183.049 175.998,183.032 175.507 C 183.009 174.873,183.232 174.613,183.800 174.607 C 184.446 174.601,184.586 174.355,184.527 173.329 C 184.478 172.456,184.769 171.718,185.457 170.976 C 186.695 169.641,187.385 168.000,186.710 168.000 C 186.357 168.000,186.354 167.886,186.698 167.542 C 186.953 167.287,187.055 166.577,186.928 165.942 C 186.707 164.835,187.135 164.520,188.530 164.763 C 188.711 164.794,188.745 164.635,188.606 164.410 C 188.467 164.184,188.567 164.000,188.829 164.000 C 189.154 164.000,189.237 163.491,189.091 162.400 C 188.892 160.917,188.947 160.800,189.838 160.800 C 190.772 160.800,191.015 160.327,190.868 158.800 C 190.744 157.512,191.210 156.489,191.897 156.544 C 192.283 156.575,192.605 156.330,192.611 156.000 C 192.616 155.670,192.752 155.191,192.912 154.936 C 193.072 154.681,193.100 154.205,192.974 153.878 C 192.844 153.538,193.092 153.041,193.554 152.717 C 194.266 152.218,195.222 150.438,195.188 149.674 C 195.172 149.325,194.495 150.467,194.402 151.000 C 194.180 152.266,192.817 152.839,192.908 151.628 C 192.940 151.203,193.096 150.936,193.256 151.034 C 193.640 151.272,194.823 149.562,194.564 149.142 C 194.453 148.962,212.551 148.810,234.781 148.804 L 275.200 148.793 275.200 149.916 C 275.200 150.534,275.425 151.282,275.700 151.579 C 276.045 151.951,276.053 152.035,275.724 151.850 C 275.415 151.677,275.271 151.882,275.313 152.435 C 275.349 152.916,275.773 153.438,276.288 153.634 C 277.188 153.976,277.438 154.879,277.247 157.100 C 277.188 157.787,277.387 158.007,278.085 158.028 C 278.952 158.055,278.958 158.074,278.200 158.400 C 277.437 158.728,277.441 158.745,278.300 158.772 C 279.203 158.800,279.368 159.220,279.216 161.100 C 279.174 161.614,279.370 162.003,279.671 162.006 C 280.062 162.011,280.043 162.114,279.600 162.400 C 279.132 162.702,279.243 162.789,280.100 162.794 C 281.269 162.800,281.398 163.256,281.210 166.700 C 281.149 167.808,281.276 168.004,282.069 168.028 C 282.946 168.055,282.954 168.076,282.200 168.400 L 281.400 168.744 282.200 168.775 C 283.146 168.812,284.100 170.540,283.504 171.136 C 282.960 171.680,283.485 172.400,284.424 172.400 C 285.230 172.400,285.344 172.944,285.283 176.500 C 285.260 177.774,285.388 178.004,286.128 178.028 C 286.970 178.055,286.973 178.068,286.200 178.400 C 285.437 178.728,285.441 178.745,286.300 178.772 C 287.079 178.796,287.200 179.016,287.200 180.400 C 287.200 181.646,287.355 182.006,287.900 182.028 C 288.499 182.052,288.484 182.106,287.800 182.400 C 287.091 182.705,287.125 182.747,288.100 182.772 C 289.119 182.798,289.643 184.189,289.100 185.428 C 289.045 185.554,289.352 185.853,289.782 186.094 C 290.559 186.529,290.559 186.534,289.782 186.822 C 289.069 187.086,289.097 187.150,290.100 187.546 C 291.146 187.959,291.384 188.505,291.219 190.109 C 291.150 190.782,292.285 190.813,313.073 190.709 L 335.000 190.600 335.000 188.600 C 335.000 187.500,334.841 186.690,334.646 186.800 C 334.451 186.910,334.138 186.583,333.949 186.074 C 333.761 185.565,333.442 185.250,333.241 185.374 C 333.031 185.504,332.967 184.920,333.091 184.000 C 333.241 182.878,333.157 182.400,332.809 182.400 C 332.469 182.400,332.399 182.058,332.587 181.311 C 332.850 180.261,332.833 180.246,332.098 180.912 C 331.344 181.594,330.794 181.475,330.806 180.633 C 330.809 180.395,330.987 180.470,331.200 180.800 C 331.514 181.285,331.589 181.228,331.594 180.500 C 331.597 180.005,331.431 179.600,331.224 179.600 C 331.018 179.600,330.868 179.105,330.892 178.500 C 330.982 176.215,330.786 175.301,330.400 176.200 C 330.072 176.963,330.055 176.959,330.028 176.100 C 330.012 175.574,329.748 175.200,329.392 175.200 C 328.944 175.200,328.851 174.938,329.036 174.200 C 329.383 172.816,328.878 170.832,328.379 171.621 C 328.126 172.020,328.010 172.044,328.006 171.700 C 328.003 171.425,327.760 171.200,327.467 171.200 C 327.098 171.200,326.931 170.613,326.926 169.300 C 326.912 165.913,326.802 165.264,326.400 166.200 C 326.067 166.975,326.055 166.973,326.028 166.133 C 326.013 165.657,325.775 165.192,325.500 165.100 C 325.225 165.008,324.978 164.363,324.950 163.667 C 324.850 161.141,324.782 160.910,324.400 161.800 C 324.106 162.484,324.052 162.499,324.028 161.900 C 324.013 161.515,323.762 161.200,323.471 161.200 C 323.106 161.200,322.970 160.702,323.031 159.588 C 323.139 157.603,322.835 156.331,322.327 156.645 C 322.117 156.775,322.046 157.142,322.168 157.461 C 322.293 157.785,322.216 157.934,321.995 157.797 C 321.778 157.663,321.597 157.068,321.594 156.476 C 321.589 155.654,321.500 155.539,321.214 155.991 C 320.956 156.400,320.865 156.031,320.920 154.791 C 320.964 153.806,320.841 153.000,320.646 153.000 C 320.451 153.000,320.138 152.583,319.949 152.074 C 319.761 151.565,319.442 151.250,319.241 151.374 C 319.031 151.504,318.967 150.920,319.091 150.000 C 319.241 148.878,319.157 148.400,318.809 148.400 C 318.469 148.400,318.399 148.058,318.587 147.311 C 318.850 146.261,318.833 146.246,318.098 146.912 C 317.344 147.594,316.794 147.475,316.806 146.633 C 316.809 146.395,316.987 146.470,317.200 146.800 C 317.514 147.285,317.589 147.228,317.594 146.500 C 317.597 146.005,317.431 145.600,317.224 145.600 C 317.018 145.600,316.868 145.105,316.892 144.500 C 316.982 142.215,316.786 141.301,316.400 142.200 C 316.072 142.963,316.055 142.959,316.028 142.100 C 316.012 141.574,315.748 141.200,315.392 141.200 C 314.944 141.200,314.851 140.938,315.036 140.200 C 315.383 138.816,314.878 136.832,314.379 137.621 C 314.126 138.020,314.010 138.044,314.006 137.700 C 314.003 137.425,313.760 137.200,313.467 137.200 C 313.098 137.200,312.931 136.613,312.926 135.300 C 312.912 131.913,312.802 131.264,312.400 132.200 C 312.067 132.975,312.055 132.973,312.028 132.133 C 312.013 131.657,311.775 131.192,311.500 131.100 C 311.225 131.008,310.978 130.363,310.950 129.667 C 310.850 127.141,310.782 126.910,310.400 127.800 C 310.106 128.484,310.052 128.499,310.028 127.900 C 310.013 127.515,309.762 127.200,309.471 127.200 C 309.106 127.200,308.970 126.702,309.031 125.588 C 309.139 123.603,308.835 122.331,308.327 122.645 C 308.117 122.775,308.046 123.142,308.168 123.461 C 308.293 123.785,308.216 123.934,307.995 123.797 C 307.778 123.663,307.597 123.068,307.594 122.476 C 307.589 121.654,307.500 121.539,307.214 121.991 C 306.958 122.395,306.866 121.954,306.920 120.591 C 306.977 119.179,306.855 118.629,306.500 118.700 C 306.225 118.755,306.000 118.539,306.000 118.220 C 306.000 117.901,305.714 117.480,305.366 117.285 C 304.919 117.035,304.712 116.269,304.666 114.694 C 304.607 112.683,304.536 112.516,303.968 113.030 C 303.328 113.609,302.795 113.427,302.806 112.633 C 302.809 112.395,302.987 112.470,303.200 112.800 C 303.514 113.285,303.589 113.228,303.594 112.500 C 303.597 112.005,303.431 111.600,303.224 111.600 C 303.018 111.600,302.868 111.105,302.892 110.500 C 302.982 108.215,302.786 107.301,302.400 108.200 C 302.072 108.963,302.055 108.959,302.028 108.100 C 302.012 107.574,301.748 107.200,301.392 107.200 C 300.944 107.200,300.851 106.938,301.036 106.200 C 301.383 104.816,300.878 102.832,300.379 103.621 C 300.126 104.020,300.010 104.044,300.006 103.700 C 300.003 103.425,299.760 103.200,299.467 103.200 C 299.098 103.200,298.931 102.613,298.926 101.300 C 298.912 97.913,298.802 97.264,298.400 98.200 C 298.067 98.975,298.055 98.973,298.028 98.133 C 298.013 97.657,297.775 97.192,297.500 97.100 C 297.225 97.008,296.978 96.363,296.950 95.667 C 296.850 93.141,296.782 92.910,296.400 93.800 C 296.106 94.484,296.052 94.499,296.028 93.900 C 296.013 93.515,295.762 93.200,295.471 93.200 C 295.106 93.200,294.970 92.702,295.031 91.588 C 295.139 89.603,294.835 88.331,294.327 88.645 C 294.117 88.775,294.046 89.142,294.168 89.461 C 294.293 89.785,294.216 89.934,293.995 89.797 C 293.778 89.663,293.597 89.068,293.594 88.476 C 293.589 87.654,293.500 87.539,293.214 87.991 C 292.956 88.400,292.865 88.031,292.920 86.791 C 292.964 85.806,292.841 85.000,292.646 85.000 C 292.451 85.000,292.138 84.583,291.949 84.074 C 291.761 83.565,291.442 83.250,291.241 83.374 C 291.031 83.504,290.967 82.920,291.091 82.000 C 291.241 80.878,291.157 80.400,290.809 80.400 C 290.469 80.400,290.399 80.058,290.587 79.311 C 290.850 78.261,290.833 78.246,290.098 78.912 C 289.344 79.594,288.794 79.475,288.806 78.633 C 288.809 78.395,288.987 78.470,289.200 78.800 C 289.514 79.285,289.589 79.228,289.594 78.500 C 289.597 78.005,289.431 77.600,289.224 77.600 C 289.018 77.600,288.868 77.105,288.892 76.500 C 288.982 74.215,288.786 73.301,288.400 74.200 C 288.072 74.963,288.055 74.959,288.028 74.100 C 288.012 73.574,287.748 73.200,287.392 73.200 C 286.944 73.200,286.851 72.938,287.036 72.200 C 287.383 70.816,286.878 68.832,286.379 69.621 C 286.126 70.020,286.010 70.044,286.006 69.700 C 286.003 69.425,285.760 69.200,285.467 69.200 C 285.098 69.200,284.931 68.613,284.926 67.300 C 284.912 63.913,284.802 63.264,284.400 64.200 C 284.067 64.975,284.055 64.973,284.028 64.133 C 284.013 63.657,283.775 63.192,283.500 63.100 C 283.225 63.008,282.978 62.363,282.950 61.667 C 282.850 59.141,282.782 58.910,282.400 59.800 C 282.106 60.484,282.052 60.499,282.028 59.900 C 282.013 59.515,281.762 59.200,281.471 59.200 C 281.106 59.200,280.970 58.702,281.031 57.588 C 281.139 55.603,280.835 54.331,280.327 54.645 C 280.117 54.775,280.046 55.142,280.168 55.461 C 280.293 55.785,280.216 55.934,279.995 55.797 C 279.778 55.663,279.597 55.068,279.594 54.476 C 279.589 53.654,279.500 53.539,279.214 53.991 C 278.956 54.400,278.865 54.031,278.920 52.791 C 278.964 51.806,278.829 50.968,278.620 50.930 C 278.411 50.891,278.097 50.474,277.923 50.004 C 277.749 49.534,277.442 49.250,277.241 49.374 C 277.031 49.504,276.967 48.920,277.091 48.000 C 277.241 46.878,277.157 46.400,276.809 46.400 C 276.469 46.400,276.399 46.058,276.587 45.311 C 276.850 44.261,276.833 44.246,276.098 44.912 C 275.344 45.594,274.794 45.475,274.806 44.633 C 274.809 44.395,274.987 44.470,275.200 44.800 C 275.514 45.285,275.589 45.228,275.594 44.500 C 275.597 44.005,275.431 43.600,275.224 43.600 C 275.018 43.600,274.868 43.105,274.892 42.500 C 274.982 40.215,274.786 39.301,274.400 40.200 C 274.072 40.963,274.055 40.959,274.028 40.100 C 274.012 39.574,273.748 39.200,273.392 39.200 C 272.944 39.200,272.851 38.938,273.036 38.200 C 273.383 36.816,272.878 34.832,272.379 35.621 C 272.126 36.020,272.010 36.044,272.006 35.700 C 272.003 35.425,271.760 35.200,271.467 35.200 C 271.098 35.200,270.931 34.613,270.926 33.300 C 270.912 29.913,270.802 29.264,270.400 30.200 C 270.067 30.975,270.055 30.973,270.028 30.133 C 270.013 29.657,269.775 29.192,269.500 29.100 C 269.225 29.008,268.978 28.363,268.950 27.667 C 268.850 25.141,268.782 24.910,268.400 25.800 C 268.106 26.484,268.052 26.499,268.028 25.900 C 268.013 25.515,267.762 25.200,267.471 25.200 C 267.106 25.200,266.970 24.702,267.031 23.588 C 267.139 21.603,266.835 20.331,266.327 20.645 C 266.117 20.775,266.046 21.142,266.168 21.461 C 266.293 21.785,266.216 21.934,265.995 21.797 C 265.778 21.663,265.597 21.068,265.594 20.476 C 265.589 19.654,265.500 19.539,265.214 19.991 C 264.956 20.400,264.865 20.031,264.920 18.791 C 264.964 17.806,264.829 16.968,264.620 16.930 C 264.411 16.891,264.097 16.474,263.923 16.004 C 263.749 15.534,263.442 15.250,263.241 15.374 C 263.031 15.504,262.967 14.920,263.091 14.000 C 263.241 12.878,263.157 12.400,262.809 12.400 C 262.469 12.400,262.399 12.058,262.587 11.311 C 262.850 10.261,262.833 10.246,262.098 10.912 C 261.344 11.594,260.794 11.475,260.806 10.633 C 260.809 10.395,260.987 10.470,261.200 10.800 C 261.514 11.285,261.589 11.228,261.594 10.500 C 261.597 10.005,261.431 9.600,261.224 9.600 C 261.018 9.600,260.868 9.105,260.892 8.500 C 260.982 6.215,260.786 5.301,260.400 6.200 C 260.072 6.963,260.055 6.959,260.028 6.100 C 260.012 5.574,259.748 5.200,259.392 5.200 C 258.944 5.200,258.851 4.938,259.036 4.200 C 259.383 2.816,258.878 0.832,258.379 1.621 C 258.126 2.020,258.010 2.044,258.006 1.700 C 258.003 1.425,257.730 1.200,257.400 1.200 C 257.070 1.200,256.800 0.930,256.800 0.600 C 256.800 0.074,254.114 0.000,235.028 0.000 L 213.255 0.000 213.246 1.500 M237.729 48.006 C 238.004 48.010,237.950 48.174,237.600 48.400 C 237.132 48.702,237.243 48.789,238.100 48.794 C 239.187 48.800,239.200 48.832,239.200 51.400 C 239.200 53.599,239.308 54.004,239.900 54.028 C 240.499 54.052,240.484 54.106,239.800 54.400 C 239.091 54.705,239.125 54.747,240.100 54.772 C 241.268 54.802,241.398 55.263,241.210 58.700 C 241.149 59.808,241.276 60.004,242.069 60.028 C 242.946 60.055,242.954 60.076,242.200 60.400 C 241.437 60.728,241.441 60.745,242.300 60.772 C 242.906 60.791,243.216 61.061,243.250 61.600 C 243.278 62.040,243.316 62.715,243.336 63.100 C 243.356 63.485,243.641 63.965,243.968 64.166 C 244.472 64.475,244.443 64.577,243.782 64.822 C 243.069 65.086,243.097 65.150,244.100 65.546 C 245.200 65.980,245.413 66.659,245.216 69.100 C 245.174 69.614,245.370 70.003,245.671 70.006 C 246.062 70.011,246.043 70.114,245.600 70.400 C 245.132 70.702,245.243 70.789,246.100 70.794 C 247.187 70.800,247.200 70.832,247.200 73.400 C 247.200 75.599,247.308 76.004,247.900 76.028 C 248.499 76.052,248.484 76.106,247.800 76.400 C 247.091 76.705,247.125 76.747,248.100 76.772 C 249.268 76.802,249.398 77.263,249.210 80.700 C 249.149 81.808,249.276 82.004,250.069 82.028 C 250.946 82.055,250.954 82.076,250.200 82.400 C 249.437 82.728,249.441 82.745,250.300 82.772 C 250.906 82.791,251.216 83.061,251.250 83.600 C 251.278 84.040,251.316 84.715,251.336 85.100 C 251.356 85.485,251.641 85.965,251.968 86.166 C 252.472 86.475,252.443 86.577,251.782 86.822 C 251.069 87.086,251.097 87.150,252.100 87.546 C 253.200 87.980,253.413 88.659,253.216 91.100 C 253.174 91.614,253.370 92.003,253.671 92.006 C 254.062 92.011,254.043 92.114,253.600 92.400 C 253.132 92.702,253.243 92.789,254.100 92.794 C 255.187 92.800,255.200 92.832,255.200 95.400 C 255.200 97.599,255.308 98.004,255.900 98.028 C 256.499 98.052,256.484 98.106,255.800 98.400 C 255.091 98.705,255.125 98.747,256.100 98.772 C 257.268 98.802,257.398 99.263,257.210 102.700 C 257.149 103.808,257.276 104.004,258.069 104.028 C 258.946 104.055,258.954 104.076,258.200 104.400 C 257.421 104.735,257.422 104.744,258.253 104.772 C 259.100 104.800,259.652 106.043,259.295 107.115 C 259.098 107.705,213.389 107.830,213.025 107.241 C 212.579 106.519,213.265 104.501,213.940 104.551 C 214.309 104.578,214.602 104.304,214.605 103.928 C 214.608 103.559,214.729 103.138,214.875 102.992 C 215.020 102.847,215.059 101.844,214.960 100.764 C 214.790 98.884,214.825 98.800,215.791 98.800 C 216.467 98.800,216.816 98.569,216.847 98.100 C 216.873 97.715,216.936 96.770,216.986 96.000 C 217.037 95.230,217.105 94.465,217.139 94.300 C 217.172 94.135,217.218 93.865,217.239 93.700 C 217.354 92.825,218.082 92.057,218.605 92.257 C 219.092 92.444,219.165 92.153,219.012 90.642 C 218.828 88.826,219.013 88.577,220.433 88.730 C 220.562 88.744,220.689 88.541,220.717 88.278 C 220.744 88.015,220.929 87.040,221.128 86.111 C 221.326 85.182,221.388 84.322,221.266 84.199 C 220.896 83.830,220.845 82.781,221.208 83.005 C 221.393 83.120,221.828 82.810,222.173 82.318 C 222.518 81.825,222.800 81.606,222.800 81.831 C 222.800 82.056,222.584 82.456,222.320 82.720 C 222.056 82.984,221.988 83.200,222.169 83.200 C 222.350 83.200,222.274 83.470,222.000 83.800 C 221.708 84.152,221.671 84.400,221.912 84.400 C 222.574 84.400,223.272 81.969,222.780 81.376 C 222.520 81.062,222.506 80.782,222.743 80.635 C 222.953 80.505,223.031 80.039,222.916 79.600 C 222.725 78.869,223.198 78.597,224.433 78.730 C 224.725 78.762,224.791 78.399,225.057 75.300 C 225.254 72.996,225.494 72.583,226.530 72.763 C 226.711 72.794,226.745 72.635,226.606 72.410 C 226.467 72.184,226.559 72.000,226.811 72.000 C 227.104 72.000,227.220 71.389,227.134 70.304 C 227.018 68.830,227.105 68.607,227.800 68.604 C 228.279 68.601,228.602 68.330,228.605 67.928 C 228.608 67.559,228.724 67.142,228.864 67.003 C 229.003 66.864,229.026 66.073,228.915 65.246 C 228.703 63.658,229.636 62.128,230.494 62.658 C 230.749 62.815,230.807 62.736,230.638 62.462 C 230.481 62.208,230.543 62.000,230.776 62.000 C 231.010 62.000,231.200 61.213,231.200 60.244 C 231.200 58.818,231.331 58.499,231.900 58.544 C 232.285 58.575,232.605 58.330,232.611 58.000 C 232.616 57.670,232.733 57.220,232.869 57.000 C 233.005 56.780,233.047 55.799,232.963 54.821 C 232.791 52.832,234.154 50.646,234.911 51.696 C 235.166 52.049,235.207 51.989,235.049 51.496 C 234.665 50.303,235.211 48.497,235.940 48.551 C 236.303 48.578,236.624 48.330,236.654 48.000 C 236.759 46.834,236.895 46.608,237.076 47.300 C 237.176 47.685,237.470 48.003,237.729 48.006 M217.950 93.000 C 217.923 93.110,217.875 93.335,217.844 93.500 C 217.813 93.665,217.645 94.025,217.470 94.300 C 217.296 94.575,217.241 94.800,217.348 94.800 C 217.691 94.800,218.800 93.556,218.800 93.171 C 218.800 92.791,218.040 92.638,217.950 93.000 M186.198 169.265 C 186.320 169.386,186.145 169.714,185.810 169.992 C 185.474 170.270,185.186 170.431,185.169 170.349 C 184.916 169.117,184.958 168.894,185.430 168.963 C 185.731 169.007,186.076 169.143,186.198 169.265 M180.408 182.590 C 180.130 182.926,180.036 183.200,180.200 183.200 C 180.364 183.200,180.274 183.470,180.000 183.800 C 179.314 184.626,178.838 184.551,178.908 183.628 C 178.940 183.203,179.103 182.940,179.270 183.043 C 179.437 183.147,179.798 182.872,180.072 182.434 C 180.346 181.995,180.647 181.714,180.742 181.809 C 180.837 181.903,180.686 182.255,180.408 182.590 " stroke="none" fill="#cc141c" fill-rule="evenodd"></path><path id="path1" d="M0.000 3.400 C 0.000 6.156,0.114 6.800,0.600 6.800 C 0.973 6.800,1.200 7.178,1.200 7.800 C 1.200 8.594,1.401 8.800,2.178 8.800 C 3.061 8.800,3.168 8.985,3.278 10.700 C 3.382 12.321,3.532 12.619,4.300 12.728 C 4.951 12.820,5.200 13.124,5.200 13.828 C 5.200 14.592,5.409 14.800,6.178 14.800 C 7.061 14.800,7.168 14.985,7.278 16.700 C 7.382 18.321,7.532 18.619,8.300 18.728 C 8.951 18.820,9.200 19.124,9.200 19.828 C 9.200 20.592,9.409 20.800,10.178 20.800 C 11.061 20.800,11.168 20.985,11.278 22.700 C 11.382 24.321,11.532 24.619,12.300 24.728 C 12.951 24.820,13.200 25.124,13.200 25.828 C 13.200 26.598,13.408 26.800,14.200 26.800 C 15.133 26.800,15.200 26.933,15.200 28.800 C 15.200 30.667,15.267 30.800,16.200 30.800 C 17.000 30.800,17.200 31.000,17.200 31.800 C 17.200 32.600,17.400 32.800,18.200 32.800 C 19.133 32.800,19.200 32.933,19.200 34.800 C 19.200 36.667,19.267 36.800,20.200 36.800 C 21.000 36.800,21.200 37.000,21.200 37.800 C 21.200 38.600,21.400 38.800,22.200 38.800 C 23.133 38.800,23.200 38.933,23.200 40.800 C 23.200 42.667,23.267 42.800,24.200 42.800 C 25.000 42.800,25.200 43.000,25.200 43.800 C 25.200 44.600,25.400 44.800,26.200 44.800 C 27.133 44.800,27.200 44.933,27.200 46.800 C 27.200 48.655,27.271 48.800,28.178 48.800 C 29.061 48.800,29.168 48.985,29.278 50.700 C 29.382 52.321,29.532 52.619,30.300 52.728 C 30.951 52.820,31.200 53.124,31.200 53.828 C 31.200 54.592,31.409 54.800,32.178 54.800 C 33.061 54.800,33.168 54.985,33.278 56.700 C 33.382 58.321,33.532 58.619,34.300 58.728 C 34.951 58.820,35.200 59.124,35.200 59.828 C 35.200 60.592,35.409 60.800,36.178 60.800 C 37.061 60.800,37.168 60.985,37.278 62.700 C 37.382 64.321,37.532 64.619,38.300 64.728 C 38.951 64.820,39.200 65.124,39.200 65.828 C 39.200 66.592,39.409 66.800,40.178 66.800 C 41.061 66.800,41.168 66.985,41.278 68.700 C 41.382 70.321,41.532 70.619,42.300 70.728 C 42.951 70.820,43.200 71.124,43.200 71.828 C 43.200 72.598,43.408 72.800,44.200 72.800 C 45.133 72.800,45.200 72.933,45.200 74.800 C 45.200 76.667,45.267 76.800,46.200 76.800 C 47.000 76.800,47.200 77.000,47.200 77.800 C 47.200 78.600,47.400 78.800,48.200 78.800 C 49.133 78.800,49.200 78.933,49.200 80.800 C 49.200 82.667,49.267 82.800,50.200 82.800 C 51.000 82.800,51.200 83.000,51.200 83.800 C 51.200 84.600,51.400 84.800,52.200 84.800 C 53.133 84.800,53.200 84.933,53.200 86.800 C 53.200 88.667,53.267 88.800,54.200 88.800 C 55.000 88.800,55.200 89.000,55.200 89.800 C 55.200 90.600,55.400 90.800,56.200 90.800 C 57.133 90.800,57.200 90.933,57.200 92.800 C 57.200 94.655,57.271 94.800,58.178 94.800 C 59.061 94.800,59.168 94.985,59.278 96.700 C 59.382 98.321,59.532 98.619,60.300 98.728 C 60.951 98.820,61.200 99.124,61.200 99.828 C 61.200 100.592,61.409 100.800,62.178 100.800 C 63.061 100.800,63.168 100.985,63.278 102.700 C 63.382 104.321,63.532 104.619,64.300 104.728 C 64.951 104.820,65.200 105.124,65.200 105.828 C 65.200 106.592,65.409 106.800,66.178 106.800 C 67.061 106.800,67.168 106.985,67.278 108.700 C 67.382 110.321,67.532 110.619,68.300 110.728 C 68.951 110.820,69.200 111.124,69.200 111.828 C 69.200 112.592,69.409 112.800,70.178 112.800 C 71.061 112.800,71.168 112.985,71.278 114.700 C 71.382 116.321,71.532 116.619,72.300 116.728 L 73.200 116.856 73.200 154.828 L 73.200 192.800 98.200 192.800 L 123.200 192.800 123.200 155.800 C 123.200 119.283,123.210 118.800,123.986 118.800 C 124.628 118.800,124.821 118.432,125.038 116.800 C 125.272 115.037,125.415 114.800,126.252 114.800 C 126.997 114.800,127.200 114.586,127.200 113.800 C 127.200 113.073,127.414 112.800,127.986 112.800 C 128.628 112.800,128.821 112.432,129.038 110.800 C 129.272 109.037,129.415 108.800,130.252 108.800 C 130.997 108.800,131.200 108.586,131.200 107.800 C 131.200 107.073,131.414 106.800,131.986 106.800 C 132.628 106.800,132.821 106.432,133.038 104.800 C 133.272 103.037,133.415 102.800,134.252 102.800 C 134.997 102.800,135.200 102.586,135.200 101.800 C 135.200 101.073,135.414 100.800,135.986 100.800 C 136.627 100.800,136.821 100.433,137.035 98.821 C 137.249 97.209,137.455 96.820,138.149 96.721 C 138.860 96.620,139.020 96.287,139.122 94.700 C 139.232 92.985,139.339 92.800,140.222 92.800 C 140.991 92.800,141.200 92.592,141.200 91.828 C 141.200 91.124,141.449 90.820,142.100 90.728 C 142.868 90.619,143.018 90.321,143.122 88.700 C 143.232 86.985,143.339 86.800,144.222 86.800 C 144.999 86.800,145.200 86.594,145.200 85.800 C 145.200 85.086,145.416 84.800,145.957 84.800 C 146.847 84.800,147.200 84.052,147.200 82.167 C 147.200 80.976,147.328 80.800,148.200 80.800 C 149.000 80.800,149.200 80.600,149.200 79.800 C 149.200 79.086,149.416 78.800,149.957 78.800 C 150.847 78.800,151.200 78.052,151.200 76.167 C 151.200 75.067,151.356 74.800,152.000 74.800 C 152.587 74.800,152.800 74.533,152.800 73.800 C 152.800 73.004,153.001 72.800,153.786 72.800 C 154.668 72.800,154.801 72.587,155.038 70.800 C 155.272 69.037,155.415 68.800,156.252 68.800 C 156.997 68.800,157.200 68.586,157.200 67.800 C 157.200 67.073,157.414 66.800,157.986 66.800 C 158.628 66.800,158.821 66.432,159.038 64.800 C 159.272 63.037,159.415 62.800,160.252 62.800 C 160.997 62.800,161.200 62.586,161.200 61.800 C 161.200 61.073,161.414 60.800,161.986 60.800 C 162.628 60.800,162.821 60.432,163.038 58.800 C 163.272 57.037,163.415 56.800,164.252 56.800 C 165.123 56.800,165.200 56.638,165.200 54.800 C 165.200 52.933,165.267 52.800,166.200 52.800 C 166.992 52.800,167.200 52.598,167.200 51.828 C 167.200 51.124,167.449 50.820,168.100 50.728 C 168.868 50.619,169.018 50.321,169.122 48.700 C 169.232 46.985,169.339 46.800,170.222 46.800 C 170.999 46.800,171.200 46.594,171.200 45.800 C 171.200 45.086,171.416 44.800,171.957 44.800 C 172.847 44.800,173.200 44.052,173.200 42.167 C 173.200 40.976,173.328 40.800,174.200 40.800 C 175.000 40.800,175.200 40.600,175.200 39.800 C 175.200 39.086,175.416 38.800,175.957 38.800 C 176.847 38.800,177.200 38.052,177.200 36.167 C 177.200 34.976,177.328 34.800,178.200 34.800 C 179.000 34.800,179.200 34.600,179.200 33.800 C 179.200 33.073,179.414 32.800,179.986 32.800 C 180.628 32.800,180.821 32.432,181.038 30.800 C 181.272 29.037,181.415 28.800,182.252 28.800 C 182.997 28.800,183.200 28.586,183.200 27.800 C 183.200 27.073,183.414 26.800,183.986 26.800 C 184.628 26.800,184.821 26.432,185.038 24.800 C 185.272 23.037,185.415 22.800,186.252 22.800 C 186.997 22.800,187.200 22.586,187.200 21.800 C 187.200 21.073,187.414 20.800,187.986 20.800 C 188.628 20.800,188.821 20.432,189.038 18.800 C 189.272 17.037,189.415 16.800,190.252 16.800 C 190.997 16.800,191.200 16.586,191.200 15.800 C 191.200 15.073,191.414 14.800,191.986 14.800 C 192.627 14.800,192.821 14.433,193.035 12.821 C 193.249 11.209,193.455 10.820,194.149 10.721 C 194.860 10.620,195.020 10.287,195.122 8.700 C 195.232 6.985,195.339 6.800,196.222 6.800 C 196.991 6.800,197.200 6.592,197.200 5.828 C 197.200 5.124,197.449 4.820,198.100 4.728 C 198.897 4.615,199.014 4.337,199.120 2.300 L 199.240 0.000 172.220 0.000 C 148.469 0.000,145.200 0.073,145.200 0.600 C 145.200 0.973,144.822 1.200,144.200 1.200 C 143.400 1.200,143.200 1.400,143.200 2.200 C 143.200 3.000,143.000 3.200,142.200 3.200 C 141.267 3.200,141.200 3.333,141.200 5.200 C 141.200 7.067,141.133 7.200,140.200 7.200 C 139.408 7.200,139.200 7.402,139.200 8.172 C 139.200 8.876,138.951 9.180,138.300 9.272 C 137.532 9.381,137.382 9.679,137.278 11.300 C 137.168 13.015,137.061 13.200,136.178 13.200 C 135.271 13.200,135.200 13.345,135.200 15.200 C 135.200 17.067,135.133 17.200,134.200 17.200 C 133.400 17.200,133.200 17.400,133.200 18.200 C 133.200 19.000,133.000 19.200,132.200 19.200 C 131.267 19.200,131.200 19.333,131.200 21.200 C 131.200 23.067,131.133 23.200,130.200 23.200 C 129.400 23.200,129.200 23.400,129.200 24.200 C 129.200 25.000,129.000 25.200,128.200 25.200 C 127.267 25.200,127.200 25.333,127.200 27.200 C 127.200 29.067,127.133 29.200,126.200 29.200 C 125.408 29.200,125.200 29.402,125.200 30.172 C 125.200 30.876,124.951 31.180,124.300 31.272 C 123.532 31.381,123.382 31.679,123.278 33.300 C 123.168 35.015,123.061 35.200,122.178 35.200 C 121.409 35.200,121.200 35.408,121.200 36.172 C 121.200 36.876,120.951 37.180,120.300 37.272 C 119.532 37.381,119.382 37.679,119.278 39.300 C 119.168 41.015,119.061 41.200,118.178 41.200 C 117.271 41.200,117.200 41.345,117.200 43.200 C 117.200 45.067,117.133 45.200,116.200 45.200 C 115.400 45.200,115.200 45.400,115.200 46.200 C 115.200 47.000,115.000 47.200,114.200 47.200 C 113.267 47.200,113.200 47.333,113.200 49.200 C 113.200 51.067,113.133 51.200,112.200 51.200 C 111.408 51.200,111.200 51.402,111.200 52.172 C 111.200 52.876,110.951 53.180,110.300 53.272 C 109.532 53.381,109.382 53.679,109.278 55.300 C 109.168 57.015,109.061 57.200,108.178 57.200 C 107.409 57.200,107.200 57.408,107.200 58.172 C 107.200 58.876,106.951 59.180,106.300 59.272 C 105.532 59.381,105.382 59.679,105.278 61.300 C 105.168 63.015,105.061 63.200,104.178 63.200 C 103.271 63.200,103.200 63.345,103.200 65.200 C 103.200 67.067,103.133 67.200,102.200 67.200 C 101.400 67.200,101.200 67.400,101.200 68.200 C 101.200 68.991,100.998 69.200,100.233 69.200 C 99.702 69.200,99.176 69.425,99.065 69.700 C 98.904 70.100,98.857 70.100,98.832 69.700 C 98.814 69.425,98.440 69.200,98.000 69.200 C 97.413 69.200,97.200 68.933,97.200 68.200 C 97.200 67.406,96.999 67.200,96.222 67.200 C 95.339 67.200,95.232 67.015,95.122 65.300 C 95.018 63.679,94.868 63.381,94.100 63.272 C 93.456 63.181,93.200 62.875,93.200 62.198 C 93.200 60.762,92.490 59.200,91.838 59.200 C 91.518 59.200,91.198 58.795,91.128 58.300 C 91.046 57.722,90.678 57.354,90.100 57.272 C 89.456 57.181,89.200 56.875,89.200 56.198 C 89.200 54.762,88.490 53.200,87.838 53.200 C 87.518 53.200,87.198 52.795,87.128 52.300 C 87.046 51.722,86.678 51.354,86.100 51.272 C 85.456 51.181,85.200 50.875,85.200 50.198 C 85.200 48.739,84.487 47.200,83.810 47.200 C 83.426 47.200,83.200 46.829,83.200 46.200 C 83.200 45.400,83.000 45.200,82.200 45.200 C 81.328 45.200,81.200 45.024,81.200 43.833 C 81.200 41.948,80.847 41.200,79.957 41.200 C 79.416 41.200,79.200 40.914,79.200 40.200 C 79.200 39.406,78.999 39.200,78.222 39.200 C 77.339 39.200,77.232 39.015,77.122 37.300 C 77.018 35.679,76.868 35.381,76.100 35.272 C 75.456 35.181,75.200 34.875,75.200 34.198 C 75.200 32.762,74.490 31.200,73.838 31.200 C 73.518 31.200,73.198 30.795,73.128 30.300 C 73.046 29.722,72.678 29.354,72.100 29.272 C 71.456 29.181,71.200 28.875,71.200 28.198 C 71.200 26.762,70.490 25.200,69.838 25.200 C 69.518 25.200,69.198 24.795,69.128 24.300 C 69.046 23.722,68.678 23.354,68.100 23.272 C 67.371 23.169,67.200 22.889,67.200 21.805 C 67.200 19.947,66.843 19.200,65.957 19.200 C 65.416 19.200,65.200 18.914,65.200 18.200 C 65.200 17.406,64.999 17.200,64.222 17.200 C 63.339 17.200,63.232 17.015,63.122 15.300 C 63.018 13.679,62.868 13.381,62.100 13.272 C 61.449 13.180,61.200 12.876,61.200 12.172 C 61.200 11.408,60.991 11.200,60.222 11.200 C 59.339 11.200,59.232 11.015,59.122 9.300 C 59.018 7.679,58.868 7.381,58.100 7.272 C 57.456 7.181,57.200 6.875,57.200 6.198 C 57.200 4.762,56.490 3.200,55.838 3.200 C 55.518 3.200,55.198 2.795,55.128 2.300 C 55.046 1.722,54.678 1.354,54.100 1.272 C 53.605 1.202,53.200 0.887,53.200 0.572 C 53.200 0.082,49.403 0.000,26.600 0.000 L 0.000 0.000 0.000 3.400 M291.200 303.997 L 291.200 398.800 345.600 398.800 L 400.000 398.800 400.000 378.000 L 400.000 357.200 368.601 357.200 L 337.202 357.200 337.101 283.300 L 337.000 209.400 314.100 209.297 L 291.200 209.193 291.200 303.997 M71.200 305.000 L 71.200 398.800 92.200 398.800 L 113.200 398.800 113.200 337.800 L 113.200 276.800 114.200 276.800 C 115.133 276.800,115.200 276.933,115.200 278.800 C 115.200 280.667,115.267 280.800,116.200 280.800 C 117.133 280.800,117.200 280.933,117.200 282.800 C 117.200 284.667,117.267 284.800,118.200 284.800 C 119.133 284.800,119.200 284.933,119.200 286.800 C 119.200 288.667,119.267 288.800,120.200 288.800 C 121.133 288.800,121.200 288.933,121.200 290.800 C 121.200 292.667,121.267 292.800,122.200 292.800 C 123.133 292.800,123.200 292.933,123.200 294.800 C 123.200 296.667,123.267 296.800,124.200 296.800 C 125.133 296.800,125.200 296.933,125.200 298.800 C 125.200 300.667,125.267 300.800,126.200 300.800 C 127.133 300.800,127.200 300.933,127.200 302.800 C 127.200 304.667,127.267 304.800,128.200 304.800 C 129.133 304.800,129.200 304.933,129.200 306.800 C 129.200 308.657,129.270 308.800,130.182 308.800 C 131.125 308.800,131.170 308.919,131.282 311.700 C 131.389 314.340,131.479 314.611,132.279 314.725 C 133.021 314.831,133.177 315.144,133.279 316.725 C 133.381 318.307,133.538 318.620,134.279 318.725 C 135.021 318.831,135.177 319.144,135.279 320.725 C 135.381 322.307,135.538 322.620,136.279 322.725 C 137.021 322.831,137.177 323.144,137.279 324.725 C 137.381 326.307,137.538 326.620,138.279 326.725 C 139.021 326.831,139.177 327.144,139.279 328.725 C 139.381 330.307,139.538 330.620,140.279 330.725 C 141.021 330.831,141.177 331.144,141.279 332.725 C 141.382 334.321,141.534 334.619,142.300 334.728 C 143.094 334.841,143.200 335.087,143.200 336.828 C 143.200 338.665,143.269 338.800,144.200 338.800 C 145.133 338.800,145.200 338.933,145.200 340.800 C 145.200 342.667,145.267 342.800,146.200 342.800 C 147.133 342.800,147.200 342.933,147.200 344.800 C 147.200 346.667,147.267 346.800,148.200 346.800 C 149.133 346.800,149.200 346.933,149.200 348.800 C 149.200 350.667,149.267 350.800,150.200 350.800 C 151.133 350.800,151.200 350.933,151.200 352.800 L 151.200 354.800 170.200 354.800 L 189.200 354.800 189.200 353.800 C 189.200 353.000,189.400 352.800,190.200 352.800 C 191.133 352.800,191.200 352.667,191.200 350.800 C 191.200 349.104,191.315 348.800,191.957 348.800 C 192.847 348.800,193.200 348.052,193.200 346.167 C 193.200 345.092,193.362 344.800,193.957 344.800 C 194.847 344.800,195.200 344.052,195.200 342.167 C 195.200 341.092,195.362 340.800,195.957 340.800 C 196.847 340.800,197.200 340.052,197.200 338.167 C 197.200 337.092,197.362 336.800,197.957 336.800 C 198.847 336.800,199.200 336.052,199.200 334.167 C 199.200 333.075,199.358 332.800,199.986 332.800 C 200.628 332.800,200.821 332.432,201.038 330.800 C 201.247 329.222,201.458 328.800,202.038 328.800 C 202.617 328.800,202.828 328.378,203.038 326.800 C 203.247 325.222,203.458 324.800,204.038 324.800 C 204.617 324.800,204.828 324.378,205.038 322.800 C 205.241 321.265,205.465 320.800,206.002 320.800 C 206.790 320.800,207.200 319.347,207.200 316.550 C 207.200 314.950,207.286 314.800,208.200 314.800 C 209.133 314.800,209.200 314.667,209.200 312.800 C 209.200 310.933,209.267 310.800,210.200 310.800 C 211.133 310.800,211.200 310.667,211.200 308.800 C 211.200 306.933,211.267 306.800,212.200 306.800 C 213.133 306.800,213.200 306.667,213.200 304.800 C 213.200 302.933,213.267 302.800,214.200 302.800 C 215.133 302.800,215.200 302.667,215.200 300.800 C 215.200 298.933,215.267 298.800,216.200 298.800 C 217.133 298.800,217.200 298.667,217.200 296.800 C 217.200 294.933,217.267 294.800,218.200 294.800 C 219.133 294.800,219.200 294.667,219.200 292.800 C 219.200 290.933,219.267 290.800,220.200 290.800 C 221.133 290.800,221.200 290.667,221.200 288.800 C 221.200 286.933,221.267 286.800,222.200 286.800 C 223.133 286.800,223.200 286.667,223.200 284.800 C 223.200 282.933,223.267 282.800,224.200 282.800 C 225.133 282.800,225.200 282.667,225.200 280.800 C 225.200 279.096,225.313 278.800,225.967 278.800 C 226.388 278.800,226.824 278.575,226.935 278.300 C 227.046 278.025,227.151 305.025,227.168 338.300 L 227.200 398.800 249.200 398.800 L 271.200 398.800 271.200 305.000 L 271.200 211.200 242.200 211.200 L 213.200 211.200 213.200 213.200 C 213.200 215.067,213.133 215.200,212.200 215.200 C 211.408 215.200,211.200 215.402,211.200 216.172 C 211.200 216.876,210.951 217.180,210.300 217.272 C 209.532 217.381,209.382 217.679,209.278 219.300 C 209.168 221.015,209.061 221.200,208.178 221.200 C 207.271 221.200,207.200 221.345,207.200 223.200 C 207.200 225.067,207.133 225.200,206.200 225.200 C 205.267 225.200,205.200 225.333,205.200 227.200 C 205.200 229.067,205.133 229.200,204.200 229.200 C 203.267 229.200,203.200 229.333,203.200 231.200 C 203.200 233.067,203.133 233.200,202.200 233.200 C 201.408 233.200,201.200 233.402,201.200 234.172 C 201.200 234.876,200.951 235.180,200.300 235.272 C 199.532 235.381,199.382 235.679,199.278 237.300 C 199.168 239.015,199.061 239.200,198.178 239.200 C 197.271 239.200,197.200 239.345,197.200 241.200 C 197.200 243.067,197.133 243.200,196.200 243.200 C 195.267 243.200,195.200 243.333,195.200 245.200 C 195.200 247.067,195.133 247.200,194.200 247.200 C 193.267 247.200,193.200 247.333,193.200 249.200 C 193.200 251.067,193.133 251.200,192.200 251.200 C 191.408 251.200,191.200 251.402,191.200 252.172 C 191.200 252.876,190.951 253.180,190.300 253.272 C 189.532 253.381,189.382 253.679,189.278 255.300 C 189.168 257.015,189.061 257.200,188.178 257.200 C 187.271 257.200,187.200 257.345,187.200 259.200 C 187.200 261.067,187.133 261.200,186.200 261.200 C 185.267 261.200,185.200 261.333,185.200 263.200 C 185.200 265.067,185.133 265.200,184.200 265.200 C 183.408 265.200,183.200 265.402,183.200 266.172 C 183.200 266.876,182.951 267.180,182.300 267.272 C 181.534 267.381,181.382 267.679,181.279 269.275 C 181.177 270.856,181.021 271.169,180.279 271.275 C 179.536 271.381,179.381 271.693,179.278 273.300 C 179.168 275.015,179.061 275.200,178.178 275.200 C 177.271 275.200,177.200 275.345,177.200 277.200 C 177.200 279.067,177.133 279.200,176.200 279.200 C 175.267 279.200,175.200 279.333,175.200 281.200 C 175.200 283.067,175.133 283.200,174.200 283.200 C 173.408 283.200,173.200 283.402,173.200 284.172 C 173.200 284.876,172.951 285.180,172.300 285.272 C 171.556 285.378,171.365 285.712,171.197 287.200 C 171.040 288.594,170.936 288.797,170.735 288.100 C 170.592 287.605,170.188 287.200,169.837 287.200 C 169.424 287.200,169.200 286.848,169.200 286.200 C 169.200 285.406,168.999 285.200,168.222 285.200 C 167.339 285.200,167.232 285.015,167.122 283.300 C 167.018 281.679,166.868 281.381,166.100 281.272 C 165.371 281.169,165.200 280.889,165.200 279.805 C 165.200 277.947,164.843 277.200,163.957 277.200 C 163.422 277.200,163.200 276.915,163.200 276.226 C 163.200 274.742,162.492 273.200,161.810 273.200 C 161.426 273.200,161.200 272.829,161.200 272.200 C 161.200 271.406,160.999 271.200,160.222 271.200 C 159.339 271.200,159.232 271.015,159.122 269.300 C 159.018 267.679,158.868 267.381,158.100 267.272 C 157.371 267.169,157.200 266.889,157.200 265.805 C 157.200 263.947,156.843 263.200,155.957 263.200 C 155.422 263.200,155.200 262.915,155.200 262.226 C 155.200 260.563,154.484 259.200,153.610 259.200 C 153.013 259.200,152.800 258.937,152.800 258.200 C 152.800 257.476,152.585 257.200,152.022 257.200 C 151.377 257.200,151.223 256.874,151.122 255.300 C 151.018 253.679,150.868 253.381,150.100 253.272 C 149.371 253.169,149.200 252.889,149.200 251.805 C 149.200 249.947,148.843 249.200,147.957 249.200 C 147.422 249.200,147.200 248.915,147.200 248.226 C 147.200 246.742,146.492 245.200,145.810 245.200 C 145.426 245.200,145.200 244.829,145.200 244.200 C 145.200 243.406,144.999 243.200,144.222 243.200 C 143.339 243.200,143.232 243.015,143.122 241.300 C 143.018 239.679,142.868 239.381,142.100 239.272 C 141.371 239.169,141.200 238.889,141.200 237.805 C 141.200 235.947,140.843 235.200,139.957 235.200 C 139.422 235.200,139.200 234.915,139.200 234.226 C 139.200 232.742,138.492 231.200,137.810 231.200 C 137.426 231.200,137.200 230.829,137.200 230.200 C 137.200 229.406,136.999 229.200,136.222 229.200 C 135.339 229.200,135.232 229.015,135.122 227.300 C 135.019 225.693,134.864 225.381,134.121 225.275 C 133.379 225.169,133.223 224.856,133.121 223.275 C 133.018 221.679,132.866 221.381,132.100 221.272 C 131.456 221.181,131.200 220.875,131.200 220.198 C 131.200 218.739,130.487 217.200,129.810 217.200 C 129.426 217.200,129.200 216.829,129.200 216.200 C 129.200 215.400,129.000 215.200,128.200 215.200 C 127.267 215.200,127.200 215.067,127.200 213.200 L 127.200 211.200 99.200 211.200 L 71.200 211.200 71.200 305.000 " stroke="none" fill="#040404" fill-rule="evenodd"></path><path id="path2" d="M212.500 3.798 C 211.917 4.461,211.837 4.948,212.366 4.621 C 212.567 4.497,212.811 4.621,212.908 4.898 C 213.005 5.174,213.088 4.905,213.092 4.300 C 213.096 3.695,213.078 3.207,213.050 3.215 C 213.023 3.224,212.775 3.486,212.500 3.798 M209.300 10.216 C 209.300 11.029,209.414 11.114,210.050 10.773 C 210.463 10.552,210.800 10.146,210.800 9.871 C 210.800 9.596,210.463 9.345,210.050 9.314 C 209.510 9.273,209.300 9.525,209.300 10.216 M261.594 10.300 C 261.589 11.157,261.502 11.268,261.200 10.800 C 260.967 10.439,260.810 10.390,260.806 10.676 C 260.795 11.576,261.546 11.613,262.156 10.742 C 262.766 9.871,262.688 9.200,261.976 9.200 C 261.769 9.200,261.597 9.695,261.594 10.300 M262.400 11.800 C 262.400 12.130,262.580 12.400,262.800 12.400 C 263.020 12.400,263.200 12.130,263.200 11.800 C 263.200 11.470,263.020 11.200,262.800 11.200 C 262.580 11.200,262.400 11.470,262.400 11.800 M263.877 15.972 C 263.995 16.424,264.308 16.657,264.629 16.533 C 265.094 16.355,265.092 16.235,264.618 15.761 C 263.853 14.995,263.637 15.057,263.877 15.972 M265.600 20.343 C 265.600 21.595,266.209 22.460,266.253 21.271 C 266.267 20.902,266.351 20.353,266.439 20.050 C 266.528 19.748,266.375 19.418,266.100 19.317 C 265.770 19.196,265.600 19.544,265.600 20.343 M202.500 27.798 C 201.917 28.461,201.837 28.948,202.366 28.621 C 202.567 28.497,202.811 28.621,202.908 28.898 C 203.005 29.174,203.088 28.905,203.092 28.300 C 203.096 27.695,203.078 27.207,203.050 27.215 C 203.023 27.224,202.775 27.486,202.500 27.798 M199.300 34.730 C 199.285 35.538,199.372 35.930,199.495 35.600 C 199.617 35.270,199.961 34.856,200.259 34.680 C 201.042 34.217,200.923 33.380,200.064 33.315 C 199.477 33.271,199.322 33.557,199.300 34.730 M196.500 41.798 C 195.917 42.461,195.837 42.948,196.366 42.621 C 196.567 42.497,196.811 42.621,196.908 42.898 C 197.005 43.174,197.088 42.905,197.092 42.300 C 197.096 41.695,197.078 41.207,197.050 41.215 C 197.023 41.224,196.775 41.486,196.500 41.798 M275.594 44.300 C 275.589 45.157,275.502 45.268,275.200 44.800 C 274.967 44.439,274.810 44.390,274.806 44.676 C 274.795 45.576,275.546 45.613,276.156 44.742 C 276.766 43.871,276.688 43.200,275.976 43.200 C 275.769 43.200,275.597 43.695,275.594 44.300 M276.400 45.800 C 276.400 46.130,276.580 46.400,276.800 46.400 C 277.020 46.400,277.200 46.130,277.200 45.800 C 277.200 45.470,277.020 45.200,276.800 45.200 C 276.580 45.200,276.400 45.470,276.400 45.800 M277.877 49.972 C 277.995 50.424,278.308 50.657,278.629 50.533 C 279.094 50.355,279.092 50.235,278.618 49.761 C 277.853 48.995,277.637 49.057,277.877 49.972 M234.800 50.530 C 234.800 50.822,234.350 51.483,233.800 52.000 C 233.250 52.517,232.825 53.313,232.854 53.770 C 232.905 54.535,232.922 54.530,233.082 53.700 C 233.199 53.096,233.542 52.799,234.128 52.798 C 234.844 52.797,235.013 52.546,235.072 51.398 C 235.111 50.629,235.066 50.000,234.972 50.000 C 234.877 50.000,234.800 50.239,234.800 50.530 M279.600 54.343 C 279.600 55.595,280.209 56.460,280.253 55.271 C 280.267 54.902,280.351 54.352,280.439 54.050 C 280.528 53.748,280.375 53.417,280.100 53.317 C 279.770 53.196,279.600 53.544,279.600 54.343 M228.893 64.800 C 228.893 65.570,228.975 65.885,229.076 65.500 C 229.176 65.115,229.176 64.485,229.076 64.100 C 228.975 63.715,228.893 64.030,228.893 64.800 M186.500 65.798 C 185.917 66.461,185.837 66.948,186.366 66.621 C 186.567 66.497,186.811 66.621,186.908 66.898 C 187.005 67.174,187.088 66.905,187.092 66.300 C 187.096 65.695,187.078 65.207,187.050 65.215 C 187.023 65.224,186.775 65.486,186.500 65.798 M243.278 66.035 C 243.370 66.311,243.846 66.567,244.334 66.603 C 245.494 66.688,245.214 65.840,244.024 65.666 C 243.429 65.579,243.169 65.707,243.278 66.035 M289.594 78.300 C 289.589 79.157,289.502 79.268,289.200 78.800 C 288.967 78.439,288.810 78.390,288.806 78.676 C 288.795 79.576,289.546 79.613,290.156 78.742 C 290.766 77.871,290.688 77.200,289.976 77.200 C 289.769 77.200,289.597 77.695,289.594 78.300 M290.400 79.800 C 290.400 80.130,290.580 80.400,290.800 80.400 C 291.020 80.400,291.200 80.130,291.200 79.800 C 291.200 79.470,291.020 79.200,290.800 79.200 C 290.580 79.200,290.400 79.470,290.400 79.800 M222.769 80.500 C 222.753 80.555,222.677 80.924,222.602 81.320 C 222.422 82.263,221.595 83.244,221.190 82.994 C 220.702 82.692,220.983 83.943,221.524 84.484 C 222.226 85.186,223.110 84.256,222.473 83.487 C 222.170 83.123,222.152 82.808,222.419 82.541 C 222.836 82.124,223.285 80.400,222.977 80.400 C 222.880 80.400,222.786 80.445,222.769 80.500 M222.300 84.233 C 221.919 84.615,221.155 83.997,221.439 83.538 C 221.607 83.264,221.831 83.271,222.118 83.558 C 222.354 83.794,222.436 84.098,222.300 84.233 M291.877 83.972 C 291.995 84.424,292.308 84.657,292.629 84.533 C 293.094 84.355,293.092 84.235,292.618 83.761 C 291.853 82.995,291.637 83.057,291.877 83.972 M177.306 86.056 C 177.245 86.858,178.217 86.653,178.546 85.796 C 178.676 85.458,178.491 85.273,178.056 85.306 C 177.672 85.335,177.335 85.672,177.306 86.056 M293.600 88.343 C 293.600 89.595,294.209 90.460,294.253 89.271 C 294.267 88.902,294.351 88.353,294.439 88.050 C 294.528 87.748,294.375 87.418,294.100 87.317 C 293.770 87.196,293.600 87.544,293.600 88.343 M251.278 88.035 C 251.370 88.311,251.846 88.567,252.334 88.603 C 253.494 88.688,253.214 87.840,252.024 87.666 C 251.429 87.579,251.169 87.707,251.278 88.035 M176.500 89.798 C 175.917 90.461,175.837 90.948,176.366 90.621 C 176.567 90.497,176.811 90.621,176.908 90.898 C 177.005 91.174,177.088 90.905,177.092 90.300 C 177.096 89.695,177.078 89.207,177.050 89.215 C 177.023 89.224,176.775 89.486,176.500 89.798 M217.592 92.815 C 217.361 93.247,217.290 93.600,217.435 93.600 C 217.580 93.600,217.505 93.832,217.269 94.116 C 216.946 94.507,217.030 94.647,217.613 94.691 C 218.598 94.765,219.001 94.124,218.413 93.416 C 218.058 92.988,218.117 92.835,218.679 92.722 C 219.353 92.586,219.354 92.558,218.706 92.303 C 218.237 92.118,217.876 92.284,217.592 92.815 M212.928 106.600 C 213.010 107.390,213.307 107.400,236.105 107.405 L 259.200 107.410 236.229 107.302 C 214.792 107.201,213.244 107.147,213.052 106.497 C 212.893 105.961,212.865 105.984,212.928 106.600 M167.306 110.056 C 167.245 110.858,168.217 110.653,168.546 109.796 C 168.676 109.458,168.491 109.273,168.056 109.306 C 167.672 109.335,167.335 109.672,167.306 110.056 M303.594 112.300 C 303.589 113.157,303.502 113.268,303.200 112.800 C 302.967 112.439,302.810 112.390,302.806 112.676 C 302.795 113.576,303.546 113.613,304.156 112.742 C 304.766 111.871,304.688 111.200,303.976 111.200 C 303.769 111.200,303.597 111.695,303.594 112.300 M166.500 113.798 C 165.917 114.461,165.837 114.948,166.366 114.621 C 166.567 114.497,166.811 114.621,166.908 114.898 C 167.005 115.174,167.088 114.905,167.092 114.300 C 167.096 113.695,167.078 113.207,167.050 113.215 C 167.023 113.224,166.775 113.486,166.500 113.798 M305.877 117.972 C 305.995 118.424,306.308 118.657,306.629 118.533 C 307.094 118.355,307.092 118.235,306.618 117.761 C 305.853 116.995,305.637 117.057,305.877 117.972 M163.300 120.216 C 163.300 121.029,163.414 121.114,164.050 120.773 C 164.463 120.552,164.800 120.146,164.800 119.871 C 164.800 119.596,164.463 119.345,164.050 119.314 C 163.510 119.273,163.300 119.525,163.300 120.216 M307.600 122.343 C 307.600 123.595,308.209 124.460,308.253 123.271 C 308.267 122.902,308.351 122.353,308.439 122.050 C 308.528 121.748,308.375 121.418,308.100 121.317 C 307.770 121.196,307.600 121.544,307.600 122.343 M160.500 127.798 C 159.917 128.461,159.837 128.948,160.366 128.621 C 160.567 128.497,160.811 128.621,160.908 128.898 C 161.005 129.174,161.088 128.905,161.092 128.300 C 161.096 127.695,161.078 127.207,161.050 127.215 C 161.023 127.224,160.775 127.486,160.500 127.798 M156.500 137.798 C 155.917 138.461,155.837 138.948,156.366 138.621 C 156.567 138.497,156.811 138.621,156.908 138.898 C 157.005 139.174,157.088 138.905,157.092 138.300 C 157.096 137.695,157.078 137.207,157.050 137.215 C 157.023 137.224,156.775 137.486,156.500 137.798 M153.300 144.730 C 153.285 145.538,153.372 145.930,153.495 145.600 C 153.617 145.270,153.961 144.856,154.259 144.680 C 155.042 144.217,154.923 143.380,154.064 143.315 C 153.477 143.271,153.322 143.557,153.300 144.730 M317.594 146.300 C 317.589 147.157,317.502 147.268,317.200 146.800 C 316.967 146.439,316.810 146.390,316.806 146.676 C 316.795 147.576,317.546 147.613,318.156 146.742 C 318.766 145.871,318.688 145.200,317.976 145.200 C 317.769 145.200,317.597 145.695,317.594 146.300 M318.400 147.800 C 318.400 148.130,318.580 148.400,318.800 148.400 C 319.020 148.400,319.200 148.130,319.200 147.800 C 319.200 147.470,319.020 147.200,318.800 147.200 C 318.580 147.200,318.400 147.470,318.400 147.800 M194.522 149.073 C 194.811 149.541,193.678 151.295,193.256 151.034 C 193.096 150.936,192.941 151.188,192.910 151.595 C 192.845 152.461,193.948 153.012,194.547 152.413 C 194.831 152.129,194.818 151.858,194.506 151.546 C 194.168 151.208,194.204 150.861,194.648 150.183 C 195.103 149.489,195.129 149.203,194.760 148.975 C 194.481 148.803,194.380 148.844,194.522 149.073 M150.500 151.798 C 149.917 152.461,149.837 152.948,150.366 152.621 C 150.567 152.497,150.811 152.621,150.908 152.898 C 151.005 153.174,151.088 152.905,151.092 152.300 C 151.096 151.695,151.078 151.207,151.050 151.215 C 151.023 151.224,150.775 151.486,150.500 151.798 M194.300 152.233 C 193.919 152.615,193.155 151.997,193.439 151.538 C 193.607 151.264,193.831 151.271,194.118 151.558 C 194.354 151.794,194.436 152.098,194.300 152.233 M319.877 151.972 C 319.995 152.424,320.308 152.657,320.629 152.533 C 321.094 152.355,321.092 152.235,320.618 151.761 C 319.853 150.995,319.637 151.057,319.877 151.972 M275.278 154.035 C 275.370 154.311,275.846 154.567,276.334 154.603 C 277.494 154.688,277.214 153.840,276.024 153.666 C 275.429 153.579,275.169 153.707,275.278 154.035 M321.600 156.343 C 321.600 157.595,322.209 158.460,322.253 157.271 C 322.267 156.902,322.351 156.353,322.439 156.050 C 322.528 155.748,322.375 155.418,322.100 155.317 C 321.770 155.196,321.600 155.544,321.600 156.343 M184.966 169.446 C 185.114 170.458,185.939 171.021,186.480 170.480 C 186.851 170.109,186.852 169.892,186.484 169.524 C 185.796 168.836,184.869 168.788,184.966 169.446 M186.300 170.233 C 185.919 170.615,185.155 169.997,185.439 169.538 C 185.607 169.264,185.831 169.271,186.118 169.558 C 186.354 169.794,186.436 170.098,186.300 170.233 M283.363 171.437 C 283.332 172.655,283.439 172.796,284.364 172.760 C 285.258 172.726,285.290 172.685,284.596 172.460 C 284.078 172.293,283.810 171.876,283.842 171.290 C 283.869 170.790,283.781 170.312,283.645 170.228 C 283.509 170.144,283.382 170.688,283.363 171.437 M140.500 175.798 C 139.917 176.461,139.837 176.948,140.366 176.621 C 140.567 176.497,140.811 176.621,140.908 176.898 C 141.005 177.174,141.088 176.905,141.092 176.300 C 141.096 175.695,141.078 175.207,141.050 175.215 C 141.023 175.224,140.775 175.486,140.500 175.798 M331.594 180.300 C 331.589 181.157,331.502 181.268,331.200 180.800 C 330.967 180.439,330.810 180.390,330.806 180.676 C 330.795 181.576,331.546 181.613,332.156 180.742 C 332.766 179.871,332.688 179.200,331.976 179.200 C 331.769 179.200,331.597 179.695,331.594 180.300 M180.769 180.500 C 180.753 180.555,180.677 180.924,180.602 181.320 C 180.432 182.213,179.603 183.249,179.238 183.023 C 179.088 182.931,178.941 183.188,178.910 183.595 C 178.846 184.449,179.945 185.015,180.530 184.430 C 180.791 184.169,180.772 183.848,180.473 183.487 C 180.170 183.123,180.152 182.808,180.419 182.541 C 180.836 182.124,181.285 180.400,180.977 180.400 C 180.880 180.400,180.786 180.445,180.769 180.500 M332.400 181.800 C 332.400 182.130,332.580 182.400,332.800 182.400 C 333.020 182.400,333.200 182.130,333.200 181.800 C 333.200 181.470,333.020 181.200,332.800 181.200 C 332.580 181.200,332.400 181.470,332.400 181.800 M180.300 184.233 C 179.919 184.615,179.155 183.997,179.439 183.538 C 179.607 183.264,179.831 183.271,180.118 183.558 C 180.354 183.794,180.436 184.098,180.300 184.233 M333.877 185.972 C 333.995 186.424,334.308 186.657,334.629 186.533 C 335.094 186.355,335.092 186.235,334.618 185.761 C 333.853 184.995,333.637 185.057,333.877 185.972 M289.278 188.035 C 289.370 188.311,289.846 188.567,290.334 188.603 C 291.494 188.688,291.214 187.840,290.024 187.666 C 289.429 187.579,289.169 187.707,289.278 188.035 " stroke="none" fill="#d01010" fill-rule="evenodd"></path><path id="path3" d="" stroke="none" fill="#381010" fill-rule="evenodd"></path><path id="path4" d="" stroke="none" fill="#041410" fill-rule="evenodd"></path></g></svg>