<?xml version="1.0" encoding="UTF-8" standalone="no"?>
<svg
   xmlns:dc="http://purl.org/dc/elements/1.1/"
   xmlns:cc="http://creativecommons.org/ns#"
   xmlns:rdf="http://www.w3.org/1999/02/22-rdf-syntax-ns#"
   xmlns:svg="http://www.w3.org/2000/svg"
   xmlns="http://www.w3.org/2000/svg"
   viewBox="0 0 258.66666 258.66666"
   height="258.66666"
   width="258.66666"
   xml:space="preserve"
   id="svg2"
   version="1.1"><metadata
     id="metadata8"><rdf:RDF><cc:Work
         rdf:about=""><dc:format>image/svg+xml</dc:format><dc:type
           rdf:resource="http://purl.org/dc/dcmitype/StillImage" /></cc:Work></rdf:RDF></metadata><defs
     id="defs6" /><g
     transform="matrix(1.3333333,0,0,-1.3333333,0,258.66667)"
     id="g10"><g
       transform="scale(0.1)"
       id="g12"><path
         id="path14"
         style="fill:#ffffff;fill-opacity:1;fill-rule:evenodd;stroke:none"
         d="M 2.59766,1933.23 H 1930.16 V 5.66797 H 2.59766 V 1933.23" /><path
         id="path16"
         style="fill:#e9e9e9;fill-opacity:1;fill-rule:evenodd;stroke:none"
         d="m 420.883,772.207 c -91.133,0 -135.945,55.508 -153.418,113.504 19.73,-94.137 126.336,-186.289 462.683,-227.395 317.772,-38.839 524.862,58.528 594.712,103.836 0,0 47.2,20.77 18.88,-11.324 0,0 -200.13,-185.023 -592.826,-186.91 -392.699,-1.891 -704.2187,196.344 -702.332,396.477 -1.8867,200.125 309.633,398.365 702.332,396.475 392.696,-1.89 592.826,-186.91 592.826,-186.91 28.32,-32.1 -18.88,-11.33 -18.88,-11.33 -69.85,45.32 -276.05,134.55 -594.712,103.84 -313.406,-30.21 -415.71,-136.69 -449.691,-208.43 -13.078,-27.61 -18.988,-53.65 -20.469,-79.872 8.465,68.452 51.012,149.162 160.895,149.162 124.472,0 162.558,-103.57 162.558,-175.56 0,-71.989 -38.086,-175.563 -162.558,-175.563 z M 1686.19,841.41 H 1852 v -60.379 h -235.48 v 333.479 h 69.67 z m -255.83,119.367 h 139.33 V 781.031 h -46.44 l -6.97,41.805 c -17.65,-20.438 -43.19,-50.629 -104.04,-50.629 -80.35,0 -153.26,57.594 -153.26,174.637 0,91.036 50.62,176.956 163.01,176.486 102.19,0 142.59,-66.41 146.31,-112.39 h -69.67 c 0,13 -23.69,54.8 -72.92,54.8 -49.69,0 -95.67,-34.37 -95.67,-119.826 0,-91.031 49.69,-114.723 97.07,-114.723 15.32,0 66.41,6.043 80.81,73.387 h -77.56 z M 420.883,1083.39 c -72.453,0 -116.11,-57.13 -116.11,-135.62 0,-78.493 43.657,-135.618 116.11,-135.618 72.457,0 116.113,57.125 116.113,135.618 0,78.49 -43.656,135.62 -116.113,135.62 z m 187.555,-89.101 h 33.843 v -30.172 h 0.813 c 8.566,12.231 24.875,36.293 63.613,36.293 56.676,0 97.07,-48.043 97.07,-107.988 0,-50.965 -29.382,-117.504 -101.964,-117.504 -28.543,0 -47.301,13.453 -56.676,28.543 H 644.32 V 696.629 h -35.882 z m 90.671,-188.383 c 39.145,0 65.676,33.918 65.676,80.813 0,27.32 -11.035,81.472 -66.492,81.472 -51.781,0 -57.492,-55.859 -57.492,-90.519 0,-56.68 35.472,-71.766 58.308,-71.766 z m 321.821,42 c -1.23,-10.195 -11.02,-40.371 -37.926,-58.308 -9.789,-6.524 -23.649,-14.68 -57.902,-14.68 -59.938,0 -95.414,45.258 -95.414,106.828 0,66.063 31.804,118.664 102.347,118.664 61.57,0 91.745,-48.937 91.745,-124.371 H 868.02 c 0,-44.441 20.793,-70.133 61.976,-70.133 33.84,0 53.82,26.098 55.043,42 z m -38.035,56.68 c -2.04,33.023 -15.903,63.605 -59.532,63.605 -33.023,0 -59.121,-30.582 -59.121,-63.605 z M 1222.09,781.031 h -35.88 v 131.301 c 0,37.106 -10.6,55.859 -45.67,55.859 -20.39,0 -56.27,-13.046 -56.27,-70.945 V 781.031 h -35.89 v 213.258 h 33.85 v -30.172 h 0.81 c 7.75,11.414 27.73,36.293 64.43,36.293 33.03,0 74.62,-13.461 74.62,-74.215 V 781.031" /><path
         id="path18"
         style="fill:#4386b5;fill-opacity:1;fill-rule:evenodd;stroke:none"
         d="m 1872.39,828.27 v -3.008 h -9.46 v -26.117 h -3.74 v 26.117 h -9.54 v 3.008 z m 8.88,0 7.26,-23.254 h 0.15 l 7.55,23.254 h 5.58 v -29.125 h -3.3 v 26.117 h -0.15 l -8.58,-26.117 h -2.49 l -8.08,26.117 h -0.14 v -26.117 h -3.3 v 29.125 h 5.5" /><path
         id="path20"
         style="fill:#e2e2e2;fill-opacity:1;fill-rule:evenodd;stroke:none"
         d="m 420.047,773.074 c -91.133,0 -135.945,55.512 -153.418,113.504 19.73,-94.14 126.336,-186.289 462.684,-227.398 317.767,-38.836 524.847,58.531 594.707,103.843 0,0 47.2,20.766 18.88,-11.332 0,0 -200.13,-185.019 -592.822,-186.906 C 357.375,562.895 45.8594,761.129 47.7461,961.258 45.8594,1161.38 357.375,1359.63 750.078,1357.73 c 392.692,-1.89 592.822,-186.91 592.822,-186.91 28.32,-32.09 -18.88,-11.32 -18.88,-11.32 -69.86,45.31 -276.05,134.55 -594.707,103.83 -313.411,-30.2 -415.711,-136.69 -449.696,-208.43 -13.078,-27.61 -18.988,-53.64 -20.469,-79.865 8.465,68.445 51.016,149.165 160.899,149.165 124.473,0 162.558,-103.58 162.558,-175.563 0,-71.992 -38.085,-175.563 -162.558,-175.563 z m 1265.303,69.203 c 55.27,0.004 110.54,0.004 165.81,0 0,-20.125 0,-40.25 0,-60.375 -78.49,0 -156.99,0 -235.48,0 0,111.161 0,222.308 0,333.478 23.22,0 46.45,0 69.67,0 0,-91.04 0,-182.067 0,-273.103 z m -255.83,119.364 c 46.44,0.004 92.89,0.004 139.33,0 0,-59.911 0,-119.825 0,-179.739 -15.48,0 -30.96,0 -46.44,0 -2.33,13.934 -4.65,27.868 -6.97,41.797 -17.65,-20.433 -43.2,-50.625 -104.04,-50.625 -80.35,0 -153.27,57.594 -153.27,174.637 0,91.029 50.63,176.949 163.03,176.489 102.17,0 142.58,-66.42 146.3,-112.4 -23.22,0 -46.45,0 -69.67,0 0,13.01 -23.69,54.81 -72.92,54.81 -49.7,0 -95.67,-34.38 -95.67,-119.829 0,-91.035 49.69,-114.722 97.07,-114.722 15.32,0 66.41,6.039 80.81,73.382 -25.86,0.004 -51.71,0.004 -77.56,0 0,18.735 0,37.473 0,56.2 z M 420.047,1084.25 c -72.453,0 -116.113,-57.12 -116.113,-135.613 0,-78.492 43.66,-135.617 116.113,-135.617 72.453,0 116.113,57.125 116.113,135.617 0,78.493 -43.66,135.613 -116.113,135.613 z m 187.555,-89.098 c 11.281,0 22.562,0 33.843,0 0.004,-10.054 0.004,-20.109 0,-30.172 0.274,0.004 0.543,0.004 0.813,0 8.566,12.235 24.871,36.29 63.609,36.29 56.676,0 97.074,-48.04 97.074,-107.981 0,-50.969 -29.382,-117.504 -101.964,-117.504 -28.543,0 -47.301,13.453 -56.68,28.539 -0.27,0.004 -0.543,0.004 -0.817,0 0.004,-35.605 0.004,-71.215 0,-106.832 -11.957,0.004 -23.917,0.004 -35.878,0 0,99.227 0,198.446 0,297.66 z m 90.671,-188.379 c 39.145,0 65.676,33.918 65.676,80.809 0,27.32 -11.035,81.477 -66.492,81.477 -51.785,0 -57.492,-55.864 -57.492,-90.524 0,-56.676 35.473,-71.762 58.308,-71.762 z m 321.807,42 c -1.22,-10.195 -11.01,-40.371 -37.92,-58.312 -9.785,-6.523 -23.644,-14.676 -57.894,-14.676 -59.942,0 -95.414,45.258 -95.414,106.832 0,66.055 31.804,118.653 102.347,118.653 61.563,0 91.741,-48.926 91.741,-124.364 -51.92,0.004 -103.838,0.004 -155.76,0 0,-44.445 20.797,-70.133 61.98,-70.133 33.84,0 53.817,26.094 55.039,42 11.961,0 23.931,0 35.881,0 z m -38.025,56.676 c -2.035,33.028 -15.899,63.61 -59.528,63.61 -33.023,0 -59.125,-30.582 -59.125,-63.61 39.555,0.004 79.11,0.004 118.653,0 z M 1221.25,781.902 c -11.96,0 -23.92,0 -35.88,0 0,43.766 0,87.532 0,131.293 0,37.11 -10.6,55.864 -45.67,55.864 -20.39,0 -56.27,-13.047 -56.27,-70.95 0,-38.73 0,-77.472 0,-116.207 -11.96,0 -23.93,0 -35.88,0 0,71.086 0,142.168 0,213.25 11.28,0 22.56,0 33.84,0 0,-10.054 0,-20.109 0,-30.172 0.27,0.004 0.54,0.004 0.81,0 7.75,11.418 27.73,36.29 64.43,36.29 33.03,0 74.62,-13.454 74.62,-74.211 0,-48.383 0,-96.77 0,-145.157" /><path
         id="path22"
         style="fill:#dcdbdb;fill-opacity:1;fill-rule:evenodd;stroke:none"
         d="m 419.207,773.934 c -91.133,0 -135.949,55.507 -153.422,113.504 19.735,-94.137 126.34,-186.29 462.684,-227.395 317.771,-38.84 524.861,58.527 594.711,103.836 0,0 47.2,20.769 18.88,-11.324 0,0 -200.12,-185.024 -592.826,-186.91 C 356.535,563.754 45.0156,761.988 46.9023,962.121 45.0156,1162.25 356.535,1360.48 749.234,1358.59 c 392.706,-1.88 592.826,-186.91 592.826,-186.91 28.32,-32.09 -18.88,-11.32 -18.88,-11.32 -69.85,45.31 -276.05,134.55 -594.711,103.84 -313.403,-30.21 -415.707,-136.69 -449.692,-208.44 -13.078,-27.61 -18.988,-53.64 -20.468,-79.865 8.468,68.445 51.011,149.165 160.898,149.165 124.473,0 162.559,-103.58 162.559,-175.564 0,-71.988 -38.086,-175.562 -162.559,-175.562 z m 1265.303,69.203 c 55.27,0.004 110.54,0.004 165.81,0 0,-20.121 0,-40.246 0,-60.379 -78.5,0.004 -156.99,0.004 -235.48,0 0,111.164 0,222.312 0,333.472 23.22,0 46.45,0 69.67,0 0,-91.03 0,-182.054 0,-273.093 z m -255.83,119.367 c 46.44,0 92.89,0 139.33,0 0,-59.914 0,-119.828 0,-179.746 -15.48,0.004 -30.96,0.004 -46.44,0 -2.32,13.937 -4.65,27.871 -6.97,41.805 -17.65,-20.438 -43.2,-50.629 -104.04,-50.629 -80.35,0 -153.26,57.593 -153.26,174.636 0,91.03 50.62,176.95 163.02,176.49 102.17,0 142.58,-66.42 146.3,-112.4 -23.23,0 -46.45,0 -69.67,0 0,13 -23.69,54.8 -72.92,54.8 -49.69,0 -95.67,-34.37 -95.67,-119.819 0,-91.036 49.69,-114.723 97.06,-114.723 15.33,0 66.42,6.039 80.82,73.387 -25.86,0.004 -51.71,0.004 -77.56,0 0,18.734 0,37.468 0,56.199 z M 419.207,1085.11 c -72.453,0 -116.113,-57.13 -116.113,-135.614 0,-78.492 43.66,-135.617 116.113,-135.617 72.457,0 116.113,57.125 116.113,135.617 0,78.484 -43.656,135.614 -116.113,135.614 z m 187.555,-89.098 c 11.285,0 22.562,0 33.843,0 0,-10.055 0,-20.11 0,-30.168 0.274,0.004 0.543,0.004 0.813,0 8.566,12.23 24.875,36.286 63.613,36.286 56.676,0 97.071,-48.036 97.071,-107.982 0,-50.964 -29.387,-117.507 -101.969,-117.507 -28.539,0 -47.297,13.457 -56.676,28.547 -0.269,0.003 -0.539,0.003 -0.816,0 0.004,-35.61 0.004,-71.223 0,-106.833 -11.957,0.004 -23.918,0.004 -35.879,0 0.004,99.219 0.004,198.446 0,297.657 z m 90.672,-188.379 c 39.144,0 65.675,33.918 65.675,80.808 0,27.325 -11.035,81.477 -66.492,81.477 -51.785,0 -57.496,-55.859 -57.496,-90.52 0,-56.679 35.477,-71.765 58.313,-71.765 z m 321.816,42 c -1.23,-10.195 -11.02,-40.371 -37.926,-58.309 -9.789,-6.523 -23.648,-14.683 -57.898,-14.683 -59.942,0 -95.414,45.261 -95.414,106.832 0,66.058 31.804,118.657 102.343,118.657 61.571,0 91.745,-48.931 91.745,-124.364 -51.92,0.004 -103.838,0.004 -155.76,0 0,-44.442 20.797,-70.133 61.98,-70.133 33.836,0 53.817,26.097 55.039,42 11.961,0 23.921,0 35.891,0 z m -38.035,56.676 c -2.039,33.027 -15.899,63.609 -59.524,63.609 -33.031,0 -59.125,-30.582 -59.125,-63.609 39.551,0.004 79.102,0.004 118.649,0 z M 1220.41,782.758 c -11.96,0.004 -23.93,0.004 -35.88,0 0,43.769 0,87.535 0,131.301 0,37.105 -10.6,55.859 -45.67,55.859 -20.39,0 -56.27,-13.047 -56.27,-70.945 0,-38.739 0,-77.477 0,-116.215 -11.96,0.004 -23.93,0.004 -35.88,0 0,71.09 0,142.176 0,213.254 11.28,0 22.56,0 33.84,0 0,-10.055 0,-20.11 0,-30.168 0.27,0.004 0.54,0.004 0.81,0 7.75,11.414 27.73,36.286 64.43,36.286 33.03,0 74.62,-13.458 74.62,-74.208 0,-48.387 0,-96.774 0,-145.164" /><path
         id="path24"
         style="fill:#d5d4d5;fill-opacity:1;fill-rule:evenodd;stroke:none"
         d="m 418.367,774.801 c -91.133,0 -135.945,55.508 -153.418,113.5 19.731,-94.137 126.336,-186.285 462.68,-227.399 317.771,-38.832 524.851,58.532 594.711,103.844 0,0 47.2,20.766 18.88,-11.332 0,0 -200.13,-185.019 -592.822,-186.906 C 355.695,564.617 44.1758,762.855 46.0664,962.984 44.1758,1163.11 355.695,1361.35 748.398,1359.46 c 392.692,-1.89 592.822,-186.91 592.822,-186.91 28.32,-32.1 -18.88,-11.33 -18.88,-11.33 -69.86,45.31 -276.05,134.55 -594.711,103.84 -313.406,-30.21 -415.707,-136.69 -449.691,-208.44 -13.079,-27.6 -18.989,-53.64 -20.469,-79.862 8.469,68.442 51.011,149.162 160.898,149.162 124.473,0 162.559,-103.57 162.559,-175.561 0,-71.992 -38.086,-175.558 -162.559,-175.558 z M 1683.67,844 c 55.27,0.004 110.54,0.004 165.81,0 0,-20.125 0,-40.246 0,-60.375 -78.49,0 -156.99,0 -235.48,0 0,111.16 0,222.315 0,333.475 23.22,0 46.45,0 69.67,0 0,-91.03 0,-182.065 0,-273.1 z m -255.83,119.367 c 46.44,0 92.89,0 139.33,0 0,-59.91 0,-119.828 0,-179.742 -15.48,0 -30.96,0 -46.44,0 -2.33,13.934 -4.65,27.867 -6.97,41.797 -17.65,-20.434 -43.19,-50.621 -104.04,-50.621 -80.35,0 -153.26,57.59 -153.26,174.633 0,91.026 50.62,176.956 163.01,176.486 102.18,0 142.59,-66.41 146.31,-112.4 -23.23,0 -46.45,0 -69.67,0 0,13.01 -23.69,54.81 -72.92,54.81 -49.69,0 -95.67,-34.37 -95.67,-119.826 0,-91.035 49.69,-114.723 97.07,-114.723 15.32,0 66.41,6.039 80.81,73.387 -25.85,0 -51.71,0 -77.56,0 0,18.734 0,37.469 0,56.199 z M 418.367,1085.98 c -72.453,0 -116.113,-57.13 -116.113,-135.621 0,-78.488 43.66,-135.617 116.113,-135.617 72.453,0 116.113,57.129 116.113,135.617 0,78.491 -43.66,135.621 -116.113,135.621 z m 187.551,-89.101 c 11.285,0 22.566,0 33.848,0 0,-10.059 0,-20.113 0,-30.172 0.273,0 0.543,0 0.812,0 8.567,12.231 24.871,36.293 63.61,36.293 56.679,0 97.074,-48.043 97.074,-107.984 0,-50.973 -29.387,-117.508 -101.969,-117.508 -28.539,0 -47.297,13.453 -56.672,28.539 -0.269,0.004 -0.543,0.004 -0.82,0 0.004,-35.606 0.004,-71.215 0,-106.828 -11.957,0 -23.918,0 -35.883,0 0.004,99.222 0.004,198.441 0,297.66 z m 90.676,-188.383 c 39.144,0 65.676,33.918 65.676,80.809 0,27.32 -11.04,81.476 -66.493,81.476 -51.785,0 -57.496,-55.863 -57.496,-90.523 0,-56.676 35.477,-71.762 58.313,-71.762 z m 321.816,42 c -1.23,-10.195 -11.02,-40.371 -37.926,-58.312 -9.789,-6.524 -23.648,-14.676 -57.898,-14.676 -59.938,0 -95.414,45.258 -95.414,106.832 0,66.055 31.805,118.66 102.344,118.66 61.57,0 91.744,-48.934 91.744,-124.371 -51.924,0.004 -103.838,0.004 -155.76,0 0,-44.445 20.797,-70.133 61.977,-70.133 33.839,0 53.82,26.094 55.043,42 11.96,0.004 23.92,0.004 35.89,0 z m -38.035,56.676 c -2.039,33.027 -15.898,63.609 -59.527,63.609 -33.028,0 -59.125,-30.582 -59.125,-63.609 39.554,0.004 79.105,0.004 118.652,0 z M 1219.57,783.625 c -11.96,0 -23.92,0 -35.88,0 0,43.766 0,87.531 0,131.293 0,37.109 -10.6,55.863 -45.67,55.863 -20.39,0 -56.27,-13.043 -56.27,-70.949 0,-38.73 0,-77.469 0,-116.207 -11.96,0 -23.92,0 -35.89,0 0,71.086 0,142.172 0,213.254 11.28,0 22.57,0 33.85,0 0,-10.059 0,-20.113 0,-30.172 0.27,0 0.54,0 0.81,0 7.75,11.414 27.73,36.293 64.43,36.293 33.03,0 74.62,-13.461 74.62,-74.215 0,-48.387 0,-96.769 0,-145.16" /><path
         id="path26"
         style="fill:#cfcece;fill-opacity:1;fill-rule:evenodd;stroke:none"
         d="m 417.527,775.66 c -91.132,0 -135.945,55.508 -153.418,113.504 19.727,-94.137 126.332,-186.289 462.68,-227.394 317.771,-38.84 524.851,58.527 594.711,103.835 0,0 47.2,20.77 18.88,-11.324 0,0 -200.13,-185.023 -592.821,-186.91 C 354.855,565.48 43.3398,763.715 45.2266,963.848 43.3398,1163.97 354.855,1362.21 747.559,1360.32 c 392.691,-1.89 592.821,-186.91 592.821,-186.91 28.32,-32.1 -18.88,-11.33 -18.88,-11.33 -69.86,45.31 -276.05,134.56 -594.711,103.84 -313.406,-30.21 -415.707,-136.69 -449.691,-208.43 -13.078,-27.61 -18.989,-53.65 -20.469,-79.869 8.465,68.449 51.016,149.169 160.898,149.169 124.469,0 162.559,-103.58 162.559,-175.567 0,-71.989 -38.09,-175.563 -162.559,-175.563 z m 1265.303,69.203 c 55.27,0.004 110.54,0.004 165.81,0 0,-20.121 0,-40.246 0,-60.379 -78.49,0.004 -156.99,0.004 -235.48,0 0,111.164 0,222.316 0,333.476 23.22,0 46.45,0 69.67,0 0,-91.03 0,-182.058 0,-273.097 z M 1427,964.23 c 46.44,0 92.89,0 139.33,0 0,-59.914 0,-119.828 0,-179.746 -15.48,0.004 -30.96,0.004 -46.44,0 -2.33,13.938 -4.65,27.871 -6.97,41.805 -17.65,-20.437 -43.2,-50.629 -104.04,-50.629 -80.35,0 -153.27,57.594 -153.27,174.637 0,91.033 50.63,176.953 163.02,176.493 102.18,0 142.59,-66.42 146.31,-112.4 -23.22,0 -46.45,0 -69.67,0 0,13 -23.69,54.8 -72.92,54.8 -49.7,0 -95.67,-34.37 -95.67,-119.823 0,-91.035 49.69,-114.722 97.07,-114.722 15.32,0 66.41,6.039 80.81,73.386 -25.86,0.004 -51.71,0.004 -77.56,0 0,18.735 0,37.469 0,56.199 z M 417.527,1086.84 c -72.457,0 -116.113,-57.13 -116.113,-135.617 0,-78.493 43.656,-135.618 116.113,-135.618 72.453,0 116.114,57.125 116.114,135.618 0,78.487 -43.661,135.617 -116.114,135.617 z m 187.551,-89.102 c 11.285,0 22.567,0 33.848,0 0.004,-10.054 0.004,-20.109 0,-30.168 0.273,0.004 0.543,0.004 0.812,0 8.563,12.227 24.871,36.29 63.61,36.29 56.675,0 97.074,-48.04 97.074,-107.985 0,-50.965 -29.383,-117.508 -101.965,-117.508 -28.543,0 -47.305,13.457 -56.68,28.547 -0.269,0.004 -0.543,0.004 -0.816,0 0.004,-35.609 0.004,-71.223 0,-106.832 -11.957,0.004 -23.918,0.004 -35.883,0 0.004,99.219 0.004,198.445 0,297.656 z M 695.75,809.359 c 39.148,0 65.676,33.918 65.676,80.809 0,27.32 -11.035,81.477 -66.492,81.477 -51.782,0 -57.493,-55.86 -57.493,-90.52 0,-56.68 35.477,-71.766 58.309,-71.766 z m 321.81,42 c -1.22,-10.195 -11.01,-40.371 -37.919,-58.308 -9.786,-6.524 -23.645,-14.684 -57.895,-14.684 -59.941,0 -95.418,45.262 -95.418,106.832 0,66.059 31.805,118.661 102.348,118.661 61.566,0 91.744,-48.934 91.744,-124.368 -51.92,0.004 -103.838,0.004 -155.76,0 0,-44.441 20.793,-70.133 61.981,-70.133 33.839,0 53.816,26.098 55.039,42 11.961,0 23.93,0 35.88,0 z m -38.025,56.676 c -2.035,33.028 -15.898,63.61 -59.527,63.61 -33.028,0 -59.125,-30.582 -59.125,-63.61 39.555,0.004 79.109,0.004 118.652,0 z M 1218.73,784.484 c -11.96,0.004 -23.92,0.004 -35.88,0 0,43.77 0,87.536 0,131.301 0,37.106 -10.61,55.86 -45.67,55.86 -20.39,0 -56.27,-13.047 -56.27,-70.946 0,-38.738 0,-77.476 0,-116.215 -11.96,0.004 -23.93,0.004 -35.88,0 0,71.09 0,142.176 0,213.254 11.28,0 22.56,0 33.84,0 0,-10.054 0,-20.109 0,-30.168 0.27,0.004 0.54,0.004 0.81,0 7.75,11.41 27.73,36.29 64.43,36.29 33.03,0 74.62,-13.462 74.62,-74.212 0,-48.386 0,-96.773 0,-145.164" /><path
         id="path28"
         style="fill:#c8c7c7;fill-opacity:1;fill-rule:evenodd;stroke:none"
         d="m 416.688,776.527 c -91.133,0 -135.95,55.508 -153.422,113.5 C 283,795.891 389.605,703.742 725.949,662.629 1043.72,623.797 1250.8,721.16 1320.66,766.473 c 0,0 47.2,20.765 18.88,-11.332 0,0 -200.12,-185.02 -592.825,-186.907 C 354.016,566.344 42.4961,764.582 44.3828,964.711 42.4961,1164.83 354.016,1363.07 746.715,1361.19 c 392.705,-1.89 592.825,-186.92 592.825,-186.92 28.32,-32.09 -18.88,-11.32 -18.88,-11.32 -69.86,45.31 -276.05,134.55 -594.711,103.84 -313.402,-30.21 -415.707,-136.7 -449.691,-208.44 -13.078,-27.61 -18.988,-53.64 -20.469,-79.866 8.469,68.446 51.012,149.166 160.899,149.166 124.472,0 162.558,-103.58 162.558,-175.564 0,-71.992 -38.086,-175.559 -162.558,-175.559 z m 1265.302,69.2 c 55.27,0.003 110.54,0.003 165.81,0 0,-20.125 0,-40.247 0,-60.375 -78.5,0 -156.99,0 -235.48,0 0,111.16 0,222.308 0,333.468 23.22,0 46.45,0 69.67,0 0,-91.03 0,-182.058 0,-273.093 z m -255.83,119.367 c 46.44,0 92.89,0 139.33,0 0,-59.91 0,-119.828 0,-179.742 -15.48,0 -30.96,0 -46.44,0 -2.32,13.933 -4.65,27.867 -6.97,41.796 -17.65,-20.433 -43.2,-50.621 -104.04,-50.621 -80.35,0 -153.27,57.59 -153.27,174.633 0,91.03 50.63,176.95 163.03,176.49 102.17,0 142.58,-66.42 146.3,-112.4 -23.22,0 -46.45,0 -69.67,0 0,13.01 -23.69,54.8 -72.92,54.8 -49.69,0 -95.68,-34.37 -95.68,-119.82 0,-91.035 49.7,-114.722 97.07,-114.722 15.33,0 66.42,6.039 80.81,73.383 -25.85,0.004 -51.7,0.004 -77.55,0 0,18.738 0,37.472 0,56.203 z M 416.688,1087.7 c -72.454,0 -116.114,-57.13 -116.114,-135.614 0,-78.492 43.66,-135.617 116.114,-135.617 72.457,0 116.113,57.125 116.113,135.617 0,78.484 -43.656,135.614 -116.113,135.614 z m 187.554,-89.098 c 11.285,0 22.563,0 33.84,0 0.004,-10.055 0.004,-20.114 0,-30.172 0.277,0 0.547,0 0.816,0 8.567,12.234 24.872,36.29 63.61,36.29 56.676,0 97.074,-48.036 97.074,-107.978 0,-50.972 -29.387,-117.508 -101.969,-117.508 -28.543,0 -47.297,13.454 -56.675,28.539 -0.27,0.004 -0.54,0.004 -0.817,0 0.004,-35.605 0.004,-71.214 0,-106.828 -11.957,0 -23.918,0 -35.879,0 0,99.223 0,198.442 0,297.657 z m 90.672,-188.379 c 39.141,0 65.676,33.918 65.676,80.808 0,27.321 -11.035,81.477 -66.492,81.477 -51.785,0 -57.496,-55.863 -57.496,-90.524 0,-56.675 35.476,-71.761 58.312,-71.761 z m 321.806,42 c -1.22,-10.196 -11.01,-40.371 -37.919,-58.313 -9.785,-6.523 -23.645,-14.676 -57.895,-14.676 -59.941,0 -95.414,45.258 -95.414,106.832 0,66.055 31.805,118.654 102.344,118.654 61.566,0 91.744,-48.927 91.744,-124.365 -51.92,0.004 -103.838,0.004 -155.76,0 0,-44.445 20.797,-70.132 61.981,-70.132 33.836,0 53.816,26.093 55.039,42 11.961,0.004 23.92,0.004 35.88,0 z m -38.025,56.675 c -2.039,33.028 -15.898,63.61 -59.523,63.61 -33.031,0 -59.129,-30.582 -59.129,-63.61 39.555,0.004 79.105,0.004 118.652,0 z M 1217.89,785.352 c -11.96,0 -23.93,0 -35.88,0 0,43.765 0,87.531 0,131.293 0,37.109 -10.6,55.863 -45.67,55.863 -20.39,0 -56.27,-13.047 -56.27,-70.949 0,-38.731 0,-77.469 0,-116.207 -11.96,0 -23.93,0 -35.88,0 0,71.086 0,142.171 0,213.25 11.28,0 22.56,0 33.84,0 0,-10.055 0,-20.114 0,-30.172 0.27,0 0.54,0 0.81,0 7.75,11.418 27.73,36.29 64.43,36.29 33.03,0 74.62,-13.454 74.62,-74.212 0,-48.383 0,-96.766 0,-145.156" /><path
         id="path30"
         style="fill:#c4c3c3;fill-opacity:1;fill-rule:evenodd;stroke:none"
         d="m 415.848,777.387 c -91.133,0 -135.946,55.508 -153.418,113.504 19.73,-94.141 126.336,-186.293 462.679,-227.399 317.771,-38.84 524.851,58.528 594.711,103.84 0,0 47.2,20.766 18.88,-11.328 0,0 -200.13,-185.024 -592.825,-186.91 C 353.176,567.203 41.6563,765.441 43.5469,965.57 c -1.8906,200.13 309.6291,398.36 702.3281,396.47 392.695,-1.88 592.825,-186.91 592.825,-186.91 28.32,-32.09 -18.88,-11.33 -18.88,-11.33 -69.86,45.32 -276.05,134.56 -594.711,103.84 -313.406,-30.2 -415.707,-136.68 -449.691,-208.43 -13.078,-27.61 -18.988,-53.64 -20.469,-79.866 8.469,68.446 51.012,149.166 160.899,149.166 124.472,0 162.558,-103.58 162.558,-175.565 0,-71.988 -38.086,-175.558 -162.558,-175.558 z m 1265.302,69.199 c 55.27,0.004 110.54,0.004 165.81,0 0,-20.121 0,-40.246 0,-60.379 -78.5,0.004 -156.99,0.004 -235.48,0 0,111.164 0,222.313 0,333.473 23.22,0 46.45,0 69.67,0 0,-91.03 0,-182.055 0,-273.094 z m -255.83,119.367 c 46.44,0.004 92.89,0.004 139.33,0 0,-59.914 0,-119.828 0,-179.746 -15.48,0.004 -30.96,0.004 -46.44,0 -2.33,13.941 -4.65,27.871 -6.97,41.805 -17.65,-20.438 -43.19,-50.625 -104.04,-50.625 -80.35,0 -153.26,57.59 -153.26,174.633 0,91.03 50.62,176.95 163.01,176.49 102.18,0 142.59,-66.42 146.31,-112.4 -23.22,0 -46.45,0 -69.67,0 0,13.01 -23.69,54.8 -72.92,54.8 -49.69,0 -95.67,-34.36 -95.67,-119.82 0,-91.031 49.69,-114.723 97.06,-114.723 15.33,0 66.42,6.043 80.82,73.387 -25.86,0.004 -51.71,0.004 -77.56,0 0,18.734 0,37.469 0,56.199 z M 415.848,1088.56 c -72.453,0 -116.114,-57.12 -116.114,-135.615 0,-78.492 43.661,-135.617 116.114,-135.617 72.453,0 116.113,57.125 116.113,135.617 0,78.495 -43.66,135.615 -116.113,135.615 z m 187.55,-89.095 c 11.286,0 22.567,0 33.848,0 0,-10.059 0,-20.113 0,-30.172 0.274,0.004 0.543,0.004 0.813,0 8.566,12.23 24.871,36.287 63.609,36.287 56.68,0 97.07,-48.037 97.07,-107.978 0,-50.969 -29.383,-117.508 -101.965,-117.508 -28.539,0 -47.296,13.453 -56.675,28.543 -0.27,0.004 -0.539,0.004 -0.817,0 0,-35.61 0,-71.219 0,-106.832 -11.957,0.004 -23.918,0.004 -35.883,0 0.004,99.222 0.004,198.445 0,297.66 z m 90.676,-188.383 c 39.145,0 65.676,33.918 65.676,80.813 0,27.32 -11.039,81.476 -66.492,81.476 -51.785,0 -57.496,-55.863 -57.496,-90.523 0,-56.68 35.476,-71.766 58.312,-71.766 z m 321.816,42 c -1.23,-10.191 -11.02,-40.371 -37.925,-58.309 -9.789,-6.523 -23.649,-14.679 -57.899,-14.679 -59.937,0 -95.414,45.261 -95.414,106.832 0,66.058 31.805,118.654 102.344,118.654 61.57,0 91.744,-48.928 91.744,-124.361 -51.92,0 -103.838,0 -155.76,0 0,-44.446 20.797,-70.137 61.977,-70.137 33.84,0 53.82,26.098 55.043,42 11.961,0 23.92,0 35.89,0 z m -38.035,56.68 c -2.039,33.023 -15.898,63.609 -59.527,63.609 -33.027,0 -59.125,-30.586 -59.125,-63.609 39.555,0 79.106,0 118.652,0 z M 1217.05,786.207 c -11.96,0.004 -23.92,0.004 -35.88,0 0,43.773 0,87.535 0,131.301 0,37.109 -10.6,55.863 -45.67,55.863 -20.39,0 -56.27,-13.051 -56.27,-70.949 0,-38.734 0,-77.473 0,-116.215 -11.96,0.004 -23.93,0.004 -35.89,0 0,71.094 0,142.176 0,213.258 11.29,0 22.57,0 33.85,0 0,-10.059 0,-20.113 0,-30.172 0.27,0.004 0.54,0.004 0.81,0 7.75,11.414 27.73,36.287 64.43,36.287 33.03,0 74.62,-13.455 74.62,-74.209 0,-48.383 0,-96.773 0,-145.164" /><path
         id="path32"
         style="fill:#bdbcbc;fill-opacity:1;fill-rule:evenodd;stroke:none"
         d="m 415.008,778.25 c -91.133,0 -135.945,55.508 -153.418,113.5 19.726,-94.137 126.332,-186.285 462.68,-227.398 317.77,-38.832 524.86,58.531 594.71,103.843 0,0 47.2,20.766 18.88,-11.332 0,0 -200.13,-185.019 -592.821,-186.902 C 352.336,568.07 40.8164,766.305 42.707,966.434 40.8164,1166.56 352.336,1364.8 745.039,1362.91 1137.73,1361.02 1337.86,1176 1337.86,1176 c 28.32,-32.1 -18.88,-11.33 -18.88,-11.33 -69.85,45.31 -276.05,134.55 -594.71,103.84 -313.407,-30.21 -415.707,-136.69 -449.692,-208.44 -13.078,-27.61 -18.988,-53.64 -20.469,-79.867 8.465,68.457 51.012,149.167 160.899,149.167 124.469,0 162.555,-103.57 162.555,-175.561 0,-71.989 -38.086,-175.559 -162.555,-175.559 z m 1265.302,69.203 c 55.27,0 110.54,0 165.81,0 0,-20.125 0,-40.25 0,-60.379 -78.49,0.004 -156.99,0.004 -235.48,0 0,111.16 0,222.316 0,333.476 23.22,0 46.45,0 69.67,0 0,-91.03 0,-182.066 0,-273.097 z m -255.83,119.363 c 46.44,0.004 92.89,0.004 139.33,0 0,-59.91 0,-119.828 0,-179.742 -15.48,0.004 -30.96,0.004 -46.44,0 -2.33,13.934 -4.65,27.871 -6.97,41.801 -17.65,-20.437 -43.2,-50.625 -104.04,-50.625 -80.35,0 -153.27,57.59 -153.27,174.633 0,91.027 50.63,176.957 163.02,176.487 102.18,0 142.59,-66.41 146.31,-112.4 -23.22,0 -46.45,0 -69.67,0 0,13.01 -23.69,54.81 -72.92,54.81 -49.7,0 -95.67,-34.37 -95.67,-119.827 0,-91.035 49.69,-114.719 97.07,-114.719 15.32,0 66.41,6.039 80.81,73.383 -25.86,0 -51.71,0 -77.56,0 0,18.735 0,37.469 0,56.199 z M 415.008,1089.43 c -72.457,0 -116.113,-57.13 -116.113,-135.621 0,-78.489 43.656,-135.618 116.113,-135.618 72.453,0 116.113,57.129 116.113,135.618 0,78.491 -43.66,135.621 -116.113,135.621 z m 187.551,-89.1 c 11.285,0 22.566,0 33.847,0 0.004,-10.06 0.004,-20.119 0,-30.174 0.274,0 0.543,0 0.813,0 8.562,12.231 24.871,36.294 63.609,36.294 56.676,0 97.074,-48.044 97.074,-107.985 0,-50.973 -29.386,-117.508 -101.964,-117.508 -28.543,0 -47.305,13.457 -56.68,28.543 -0.27,0 -0.543,0 -0.817,0 0.004,-35.609 0.004,-71.219 0,-106.832 -11.957,0.004 -23.918,0.004 -35.882,0 0.004,99.223 0.004,198.445 0,297.662 z M 693.23,811.949 c 39.149,0 65.676,33.914 65.676,80.805 0,27.32 -11.035,81.476 -66.492,81.476 -51.781,0 -57.492,-55.863 -57.492,-90.519 0,-56.68 35.476,-71.762 58.308,-71.762 z m 321.81,41.996 c -1.22,-10.191 -11,-40.371 -37.919,-58.312 -9.785,-6.52 -23.644,-14.676 -57.894,-14.676 -59.942,0 -95.418,45.262 -95.418,106.832 0,66.059 31.804,118.661 102.347,118.661 61.567,0 91.744,-48.934 91.744,-124.372 -51.916,0.004 -103.837,0.004 -155.759,0 0,-44.441 20.793,-70.129 61.976,-70.129 33.844,0 53.821,26.09 55.043,41.996 11.957,0.004 23.92,0.004 35.88,0 z m -38.024,56.676 c -2.039,33.031 -15.899,63.609 -59.528,63.609 -33.027,0 -59.125,-30.578 -59.125,-63.609 39.551,0.004 79.106,0.004 118.653,0 z M 1216.21,787.074 c -11.96,0.004 -23.92,0.004 -35.89,0 0,43.766 0,87.535 0,131.293 0,37.11 -10.6,55.863 -45.66,55.863 -20.39,0 -56.27,-13.042 -56.27,-70.949 0,-38.73 0,-77.468 0,-116.207 -11.96,0.004 -23.93,0.004 -35.89,0 0,71.086 0,142.172 0,213.256 11.29,0 22.57,0 33.85,0 0,-10.06 0,-20.119 0,-30.174 0.28,0 0.54,0 0.81,0 7.75,11.414 27.73,36.294 64.43,36.294 33.03,0 74.62,-13.462 74.62,-74.216 0,-48.386 0,-96.769 0,-145.16" /><path
         id="path34"
         style="fill:#b6b5b5;fill-opacity:1;fill-rule:evenodd;stroke:none"
         d="m 414.168,779.109 c -91.133,0 -135.949,55.508 -153.422,113.508 19.734,-94.14 126.34,-186.293 462.684,-227.398 317.77,-38.84 524.86,58.527 594.71,103.836 0,0 47.2,20.769 18.88,-11.325 0,0 -200.13,-185.023 -592.825,-186.91 C 351.496,568.93 39.9766,767.164 41.8633,967.297 39.9766,1167.42 351.496,1365.66 744.195,1363.77 c 392.695,-1.89 592.825,-186.91 592.825,-186.91 28.32,-32.1 -18.88,-11.33 -18.88,-11.33 -69.85,45.31 -276.05,134.56 -594.71,103.84 -313.407,-30.21 -415.707,-136.69 -449.692,-208.43 -13.078,-27.61 -18.988,-53.65 -20.468,-79.87 8.464,68.45 51.011,149.16 160.898,149.16 124.469,0 162.559,-103.57 162.559,-175.558 0,-71.988 -38.09,-175.563 -162.559,-175.563 z m 1265.302,69.204 c 55.27,0.003 110.54,0.003 165.81,0 0,-20.122 0,-40.247 0,-60.379 -78.49,0.004 -156.99,0.004 -235.48,0 0,111.164 0,222.316 0,333.476 23.22,0 46.45,0 69.67,0 0,-91.03 0,-182.058 0,-273.097 z M 1423.64,967.68 c 46.44,0 92.89,0 139.33,0 0,-59.914 0,-119.828 0,-179.746 -15.48,0.004 -30.96,0.004 -46.44,0 -2.33,13.941 -4.65,27.871 -6.97,41.804 -17.65,-20.437 -43.2,-50.629 -104.04,-50.629 -80.35,0 -153.27,57.594 -153.27,174.637 0,91.034 50.63,176.954 163.03,176.484 102.17,0 142.58,-66.41 146.3,-112.39 -23.22,0 -46.45,0 -69.67,0 0,13 -23.69,54.8 -72.92,54.8 -49.7,0 -95.68,-34.37 -95.68,-119.824 0,-91.031 49.7,-114.722 97.07,-114.722 15.33,0 66.42,6.043 80.82,73.386 -25.86,0.004 -51.71,0.004 -77.56,0 0,18.735 0,37.469 0,56.2 z M 414.168,1090.29 c -72.453,0 -116.113,-57.13 -116.113,-135.618 0,-78.492 43.66,-135.617 116.113,-135.617 72.453,0 116.109,57.125 116.109,135.617 0,78.488 -43.656,135.618 -116.109,135.618 z m 187.555,-89.1 c 11.281,0 22.562,0 33.84,0 0.003,-10.057 0.003,-20.116 0,-30.17 0.277,0 0.546,0 0.816,0 8.566,12.23 24.871,36.28 63.609,36.28 56.676,0 97.075,-48.03 97.075,-107.972 0,-50.969 -29.387,-117.508 -101.969,-117.508 -28.543,0 -47.297,13.453 -56.676,28.543 -0.27,0.004 -0.543,0.004 -0.816,0 0.003,-35.609 0.003,-71.218 0,-106.832 -11.961,0.004 -23.918,0.004 -35.879,0 0,99.219 0,198.446 0,297.659 z m 90.668,-188.381 c 39.144,0 65.679,33.918 65.679,80.812 0,27.32 -11.035,81.477 -66.492,81.477 -51.785,0 -57.496,-55.864 -57.496,-90.524 0,-56.679 35.477,-71.765 58.309,-71.765 z m 321.809,42 c -1.22,-10.192 -11,-40.371 -37.919,-58.309 -9.785,-6.523 -23.644,-14.68 -57.894,-14.68 -59.942,0 -95.418,45.262 -95.418,106.832 0,66.055 31.804,118.648 102.347,118.648 61.567,0 91.744,-48.921 91.744,-124.355 -51.915,0 -103.837,0 -155.759,0 0,-44.445 20.793,-70.136 61.98,-70.136 33.836,0 53.817,26.097 55.039,42 11.961,0 23.92,0 35.88,0 z m -38.024,56.675 c -2.039,33.028 -15.903,63.614 -59.528,63.614 -33.027,0 -59.125,-30.586 -59.125,-63.614 39.555,0.004 79.106,0.004 118.653,0 z m 239.194,-123.55 c -11.96,0.004 -23.92,0.004 -35.88,0 0,43.773 0,87.535 0,131.3 0,37.106 -10.6,55.864 -45.67,55.864 -20.39,0 -56.27,-13.051 -56.27,-70.95 0,-38.738 0,-77.476 0,-116.214 -11.96,0.004 -23.92,0.004 -35.88,0 0,71.093 0,142.175 0,213.256 11.28,0 22.56,0 33.84,0 0,-10.057 0,-20.116 0,-30.17 0.27,0 0.54,0 0.81,0 7.75,11.414 27.73,36.28 64.43,36.28 33.02,0 74.62,-13.448 74.62,-74.202 0,-48.383 0,-96.774 0,-145.164" /><path
         id="path36"
         style="fill:#b0aeaf;fill-opacity:1;fill-rule:evenodd;stroke:none"
         d="m 413.328,779.973 c -91.133,0 -135.949,55.507 -153.422,113.504 19.735,-94.141 126.34,-186.289 462.684,-227.399 317.77,-38.836 524.86,58.527 594.71,103.84 0,0 47.2,20.766 18.88,-11.328 0,0 -200.13,-185.024 -592.825,-186.906 C 350.656,569.793 39.1367,768.027 41.0234,968.156 39.1367,1168.28 350.656,1366.52 743.355,1364.63 c 392.695,-1.88 592.825,-186.91 592.825,-186.91 28.32,-32.09 -18.88,-11.33 -18.88,-11.33 -69.85,45.32 -276.05,134.56 -594.71,103.84 -313.406,-30.21 -415.711,-136.69 -449.692,-208.43 -13.078,-27.61 -18.988,-53.65 -20.468,-79.87 8.468,68.45 51.011,149.16 160.898,149.16 124.473,0 162.559,-103.57 162.559,-175.555 0,-71.988 -38.086,-175.562 -162.559,-175.562 z m 1265.302,69.203 c 55.27,0 110.54,0 165.81,0 0,-20.125 0,-40.25 0,-60.379 -78.49,0.004 -156.99,0.004 -235.48,0 0,111.16 0,222.313 0,333.473 23.22,0 46.45,0 69.67,0 0,-91.03 0,-182.059 0,-273.094 z M 1422.8,968.539 c 46.44,0.004 92.89,0.004 139.33,0 0,-59.91 0,-119.824 0,-179.742 -15.48,0.004 -30.96,0.004 -46.44,0 -2.33,13.933 -4.65,27.871 -6.97,41.801 -17.65,-20.438 -43.2,-50.625 -104.04,-50.625 -80.35,0 -153.27,57.59 -153.27,174.632 0,91.035 50.63,176.955 163.02,176.485 102.18,0 142.59,-66.41 146.31,-112.39 -23.22,0 -46.45,0 -69.67,0 0,13 -23.69,54.8 -72.92,54.8 -49.69,0 -95.67,-34.37 -95.67,-119.824 0,-91.035 49.69,-114.719 97.06,-114.719 15.33,0 66.42,6.039 80.82,73.387 -25.86,0 -51.71,0 -77.56,0 0,18.734 0,37.469 0,56.195 z M 413.328,1091.15 c -72.453,0 -116.113,-57.13 -116.113,-135.615 0,-78.492 43.66,-135.621 116.113,-135.621 72.453,0 116.113,57.129 116.113,135.621 0,78.485 -43.66,135.615 -116.113,135.615 z m 187.551,-89.1 c 11.285,0 22.566,0 33.844,0 0.004,-10.058 0.004,-20.112 0,-30.171 0.277,0.004 0.547,0.004 0.816,0 8.566,12.23 24.871,36.291 63.609,36.291 56.68,0 97.071,-48.041 97.071,-107.982 0,-50.969 -29.383,-117.508 -101.965,-117.508 -28.539,0 -47.297,13.457 -56.676,28.543 -0.269,0.004 -0.539,0.004 -0.816,0 0,-35.606 0,-71.219 0,-106.832 -11.957,0.004 -23.918,0.004 -35.883,0 0.004,99.222 0.004,198.445 0,297.659 z m 90.676,-188.378 c 39.14,0 65.675,33.914 65.675,80.805 0,27.32 -11.039,81.48 -66.496,81.48 -51.781,0 -57.492,-55.863 -57.492,-90.519 0,-56.684 35.477,-71.766 58.313,-71.766 z m 321.805,41.996 c -1.22,-10.191 -11.01,-40.367 -37.919,-58.309 -9.785,-6.523 -23.644,-14.679 -57.894,-14.679 -59.942,0 -95.414,45.261 -95.414,106.832 0,66.058 31.805,118.658 102.344,118.658 61.566,0 91.743,-48.932 91.743,-124.365 -51.915,0 -103.841,0 -155.759,0 0,-44.446 20.793,-70.133 61.977,-70.133 33.839,0 53.82,26.094 55.039,41.996 11.964,0.004 23.923,0.004 35.883,0 z m -38.024,56.676 c -2.039,33.031 -15.898,63.613 -59.527,63.613 -33.028,0 -59.125,-30.582 -59.125,-63.613 39.554,0.004 79.105,0.004 118.652,0 z M 1214.53,788.797 c -11.96,0.004 -23.92,0.004 -35.88,0 0,43.766 0,87.535 0,131.297 0,37.105 -10.6,55.863 -45.67,55.863 -20.39,0 -56.27,-13.047 -56.27,-70.949 0,-38.735 0,-77.473 0,-116.211 -11.96,0.004 -23.92,0.004 -35.89,0 0,71.086 0,142.176 0,213.253 11.29,0 22.57,0 33.85,0 0,-10.058 0,-20.112 0,-30.171 0.27,0.004 0.54,0.004 0.81,0 7.75,11.414 27.73,36.291 64.43,36.291 33.03,0 74.62,-13.459 74.62,-74.213 0,-48.383 0,-96.769 0,-145.16" /><path
         id="path38"
         style="fill:#a9a8a8;fill-opacity:1;fill-rule:evenodd;stroke:none"
         d="m 412.488,780.836 c -91.133,0 -135.945,55.508 -153.422,113.504 19.731,-94.141 126.336,-186.289 462.684,-227.399 317.77,-38.836 524.86,58.528 594.71,103.84 0,0 47.2,20.766 18.88,-11.328 0,0 -200.13,-185.023 -592.824,-186.91 C 349.813,570.652 38.2969,768.891 40.1875,969.02 c -1.8906,200.12 309.6255,398.36 702.3285,396.48 392.694,-1.89 592.824,-186.91 592.824,-186.91 28.32,-32.1 -18.88,-11.33 -18.88,-11.33 -69.85,45.31 -276.05,134.55 -594.71,103.83 -313.406,-30.2 -415.707,-136.68 -449.691,-208.43 -13.079,-27.61 -18.993,-53.64 -20.469,-79.867 8.465,68.447 51.012,149.167 160.898,149.167 124.469,0 162.555,-103.58 162.555,-175.565 0,-71.989 -38.086,-175.559 -162.555,-175.559 z m 1265.302,69.203 c 55.27,0 110.54,0 165.81,0 0,-20.125 0,-40.25 0,-60.379 -78.49,0 -156.99,0 -235.48,0 0,111.164 0,222.31 0,333.48 23.22,0 46.45,0 69.67,0 0,-91.04 0,-182.066 0,-273.101 z m -255.83,119.363 c 46.44,0.004 92.88,0.004 139.33,0 0,-59.91 0,-119.828 0,-179.742 -15.48,0 -30.96,0 -46.45,0 -2.32,13.938 -4.64,27.867 -6.96,41.801 -17.65,-20.434 -43.2,-50.625 -104.04,-50.625 -80.35,0 -153.27,57.59 -153.27,174.633 0,91.031 50.63,176.951 163.02,176.491 102.18,0 142.59,-66.42 146.31,-112.4 -23.22,0 -46.45,0 -69.67,0 0,13.01 -23.69,54.81 -72.92,54.81 -49.7,0 -95.67,-34.37 -95.67,-119.831 0,-91.031 49.69,-114.719 97.06,-114.719 15.33,0 66.42,6.039 80.82,73.383 -25.86,0.004 -51.71,0.004 -77.56,0 0,18.735 0,37.469 0,56.199 z M 412.488,1092.01 c -72.457,0 -116.113,-57.12 -116.113,-135.615 0,-78.493 43.656,-135.614 116.113,-135.614 72.453,0 116.11,57.121 116.11,135.614 0,78.495 -43.657,135.615 -116.11,135.615 z m 187.551,-89.1 c 11.285,0 22.566,0 33.848,0 0,-10.051 0,-20.109 0,-30.168 0.273,0.004 0.543,0.004 0.812,0 8.563,12.231 24.871,36.288 63.61,36.288 56.675,0 97.074,-48.038 97.074,-107.979 0,-50.969 -29.391,-117.508 -101.969,-117.508 -28.539,0 -47.301,13.457 -56.676,28.543 -0.269,0.004 -0.543,0.004 -0.816,0 0,-35.609 0,-71.219 0,-106.832 -11.957,0.004 -23.918,0.004 -35.883,0 0.004,99.223 0.004,198.445 0,297.656 z m 90.672,-188.379 c 39.148,0 65.676,33.922 65.676,80.813 0,27.32 -11.035,81.476 -66.492,81.476 -51.782,0 -57.493,-55.863 -57.493,-90.523 0,-56.68 35.477,-71.766 58.309,-71.766 z m 321.809,42.004 c -1.22,-10.195 -11.01,-40.371 -37.918,-58.312 -9.786,-6.524 -23.649,-14.68 -57.895,-14.68 -59.941,0 -95.418,45.262 -95.418,106.832 0,66.059 31.805,118.655 102.348,118.655 61.566,0 91.743,-48.928 91.743,-124.362 -51.915,0.004 -103.837,0.004 -155.759,0 0,-44.445 20.793,-70.137 61.977,-70.137 33.84,0 53.82,26.098 55.043,42.004 11.957,0 23.919,0 35.879,0 z m -38.028,56.676 c -2.035,33.023 -15.894,63.609 -59.523,63.609 -33.028,0 -59.125,-30.586 -59.125,-63.609 39.551,0 79.105,0 118.648,0 z M 1213.69,789.66 c -11.96,0 -23.92,0 -35.89,0 0,43.77 0,87.531 0,131.297 0,37.109 -10.6,55.863 -45.66,55.863 -20.39,0 -56.27,-13.05 -56.27,-70.949 0,-38.734 0,-77.473 0,-116.211 -11.96,0 -23.92,0 -35.89,0 0,71.09 0,142.172 0,213.25 11.29,0 22.57,0 33.85,0 0,-10.051 0,-20.109 0,-30.168 0.27,0.004 0.54,0.004 0.81,0 7.75,11.414 27.74,36.288 64.43,36.288 33.03,0 74.62,-13.456 74.62,-74.21 0,-48.382 0,-96.769 0,-145.16" /><path
         id="path40"
         style="fill:#a3a1a1;fill-opacity:1;fill-rule:evenodd;stroke:none"
         d="m 411.648,781.699 c -91.128,0 -135.945,55.508 -153.418,113.5 19.731,-94.136 126.336,-186.285 462.68,-227.394 317.77,-38.836 524.86,58.527 594.72,103.84 0,0 47.19,20.765 18.87,-11.329 0,0 -200.12,-185.023 -592.82,-186.906 C 348.977,571.52 37.4609,769.754 39.3477,969.883 37.4609,1170.01 348.977,1368.25 741.68,1366.36 c 392.7,-1.89 592.82,-186.91 592.82,-186.91 28.32,-32.1 -18.87,-11.33 -18.87,-11.33 -69.86,45.31 -276.06,134.55 -594.72,103.84 -313.406,-30.21 -415.707,-136.69 -449.687,-208.44 -13.082,-27.61 -18.993,-53.64 -20.473,-79.864 8.469,68.454 51.016,149.164 160.898,149.164 124.473,0 162.559,-103.57 162.559,-175.558 0,-71.989 -38.086,-175.563 -162.559,-175.563 z m 1265.302,69.203 c 55.27,0 110.54,0 165.81,0 0,-20.125 0,-40.25 0,-60.379 -78.49,0.004 -156.99,0.004 -235.48,0 0,111.161 0,222.317 0,333.477 23.23,0 46.45,0 69.67,0 0,-91.04 0,-182.062 0,-273.098 z m -255.83,119.364 c 46.44,0 92.89,0 139.33,0 0,-59.911 0,-119.828 0,-179.743 -15.48,0.004 -30.96,0.004 -46.44,0 -2.32,13.934 -4.65,27.872 -6.97,41.801 -17.65,-20.437 -43.19,-50.625 -104.04,-50.625 -80.35,0 -153.26,57.59 -153.26,174.633 0,91.028 50.62,176.958 163.02,176.488 102.18,0 142.58,-66.41 146.3,-112.4 -23.22,0 -46.45,0 -69.67,0 0,13.01 -23.69,54.81 -72.92,54.81 -49.69,0 -95.67,-34.37 -95.67,-119.828 0,-91.035 49.69,-114.718 97.07,-114.718 15.33,0 66.42,6.039 80.81,73.386 -25.85,0 -51.71,0 -77.56,0 0,18.731 0,37.465 0,56.196 z M 411.648,1092.88 c -72.453,0 -116.113,-57.13 -116.113,-135.618 0,-78.492 43.66,-135.621 116.113,-135.621 72.457,0 116.114,57.129 116.114,135.621 0,78.488 -43.657,135.618 -116.114,135.618 z m 187.551,-89.1 c 11.289,0 22.567,0 33.848,0 0.004,-10.061 0.004,-20.12 0,-30.175 0.273,0 0.543,0 0.812,0 8.567,12.231 24.875,36.285 63.614,36.285 56.675,0 97.07,-48.035 97.07,-107.976 0,-50.969 -29.387,-117.508 -101.965,-117.508 -28.543,0 -47.301,13.457 -56.676,28.543 -0.269,0.004 -0.543,0.004 -0.816,0 0,-35.605 0,-71.219 0,-106.832 -11.961,0.004 -23.922,0.004 -35.887,0 0.004,99.223 0.004,198.446 0,297.663 z m 90.676,-188.382 c 39.145,0 65.676,33.915 65.676,80.805 0,27.32 -11.035,81.481 -66.492,81.481 -51.782,0 -57.496,-55.864 -57.496,-90.52 0,-56.684 35.476,-71.766 58.312,-71.766 z m 321.815,41.997 c -1.23,-10.192 -11.01,-40.368 -37.924,-58.309 -9.786,-6.523 -23.649,-14.68 -57.899,-14.68 -59.937,0 -95.414,45.262 -95.414,106.832 0,66.059 31.805,118.652 102.344,118.652 61.57,0 91.743,-48.925 91.743,-124.359 -51.915,0 -103.833,0 -155.755,0 0,-44.445 20.793,-70.133 61.977,-70.133 33.84,0 53.816,26.094 55.043,41.997 11.957,0.003 23.922,0.003 35.885,0 z m -38.034,56.675 c -2.035,33.032 -15.898,63.614 -59.523,63.614 -33.031,0 -59.125,-30.582 -59.125,-63.614 39.551,0.004 79.105,0.004 118.648,0 z M 1212.85,790.523 c -11.96,0.004 -23.92,0.004 -35.88,0 0,43.766 0,87.536 0,131.297 0,37.106 -10.6,55.864 -45.67,55.864 -20.39,0 -56.27,-13.047 -56.27,-70.95 0,-38.734 0,-77.472 0,-116.211 -11.96,0.004 -23.92,0.004 -35.89,0 0,71.086 0,142.176 0,213.257 11.29,0 22.57,0 33.85,0 0,-10.061 0,-20.12 0,-30.175 0.28,0 0.55,0 0.81,0 7.75,11.415 27.74,36.285 64.43,36.285 33.03,0 74.62,-13.452 74.62,-74.206 0,-48.383 0,-96.77 0,-145.161" /><path
         id="path42"
         style="fill:#9c9a9b;fill-opacity:1;fill-rule:evenodd;stroke:none"
         d="m 410.809,782.563 c -91.133,0 -135.946,55.507 -153.418,113.503 19.73,-94.14 126.336,-186.289 462.683,-227.398 317.766,-38.836 524.856,58.527 594.716,103.84 0,0 47.19,20.765 18.87,-11.328 0,0 -200.12,-185.024 -592.82,-186.91 C 348.137,572.379 36.6211,770.617 38.5078,970.746 36.6211,1170.87 348.137,1369.11 740.84,1367.22 c 392.7,-1.89 592.82,-186.91 592.82,-186.91 28.32,-32.1 -18.87,-11.33 -18.87,-11.33 -69.86,45.31 -276.06,134.56 -594.716,103.84 -313.41,-30.21 -415.711,-136.69 -449.691,-208.43 -13.078,-27.61 -18.992,-53.64 -20.469,-79.87 8.465,68.45 51.012,149.16 160.895,149.16 124.472,0 162.558,-103.57 162.558,-175.559 0,-71.988 -38.086,-175.558 -162.558,-175.558 z m 1265.301,69.203 c 55.27,0 110.54,0 165.81,0 0,-20.125 0,-40.25 0,-60.379 -78.49,0 -156.99,0 -235.47,0 0,111.16 0,222.313 0,333.473 23.21,0 46.44,0 69.66,0 0,-91.03 0,-182.059 0,-273.094 z m -255.83,119.363 c 46.44,0 92.89,0 139.33,0 0,-59.91 0,-119.828 0,-179.742 -15.48,0 -30.96,0 -46.44,0 -2.33,13.937 -4.65,27.867 -6.97,41.801 -17.65,-20.434 -43.2,-50.625 -104.04,-50.625 -80.35,0 -153.27,57.589 -153.27,174.632 0,91.035 50.63,176.955 163.03,176.485 102.18,0 142.58,-66.41 146.3,-112.39 -23.22,0 -46.45,0 -69.67,0 0,13 -23.69,54.8 -72.91,54.8 -49.7,0 -95.68,-34.37 -95.68,-119.824 0,-91.032 49.7,-114.719 97.07,-114.719 15.33,0 66.41,6.039 80.81,73.383 -25.85,0.004 -51.71,0.004 -77.56,0 0,18.734 0,37.468 0,56.199 z M 410.809,1093.74 c -72.454,0 -116.11,-57.13 -116.11,-135.619 0,-78.492 43.656,-135.613 116.11,-135.613 72.457,0 116.113,57.121 116.113,135.613 0,78.489 -43.656,135.619 -116.113,135.619 z m 187.554,-89.1 c 11.282,0 22.567,0 33.844,0 0.004,-10.054 0.004,-20.117 0,-30.171 0.277,0 0.543,0 0.813,0 8.566,12.23 24.871,36.281 63.609,36.281 56.68,0 97.074,-48.031 97.074,-107.973 0,-50.968 -29.383,-117.507 -101.965,-117.507 -28.543,0 -47.3,13.457 -56.675,28.543 -0.274,0.003 -0.543,0.003 -0.821,0 0.004,-35.61 0.004,-71.219 0,-106.833 -11.957,0.004 -23.918,0.004 -35.879,0 0,99.223 0,198.446 0,297.66 z m 90.672,-188.382 c 39.145,0 65.676,33.922 65.676,80.812 0,27.321 -11.035,81.473 -66.492,81.473 -51.785,0 -57.492,-55.859 -57.492,-90.52 0,-56.679 35.472,-71.765 58.308,-71.765 z m 321.805,42.004 c -1.22,-10.196 -11.004,-40.371 -37.914,-58.313 -9.785,-6.523 -23.645,-14.679 -57.899,-14.679 -59.937,0 -95.414,45.261 -95.414,106.832 0,66.058 31.805,118.648 102.348,118.648 61.566,0 91.739,-48.922 91.739,-124.355 -51.915,0.003 -103.837,0.003 -155.759,0 0,-44.446 20.797,-70.137 61.981,-70.137 33.84,0 53.816,26.097 55.039,42.004 11.961,0 23.926,0 35.879,0 z m -38.024,56.676 c -2.035,33.023 -15.898,63.605 -59.527,63.605 -33.023,0 -59.125,-30.582 -59.125,-63.605 39.555,0 79.109,0 118.652,0 z M 1212.01,791.387 c -11.96,0 -23.92,0 -35.88,0 0,43.769 0,87.531 0,131.297 0,37.109 -10.6,55.859 -45.67,55.859 -20.39,0 -56.27,-13.047 -56.27,-70.945 0,-38.735 0,-77.473 0,-116.211 -11.96,0 -23.92,0 -35.88,0 0,71.09 0,142.172 0,213.253 11.28,0 22.56,0 33.84,0 0,-10.054 0,-20.117 0,-30.171 0.28,0 0.55,0 0.81,0 7.75,11.414 27.74,36.281 64.43,36.281 33.03,0 74.62,-13.449 74.62,-74.203 0,-48.383 0,-96.774 0,-145.16" /><path
         id="path44"
         style="fill:#989696;fill-opacity:1;fill-rule:evenodd;stroke:none"
         d="m 409.973,783.422 c -91.137,0 -135.95,55.508 -153.422,113.504 19.73,-94.141 126.336,-186.289 462.679,-227.399 317.78,-38.836 524.86,58.528 594.71,103.84 0,0 47.2,20.766 18.88,-11.328 0,0 -200.12,-185.019 -592.824,-186.906 -392.699,-1.891 -704.2147,196.344 -702.328,396.472 -1.8867,200.125 309.629,398.365 702.328,396.475 392.704,-1.88 592.824,-186.91 592.824,-186.91 28.32,-32.1 -18.88,-11.33 -18.88,-11.33 -69.85,45.32 -276.05,134.55 -594.71,103.84 -313.402,-30.21 -415.707,-136.69 -449.691,-208.43 -13.074,-27.61 -18.988,-53.65 -20.469,-79.871 8.469,68.451 51.012,149.161 160.903,149.161 124.468,0 162.554,-103.57 162.554,-175.556 0,-71.988 -38.086,-175.562 -162.554,-175.562 z m 1265.297,69.203 c 55.27,0.004 110.54,0.004 165.81,0 0,-20.125 0,-40.25 0,-60.379 -78.49,0.004 -156.98,0.004 -235.47,0 0,111.164 0,222.314 0,333.474 23.21,0 46.44,0 69.66,0 0,-91.03 0,-182.06 0,-273.095 z m -255.83,119.363 c 46.44,0.004 92.89,0.004 139.33,0 0,-59.91 0,-119.824 0,-179.742 -15.48,0.004 -30.96,0.004 -46.44,0 -2.32,13.938 -4.65,27.871 -6.97,41.801 -17.65,-20.434 -43.19,-50.625 -104.04,-50.625 -80.34,0 -153.26,57.594 -153.26,174.633 0,91.035 50.62,176.955 163.02,176.485 102.17,0 142.58,-66.41 146.3,-112.39 -23.22,0 -46.45,0 -69.67,0 0,13 -23.69,54.8 -72.92,54.8 -49.69,0 -95.67,-34.37 -95.67,-119.825 0,-91.031 49.69,-114.719 97.06,-114.719 15.34,0 66.43,6.039 80.82,73.387 -25.86,0 -51.71,0 -77.56,0 0,18.734 0,37.469 0,56.195 z M 409.973,1094.6 c -72.457,0 -116.114,-57.13 -116.114,-135.616 0,-78.492 43.657,-135.617 116.114,-135.617 72.453,0 116.109,57.125 116.109,135.617 0,78.486 -43.656,135.616 -116.109,135.616 z m 187.55,-89.1 c 11.286,0 22.563,0 33.844,0 0,-10.059 0,-20.113 0,-30.172 0.274,0.004 0.547,0.004 0.817,0 8.562,12.231 24.871,36.292 63.609,36.292 56.676,0 97.07,-48.042 97.07,-107.983 0,-50.965 -29.386,-117.508 -101.965,-117.508 -28.543,0 -47.3,13.457 -56.679,28.543 -0.27,0.004 -0.539,0.004 -0.817,0 0.004,-35.606 0.004,-71.219 0,-106.828 -11.957,0 -23.918,0 -35.879,0 0.004,99.219 0.004,198.445 0,297.656 z m 90.672,-188.379 c 39.145,0 65.676,33.918 65.676,80.809 0,27.32 -11.035,81.472 -66.492,81.472 -51.785,0 -57.492,-55.859 -57.492,-90.515 0,-56.684 35.476,-71.766 58.308,-71.766 z m 321.815,41.996 c -1.23,-10.191 -11.014,-40.367 -37.924,-58.308 -9.785,-6.52 -23.648,-14.68 -57.898,-14.68 -59.938,0 -95.415,45.262 -95.415,106.832 0,66.059 31.805,118.659 102.344,118.659 61.571,0 91.743,-48.932 91.743,-124.366 -51.915,0 -103.837,0 -155.758,0 0,-44.445 20.796,-70.133 61.98,-70.133 33.84,0 53.816,26.094 55.039,41.996 11.961,0.004 23.926,0.004 35.889,0 z m -38.033,56.68 c -2.039,33.027 -15.899,63.605 -59.524,63.605 -33.031,0 -59.125,-30.578 -59.125,-63.605 39.551,0 79.106,0 118.649,0 z M 1211.17,792.246 c -11.96,0.004 -23.92,0.004 -35.88,0 0,43.766 0,87.535 0,131.297 0,37.105 -10.6,55.859 -45.67,55.859 -20.39,0 -56.27,-13.043 -56.27,-70.945 0,-38.734 0,-77.473 0,-116.211 -11.96,0.004 -23.92,0.004 -35.88,0 0,71.09 0,142.176 0,213.254 11.28,0 22.56,0 33.84,0 0,-10.059 0,-20.113 0,-30.172 0.27,0.004 0.55,0.004 0.82,0 7.75,11.414 27.73,36.292 64.42,36.292 33.03,0 74.62,-13.46 74.62,-74.21 0,-48.387 0,-96.773 0,-145.164" /><path
         id="path46"
         style="fill:#918f90;fill-opacity:1;fill-rule:evenodd;stroke:none"
         d="m 409.129,784.285 c -91.129,0 -135.945,55.508 -153.418,113.504 19.73,-94.137 126.336,-186.289 462.68,-227.398 317.769,-38.836 524.859,58.527 594.709,103.843 0,0 47.2,20.766 18.88,-11.332 0,0 -200.12,-185.023 -592.82,-186.906 C 346.457,574.105 34.9375,772.34 36.8281,972.473 34.9375,1172.59 346.457,1370.83 739.16,1368.95 c 392.7,-1.9 592.82,-186.91 592.82,-186.91 28.32,-32.1 -18.88,-11.33 -18.88,-11.33 -69.85,45.31 -276.05,134.55 -594.709,103.84 -313.407,-30.21 -415.707,-136.69 -449.692,-208.44 -13.078,-27.61 -18.988,-53.64 -20.469,-79.868 8.469,68.448 51.016,149.168 160.899,149.168 124.473,0 162.559,-103.57 162.559,-175.562 0,-71.993 -38.086,-175.563 -162.559,-175.563 z m 1265.301,69.203 c 55.27,0.004 110.54,0.004 165.81,0 0,-20.125 0,-40.25 0,-60.379 -78.49,0.004 -156.99,0.004 -235.48,0 0,111.164 0,222.321 0,333.481 23.23,0 46.45,0 69.67,0 0,-91.04 0,-182.067 0,-273.102 z M 1418.6,972.852 c 46.44,0 92.89,0 139.33,0 0,-59.907 0,-119.825 0,-179.743 -15.48,0.004 -30.96,0.004 -46.44,0 -2.32,13.938 -4.65,27.871 -6.97,41.801 -17.65,-20.433 -43.19,-50.625 -104.04,-50.625 -80.35,0 -153.26,57.59 -153.26,174.633 0,91.032 50.62,176.962 163.02,176.492 102.17,0 142.58,-66.42 146.3,-112.4 -23.22,0 -46.45,0 -69.67,0 0,13.01 -23.69,54.81 -72.92,54.81 -49.69,0 -95.67,-34.37 -95.67,-119.832 0,-91.031 49.69,-114.718 97.07,-114.718 15.33,0 66.42,6.039 80.81,73.382 -25.85,0.004 -51.71,0.004 -77.56,0 0,18.735 0,37.469 0,56.2 z M 409.129,1095.46 c -72.453,0 -116.113,-57.12 -116.113,-135.612 0,-78.493 43.66,-135.618 116.113,-135.618 72.457,0 116.113,57.125 116.113,135.618 0,78.492 -43.656,135.612 -116.113,135.612 z m 187.551,-89.1 c 11.289,0 22.566,0 33.847,0 0.004,-10.051 0.004,-20.114 0,-30.169 0.274,0 0.543,0 0.813,0 8.566,12.235 24.875,36.289 63.613,36.289 56.676,0 97.07,-48.039 97.07,-107.98 0,-50.969 -29.386,-117.504 -101.964,-117.504 -28.543,0 -47.301,13.453 -56.676,28.539 -0.27,0.004 -0.543,0.004 -0.817,0 0,-35.605 0,-71.219 0,-106.832 -11.961,0.004 -23.921,0.004 -35.886,0 0.004,99.227 0.004,198.445 0,297.657 z m 90.675,-188.376 c 39.145,0 65.676,33.918 65.676,80.809 0,27.32 -11.035,81.473 -66.492,81.473 -51.785,0 -57.496,-55.86 -57.496,-90.52 0,-56.676 35.477,-71.762 58.312,-71.762 z m 321.815,42 c -1.23,-10.195 -11.014,-40.371 -37.924,-58.312 -9.785,-6.524 -23.648,-14.676 -57.898,-14.676 -59.938,0 -95.414,45.258 -95.414,106.828 0,66.059 31.804,118.656 102.343,118.656 61.571,0 91.743,-48.929 91.743,-124.363 -51.915,0.004 -103.832,0.004 -155.758,0 0,-44.445 20.797,-70.133 61.976,-70.133 33.844,0 53.821,26.094 55.043,42 11.961,0 23.922,0 35.889,0 z m -38.033,56.676 c -2.039,33.028 -15.899,63.606 -59.528,63.606 -33.027,0 -59.121,-30.578 -59.121,-63.606 39.551,0.004 79.102,0.004 118.649,0 z M 1210.33,793.109 c -11.96,0.004 -23.92,0.004 -35.88,0 0,43.77 0,87.532 0,131.297 0,37.11 -10.6,55.86 -45.67,55.86 -20.39,0 -56.27,-13.043 -56.27,-70.946 0,-38.73 0,-77.472 0,-116.211 -11.96,0.004 -23.92,0.004 -35.88,0 0,71.09 0,142.172 0,213.251 11.28,0 22.56,0 33.84,0 0,-10.051 0,-20.114 0,-30.169 0.28,0 0.54,0 0.82,0 7.75,11.414 27.73,36.289 64.42,36.289 33.03,0 74.62,-13.453 74.62,-74.21 0,-48.383 0,-96.77 0,-145.161" /><path
         id="path48"
         style="fill:#8b8889;fill-opacity:1;fill-rule:evenodd;stroke:none"
         d="m 408.289,785.148 c -91.133,0 -135.945,55.508 -153.418,113.504 19.731,-94.14 126.336,-186.289 462.684,-227.398 317.765,-38.836 524.855,58.527 594.715,103.84 0,0 47.19,20.765 18.87,-11.328 0,0 -200.12,-185.024 -592.82,-186.907 C 345.617,574.969 34.1016,773.203 35.9883,973.332 34.1016,1173.46 345.617,1371.7 738.32,1369.81 c 392.7,-1.89 592.82,-186.91 592.82,-186.91 28.32,-32.1 -18.87,-11.33 -18.87,-11.33 -69.86,45.31 -276.06,134.55 -594.715,103.84 -313.41,-30.21 -415.711,-136.69 -449.692,-208.44 -13.082,-27.6 -18.992,-53.64 -20.468,-79.865 8.464,68.445 51.011,149.165 160.894,149.165 124.473,0 162.559,-103.57 162.559,-175.559 0,-71.988 -38.086,-175.563 -162.559,-175.563 z m 1265.301,69.204 c 55.27,0.003 110.54,0.003 165.81,0 0,-20.125 0,-40.25 0,-60.379 -78.49,0.004 -156.99,0.004 -235.47,0 0,111.164 0,222.317 0,333.477 23.21,0 46.44,0 69.66,0 0,-91.04 0,-182.063 0,-273.098 z m -255.83,119.363 c 46.44,0 92.89,0 139.33,0 0,-59.91 0,-119.824 0,-179.742 -15.48,0.004 -30.96,0.004 -46.44,0 -2.33,13.933 -4.65,27.871 -6.97,41.8 -17.65,-20.437 -43.2,-50.625 -104.04,-50.625 -80.35,0 -153.26,57.594 -153.26,174.633 0,91.029 50.62,176.949 163.01,176.489 102.19,0 142.59,-66.41 146.31,-112.39 -23.22,0 -46.45,0 -69.67,0 0,13 -23.69,54.8 -72.91,54.8 -49.71,0 -95.68,-34.37 -95.68,-119.828 0,-91.032 49.69,-114.719 97.07,-114.719 15.33,0 66.41,6.039 80.81,73.387 -25.85,0 -51.71,0 -77.56,0 0,18.734 0,37.468 0,56.195 z M 408.289,1096.33 c -72.457,0 -116.113,-57.13 -116.113,-135.619 0,-78.492 43.656,-135.621 116.113,-135.621 72.453,0 116.113,57.129 116.113,135.621 0,78.489 -43.66,135.619 -116.113,135.619 z m 187.555,-89.1 c 11.281,0 22.566,0 33.844,0 0.003,-10.062 0.003,-20.121 0,-30.175 0.273,0 0.542,0 0.812,0 8.566,12.23 24.871,36.285 63.609,36.285 56.68,0 97.075,-48.035 97.075,-107.977 0,-50.968 -29.383,-117.508 -101.965,-117.508 -28.543,0 -47.301,13.458 -56.676,28.543 -0.273,0.004 -0.547,0.004 -0.82,0 0.004,-35.605 0.004,-71.218 0,-106.828 -11.957,0 -23.918,0 -35.879,0 0,99.219 0,198.446 0,297.66 z m 90.672,-188.382 c 39.144,0 65.675,33.914 65.675,80.808 0,27.321 -11.039,81.473 -66.496,81.473 -51.781,0 -57.492,-55.859 -57.492,-90.516 0,-56.683 35.477,-71.765 58.313,-71.765 z m 321.804,41.996 c -1.22,-10.192 -11.004,-40.367 -37.914,-58.309 -9.785,-6.519 -23.648,-14.68 -57.898,-14.68 -59.938,0 -95.418,45.262 -95.418,106.833 0,66.058 31.808,118.652 102.348,118.652 61.57,0 91.742,-48.926 91.742,-124.36 -51.918,0 -103.836,0 -155.758,0 0,-44.445 20.793,-70.132 61.98,-70.132 33.84,0 53.817,26.093 55.039,41.996 11.961,0.004 23.926,0.004 35.879,0 z m -38.023,56.676 c -2.035,33.031 -15.899,63.609 -59.527,63.609 -33.024,0 -59.125,-30.578 -59.125,-63.609 39.554,0.003 79.109,0.003 118.652,0 z M 1209.49,793.973 c -11.96,0.004 -23.92,0.004 -35.88,0 0,43.765 0,87.535 0,131.297 0,37.105 -10.6,55.859 -45.67,55.859 -20.39,0 -56.27,-13.043 -56.27,-70.945 0,-38.735 0,-77.473 0,-116.211 -11.96,0.004 -23.92,0.004 -35.88,0 0,71.086 0,142.175 0,213.257 11.28,0 22.56,0 33.84,0 0,-10.062 0,-20.121 0,-30.175 0.28,0 0.55,0 0.82,0 7.75,11.414 27.73,36.285 64.42,36.285 33.03,0 74.62,-13.453 74.62,-74.203 0,-48.387 0,-96.774 0,-145.164" /><path
         id="path50"
         style="fill:#848182;fill-opacity:1;fill-rule:evenodd;stroke:none"
         d="m 407.449,786.012 c -91.133,0 -135.945,55.508 -153.422,113.5 19.735,-94.137 126.34,-186.289 462.684,-227.399 317.769,-38.836 524.859,58.532 594.709,103.844 0,0 47.2,20.766 18.88,-11.332 0,0 -200.12,-185.023 -592.823,-186.906 -392.7,-1.891 -704.2153,196.347 -702.3286,396.476 -1.8867,200.125 309.6286,398.365 702.3286,396.475 392.703,-1.89 592.823,-186.91 592.823,-186.91 28.32,-32.1 -18.88,-11.33 -18.88,-11.33 -69.85,45.31 -276.05,134.55 -594.709,103.84 -313.402,-30.21 -415.707,-136.69 -449.691,-208.44 -13.075,-27.6 -18.989,-53.64 -20.469,-79.865 8.469,68.445 51.012,149.165 160.898,149.165 124.473,0 162.559,-103.57 162.559,-175.56 0,-71.992 -38.086,-175.558 -162.559,-175.558 z m 1265.301,69.199 c 55.27,0.004 110.54,0.004 165.81,0 0,-20.125 0,-40.246 0,-60.375 -78.49,0 -156.98,0 -235.47,0 0,111.16 0,222.314 0,333.474 23.21,0 46.44,0 69.66,0 0,-91.04 0,-182.064 0,-273.099 z m -255.83,119.367 c 46.44,0 92.89,0 139.33,0 0,-59.91 0,-119.828 0,-179.742 -15.48,0 -30.96,0 -46.44,0 -2.32,13.934 -4.65,27.867 -6.97,41.797 -17.65,-20.434 -43.2,-50.621 -104.04,-50.621 -80.34,0 -153.26,57.59 -153.26,174.629 0,91.029 50.62,176.959 163.02,176.489 102.17,0 142.58,-66.41 146.3,-112.4 -23.22,0 -46.45,0 -69.67,0 0,13.01 -23.69,54.81 -72.92,54.81 -49.69,0 -95.68,-34.37 -95.68,-119.829 0,-91.031 49.7,-114.719 97.07,-114.719 15.34,0 66.43,6.039 80.82,73.387 -25.85,0 -51.71,0 -77.56,0 0,18.734 0,37.469 0,56.199 z M 407.449,1097.19 c -72.453,0 -116.109,-57.13 -116.109,-135.62 0,-78.488 43.656,-135.617 116.109,-135.617 72.457,0 116.114,57.129 116.114,135.617 0,78.49 -43.657,135.62 -116.114,135.62 z m 187.555,-89.1 c 11.285,0 22.562,0 33.84,0 0.004,-10.059 0.004,-20.117 0,-30.172 0.277,0 0.547,0 0.816,0 8.567,12.23 24.871,36.282 63.61,36.282 56.679,0 97.074,-48.032 97.074,-107.973 0,-50.973 -29.387,-117.508 -101.965,-117.508 -28.547,0 -47.301,13.453 -56.68,28.539 -0.269,0.004 -0.539,0.004 -0.816,0 0.004,-35.606 0.004,-71.215 0,-106.832 -11.957,0.004 -23.918,0.004 -35.879,0 0,99.226 0,198.445 0,297.664 z m 90.672,-188.383 c 39.14,0 65.676,33.918 65.676,80.809 0,27.32 -11.036,81.472 -66.493,81.472 -51.785,0 -57.492,-55.859 -57.492,-90.515 0,-56.68 35.473,-71.766 58.309,-71.766 z m 321.804,42 c -1.22,-10.195 -11.003,-40.371 -37.917,-58.312 -9.786,-6.524 -23.645,-14.676 -57.895,-14.676 -59.941,0 -95.414,45.258 -95.414,106.828 0,66.058 31.805,118.653 102.344,118.653 61.566,0 91.742,-48.927 91.742,-124.36 -51.914,0.004 -103.836,0.004 -155.758,0 0,-44.445 20.797,-70.133 61.981,-70.133 33.839,0 53.816,26.094 55.039,42 11.961,0.004 23.925,0.004 35.878,0 z m -38.023,56.676 c -2.039,33.027 -15.898,63.605 -59.523,63.605 -33.032,0 -59.125,-30.578 -59.125,-63.605 39.55,0.004 79.105,0.004 118.648,0 z M 1208.65,794.836 c -11.96,0 -23.92,0 -35.88,0 0,43.766 0,87.531 0,131.293 0,37.109 -10.6,55.859 -45.67,55.859 -20.39,0 -56.27,-13.043 -56.27,-70.945 0,-38.73 0,-77.469 0,-116.207 -11.96,0 -23.92,0 -35.88,0 0,71.086 0,142.172 0,213.254 11.28,0 22.56,0 33.84,0 0,-10.059 0,-20.117 0,-30.172 0.27,0 0.55,0 0.82,0 7.75,11.41 27.73,36.282 64.42,36.282 33.03,0 74.62,-13.45 74.62,-74.204 0,-48.387 0,-96.773 0,-145.16" /><path
         id="path52"
         style="fill:#7d7b7b;fill-opacity:1;fill-rule:evenodd;stroke:none"
         d="m 406.609,786.871 c -91.132,0 -135.945,55.508 -153.418,113.504 19.731,-94.141 126.336,-186.289 462.68,-227.398 317.769,-38.836 524.859,58.531 594.709,103.839 0,0 47.2,20.77 18.88,-11.324 0,0 -200.12,-185.023 -592.823,-186.91 C 343.938,576.691 32.418,774.926 34.3086,975.055 32.418,1175.18 343.938,1373.42 736.637,1371.53 c 392.703,-1.89 592.823,-186.91 592.823,-186.91 28.32,-32.1 -18.88,-11.33 -18.88,-11.33 -69.85,45.32 -276.05,134.56 -594.709,103.84 -313.406,-30.2 -415.707,-136.68 -449.691,-208.43 -13.078,-27.61 -18.989,-53.65 -20.469,-79.872 8.469,68.452 51.012,149.172 160.898,149.172 124.473,0 162.559,-103.58 162.559,-175.566 0,-71.989 -38.086,-175.563 -162.559,-175.563 z m 1265.301,69.203 c 55.27,0.004 110.54,0.004 165.81,0 0,-20.121 0,-40.25 0,-60.379 -78.49,0.004 -156.99,0.004 -235.48,0 0,111.164 0,222.315 0,333.475 23.23,0 46.45,0 69.67,0 0,-91.03 0,-182.061 0,-273.096 z m -255.83,119.364 c 46.44,0 92.89,0 139.33,0 0,-59.911 0,-119.825 0,-179.743 -15.48,0.004 -30.96,0.004 -46.44,0 -2.32,13.938 -4.65,27.871 -6.97,41.801 -17.65,-20.433 -43.19,-50.625 -104.04,-50.625 -80.35,0 -153.26,57.594 -153.26,174.637 0,91.032 50.62,176.952 163.02,176.492 102.17,0 142.58,-66.42 146.3,-112.4 -23.22,0 -46.45,0 -69.67,0 0,13 -23.69,54.8 -72.92,54.8 -49.69,0 -95.67,-34.37 -95.67,-119.822 0,-91.031 49.69,-114.723 97.07,-114.723 15.33,0 66.42,6.04 80.81,73.387 -25.85,0.004 -51.71,0.004 -77.56,0 0,18.735 0,37.469 0,56.196 z M 406.609,1098.05 c -72.453,0 -116.113,-57.13 -116.113,-135.616 0,-78.493 43.66,-135.618 116.113,-135.618 72.457,0 116.114,57.125 116.114,135.618 0,78.486 -43.657,135.616 -116.114,135.616 z m 187.551,-89.1 c 11.289,0 22.567,0 33.848,0 0,-10.059 0,-20.114 0,-30.173 0.273,0 0.543,0 0.812,0 8.567,12.231 24.875,36.293 63.614,36.293 56.675,0 97.066,-48.043 97.066,-107.984 0,-50.965 -29.383,-117.508 -101.965,-117.508 -28.539,0 -47.297,13.457 -56.676,28.543 -0.269,0.004 -0.539,0.004 -0.816,0 0.004,-35.605 0.004,-71.219 0,-106.828 -11.957,0.004 -23.918,0.004 -35.883,0 0.004,99.219 0.004,198.445 0,297.657 z m 90.676,-188.38 c 39.144,0 65.676,33.918 65.676,80.813 0,27.316 -11.035,81.472 -66.492,81.472 -51.786,0 -57.497,-55.859 -57.497,-90.519 0,-56.68 35.477,-71.766 58.313,-71.766 z m 321.814,42 c -1.23,-10.195 -11.013,-40.371 -37.923,-58.308 -9.786,-6.524 -23.649,-14.684 -57.899,-14.684 -59.937,0 -95.414,45.262 -95.414,106.832 0,66.059 31.805,118.66 102.344,118.66 61.57,0 91.742,-48.933 91.742,-124.367 -51.914,0.004 -103.836,0.004 -155.758,0 0,-44.445 20.797,-70.133 61.977,-70.133 33.84,0 53.82,26.098 55.043,42 11.961,0 23.922,0 35.888,0 z m -38.033,56.676 c -2.039,33.027 -15.898,63.609 -59.527,63.609 -33.027,0 -59.121,-30.582 -59.121,-63.609 39.551,0 79.101,0 118.648,0 z M 1207.81,795.695 c -11.96,0.004 -23.92,0.004 -35.88,0 0,43.77 0,87.535 0,131.301 0,37.106 -10.6,55.859 -45.67,55.859 -20.39,0 -56.27,-13.046 -56.27,-70.949 0,-38.734 0,-77.472 0,-116.211 -11.96,0.004 -23.92,0.004 -35.88,0 0,71.09 0,142.176 0,213.255 11.28,0 22.56,0 33.84,0 0,-10.059 0,-20.114 0,-30.173 0.27,0 0.54,0 0.82,0 7.75,11.414 27.72,36.293 64.42,36.293 33.03,0 74.62,-13.46 74.62,-74.211 0,-48.386 0,-96.773 0,-145.164" /><path
         id="path54"
         style="fill:#777475;fill-opacity:1;fill-rule:evenodd;stroke:none"
         d="m 405.77,787.738 c -91.133,0 -135.946,55.508 -153.418,113.5 19.726,-94.136 126.332,-186.289 462.679,-227.398 317.769,-38.836 524.859,58.531 594.719,103.844 0,0 47.2,20.765 18.88,-11.332 0,0 -200.13,-185.024 -592.829,-186.907 C 343.098,577.555 31.5781,775.793 33.4688,975.922 31.5781,1176.04 343.098,1374.29 735.801,1372.39 c 392.699,-1.88 592.829,-186.91 592.829,-186.91 28.32,-32.09 -18.88,-11.32 -18.88,-11.32 -69.86,45.31 -276.06,134.55 -594.719,103.84 -313.406,-30.21 -415.707,-136.7 -449.691,-208.44 -13.078,-27.61 -18.988,-53.64 -20.469,-79.869 8.469,68.449 51.016,149.169 160.899,149.169 124.472,0 162.554,-103.57 162.554,-175.563 0,-71.992 -38.082,-175.559 -162.554,-175.559 z m 1265.3,69.2 c 55.27,0.003 110.54,0.003 165.81,0 0,-20.125 0,-40.247 0,-60.375 -78.49,0 -156.99,0 -235.48,0 0,111.16 0,222.317 0,333.477 23.23,0 46.45,0 69.67,0 0,-91.04 0,-182.067 0,-273.102 z m -255.83,119.367 c 46.44,0 92.89,0 139.33,0 0,-59.91 0,-119.828 0,-179.742 -15.48,0 -30.96,0 -46.44,0 -2.33,13.933 -4.65,27.867 -6.97,41.796 -17.65,-20.433 -43.2,-50.621 -104.04,-50.621 -80.35,0 -153.26,57.59 -153.26,174.629 0,91.033 50.62,176.953 163.02,176.493 102.18,0 142.58,-66.42 146.3,-112.4 -23.22,0 -46.45,0 -69.67,0 0,13 -23.69,54.81 -72.92,54.81 -49.7,0 -95.67,-34.38 -95.67,-119.832 0,-91.032 49.69,-114.719 97.07,-114.719 15.32,0 66.41,6.039 80.81,73.383 -25.85,0.003 -51.71,0.003 -77.56,0 0,18.734 0,37.472 0,56.203 z M 405.77,1098.91 c -72.457,0 -116.114,-57.12 -116.114,-135.613 0,-78.492 43.657,-135.617 116.114,-135.617 72.453,0 116.113,57.125 116.113,135.617 0,78.493 -43.66,135.613 -116.113,135.613 z m 187.55,-89.1 c 11.285,0 22.567,0 33.848,0 0.004,-10.052 0.004,-20.115 0,-30.169 0.273,0 0.543,0 0.812,0 8.563,12.234 24.872,36.289 63.61,36.289 56.68,0 97.074,-48.035 97.074,-107.977 0,-50.973 -29.387,-117.508 -101.965,-117.508 -28.543,0 -47.304,13.453 -56.676,28.539 -0.273,0.004 -0.546,0.004 -0.82,0 0.004,-35.605 0.004,-71.218 0,-106.832 -11.957,0.004 -23.918,0.004 -35.883,0 0.004,99.227 0.004,198.446 0,297.658 z m 90.676,-188.376 c 39.145,0 65.672,33.918 65.672,80.808 0,27.321 -11.035,81.473 -66.492,81.473 -51.781,0 -57.492,-55.86 -57.492,-90.516 0,-56.679 35.476,-71.765 58.312,-71.765 z m 321.804,42 c -1.22,-10.196 -11.003,-40.371 -37.917,-58.313 -9.781,-6.523 -23.645,-14.676 -57.895,-14.676 -59.937,0 -95.418,45.258 -95.418,106.828 0,66.059 31.809,118.657 102.348,118.657 61.57,0 91.742,-48.93 91.742,-124.364 -51.914,0.004 -103.836,0.004 -155.758,0 0,-44.445 20.793,-70.132 61.981,-70.132 33.84,0 53.816,26.093 55.039,42 11.961,0.004 23.926,0.004 35.878,0 z m -38.023,56.675 c -2.035,33.028 -15.898,63.606 -59.527,63.606 -33.027,0 -59.125,-30.578 -59.125,-63.606 39.555,0.004 79.105,0.004 118.652,0 z M 1206.97,796.563 c -11.96,0 -23.92,0 -35.88,0 0,43.765 0,87.531 0,131.292 0,37.11 -10.61,55.86 -45.67,55.86 -20.39,0 -56.27,-13.043 -56.27,-70.945 0,-38.731 0,-77.469 0,-116.207 -11.96,0 -23.92,0 -35.88,0 0,71.085 0,142.171 0,213.247 11.28,0 22.56,0 33.84,0 0,-10.052 0,-20.115 0,-30.169 0.28,0 0.54,0 0.82,0 7.74,11.414 27.73,36.289 64.42,36.289 33.03,0 74.62,-13.45 74.62,-74.211 0,-48.383 0,-96.77 0,-145.156" /><path
         id="path56"
         style="fill:#706d6e;fill-opacity:1;fill-rule:evenodd;stroke:none"
         d="m 404.93,788.598 c -91.133,0 -135.946,55.507 -153.422,113.504 19.734,-94.141 126.34,-186.289 462.683,-227.399 317.769,-38.836 524.859,58.527 594.709,103.84 0,0 47.2,20.77 18.89,-11.324 0,0 -200.13,-185.024 -592.833,-186.91 C 342.258,578.418 30.7422,776.652 32.6289,976.781 30.7422,1176.91 342.258,1375.14 734.957,1373.26 c 392.703,-1.89 592.833,-186.91 592.833,-186.91 28.31,-32.1 -18.89,-11.33 -18.89,-11.33 -69.85,45.31 -276.05,134.55 -594.709,103.84 -313.406,-30.21 -415.707,-136.69 -449.691,-208.44 -13.078,-27.6 -18.988,-53.64 -20.469,-79.865 8.469,68.445 51.012,149.165 160.899,149.165 124.472,0 162.558,-103.57 162.558,-175.56 0,-71.988 -38.086,-175.562 -162.558,-175.562 z m 1265.3,69.203 c 55.27,0.004 110.54,0.004 165.81,0 0,-20.121 0,-40.25 0,-60.379 -78.49,0.004 -156.99,0.004 -235.47,0 0,111.164 0,222.318 0,333.468 23.22,0 46.44,0 69.66,0 0,-91.03 0,-182.054 0,-273.089 z M 1414.4,977.164 c 46.44,0 92.89,0 139.33,0 0,-59.91 0,-119.824 0,-179.742 -15.48,0.004 -30.96,0.004 -46.44,0 -2.33,13.937 -4.65,27.871 -6.97,41.801 -17.65,-20.434 -43.19,-50.625 -104.04,-50.625 -80.35,0 -153.26,57.593 -153.26,174.636 0,91.026 50.62,176.946 163.02,176.486 102.17,0 142.58,-66.42 146.3,-112.4 -23.22,0 -46.45,0 -69.67,0 0,13.01 -23.69,54.81 -72.92,54.81 -49.7,0 -95.68,-34.37 -95.68,-119.825 0,-91.035 49.7,-114.723 97.07,-114.723 15.34,0 66.42,6.039 80.82,73.387 -25.85,0.004 -51.71,0.004 -77.56,0 0,18.734 0,37.469 0,56.195 z M 404.93,1099.78 c -72.453,0 -116.11,-57.13 -116.11,-135.62 0,-78.492 43.657,-135.617 116.11,-135.617 72.457,0 116.113,57.125 116.113,135.617 0,78.49 -43.656,135.62 -116.113,135.62 z m 187.554,-89.1 c 11.282,0 22.563,0 33.84,0 0.004,-10.06 0.004,-20.121 0,-30.176 0.278,0 0.547,0 0.817,0 8.566,12.23 24.871,36.286 63.609,36.286 56.676,0 97.074,-48.036 97.074,-107.977 0,-50.965 -29.386,-117.508 -101.965,-117.508 -28.546,0 -47.3,13.457 -56.679,28.543 -0.27,0.004 -0.543,0.004 -0.817,0 0.004,-35.606 0.004,-71.219 0,-106.828 -11.957,0 -23.918,0 -35.879,0 0,99.218 0,198.445 0,297.66 z m 90.672,-188.383 c 39.141,0 65.676,33.918 65.676,80.808 0,27.321 -11.035,81.477 -66.492,81.477 -51.785,0 -57.492,-55.859 -57.492,-90.519 0,-56.68 35.472,-71.766 58.308,-71.766 z m 321.804,42 c -1.22,-10.195 -11.003,-40.371 -37.917,-58.313 -9.785,-6.519 -23.645,-14.679 -57.895,-14.679 -59.941,0 -95.414,45.261 -95.414,106.832 0,66.058 31.805,118.653 102.344,118.653 61.567,0 91.742,-48.927 91.742,-124.36 -51.914,0.004 -103.836,0.004 -155.757,0 0,-44.446 20.796,-70.133 61.98,-70.133 33.84,0 53.816,26.094 55.039,42 11.961,0 23.926,0 35.878,0 z m -38.022,56.676 c -2.036,33.027 -15.899,63.609 -59.528,63.609 -33.027,0 -59.125,-30.582 -59.125,-63.609 39.555,0 79.106,0 118.653,0 z M 1206.13,797.422 c -11.96,0.004 -23.92,0.004 -35.88,0 0,43.769 0,87.535 0,131.301 0,37.105 -10.6,55.859 -45.67,55.859 -20.39,0 -56.27,-13.047 -56.27,-70.949 0,-38.735 0,-77.473 0,-116.211 -11.96,0.004 -23.92,0.004 -35.88,0 0,71.09 0,142.176 0,213.258 11.28,0 22.56,0 33.84,0 0,-10.06 0,-20.121 0,-30.176 0.27,0 0.55,0 0.82,0 7.75,11.414 27.73,36.286 64.42,36.286 33.03,0 74.62,-13.45 74.62,-74.204 0,-48.387 0,-96.773 0,-145.164" /><path
         id="path58"
         style="fill:#6c696a;fill-opacity:1;fill-rule:evenodd;stroke:none"
         d="m 404.09,789.461 c -91.133,0 -135.949,55.508 -153.422,113.5 19.734,-94.137 126.34,-186.289 462.684,-227.398 317.778,-38.836 524.858,58.531 594.708,103.843 0,0 47.2,20.766 18.89,-11.332 0,0 -200.13,-185.019 -592.833,-186.906 C 341.418,579.277 29.8984,777.516 31.7852,977.645 29.8984,1177.77 341.418,1376.01 734.117,1374.12 c 392.703,-1.89 592.833,-186.91 592.833,-186.91 28.31,-32.1 -18.89,-11.33 -18.89,-11.33 -69.85,45.31 -276.05,134.55 -594.708,103.84 -313.407,-30.21 -415.707,-136.69 -449.692,-208.43 -13.078,-27.61 -18.988,-53.65 -20.469,-79.876 8.469,68.456 51.012,149.166 160.899,149.166 124.473,0 162.558,-103.57 162.558,-175.56 0,-71.989 -38.085,-175.559 -162.558,-175.559 z m 1265.3,69.203 c 55.27,0 110.54,0 165.81,0 0,-20.129 0,-40.25 0,-60.379 -78.49,0.004 -156.99,0.004 -235.48,0 0,111.16 0,222.315 0,333.475 23.23,0 46.45,0 69.67,0 0,-91.04 0,-182.065 0,-273.096 z m -255.83,119.363 c 46.44,0 92.89,0 139.33,0 0,-59.91 0,-119.828 0,-179.742 -15.48,0.004 -30.96,0.004 -46.44,0 -2.32,13.934 -4.65,27.867 -6.97,41.801 -17.65,-20.438 -43.19,-50.625 -104.03,-50.625 -80.36,0 -153.27,57.59 -153.27,174.633 0,91.036 50.62,176.956 163.02,176.486 102.18,0 142.59,-66.41 146.3,-112.4 -23.22,0 -46.45,0 -69.67,0 0,13.01 -23.69,54.81 -72.92,54.81 -49.69,0 -95.67,-34.37 -95.67,-119.83 0,-91.031 49.69,-114.715 97.06,-114.715 15.34,0 66.43,6.035 80.82,73.383 -25.85,0 -51.71,0 -77.56,0 0,18.735 0,37.469 0,56.199 z M 404.09,1100.64 c -72.453,0 -116.113,-57.13 -116.113,-135.62 0,-78.489 43.66,-135.618 116.113,-135.618 72.457,0 116.113,57.129 116.113,135.618 0,78.49 -43.656,135.62 -116.113,135.62 z m 187.551,-89.1 c 11.289,0 22.566,0 33.847,0 0,-10.06 0,-20.118 0,-30.177 0.274,0 0.543,0 0.813,0 8.566,12.235 24.875,36.297 63.613,36.297 56.676,0 97.066,-48.043 97.066,-107.984 0,-50.969 -29.382,-117.508 -101.964,-117.508 -28.539,0 -47.297,13.457 -56.676,28.543 -0.27,0 -0.539,0 -0.817,0 0.004,-35.609 0.004,-71.219 0,-106.832 -11.957,0 -23.918,0 -35.882,0 0.004,99.223 0.004,198.445 0,297.661 z m 90.675,-188.38 c 39.145,0 65.676,33.914 65.676,80.805 0,27.32 -11.039,81.473 -66.492,81.473 -51.785,0 -57.496,-55.86 -57.496,-90.516 0,-56.68 35.476,-71.762 58.312,-71.762 z m 321.814,41.996 c -1.23,-10.191 -11.013,-40.371 -37.923,-58.312 -9.789,-6.52 -23.648,-14.676 -57.898,-14.676 -59.942,0 -95.414,45.262 -95.414,106.832 0,66.055 31.804,118.66 102.343,118.66 61.571,0 91.742,-48.937 91.742,-124.371 -51.914,0.004 -103.835,0.004 -155.757,0 0,-44.441 20.797,-70.129 61.976,-70.129 33.84,0 53.821,26.09 55.043,41.996 11.961,0.004 23.922,0.004 35.888,0 z m -38.028,56.676 c -2.039,33.031 -15.903,63.606 -59.532,63.606 -33.027,0 -59.121,-30.575 -59.121,-63.606 39.551,0.004 79.102,0.004 118.653,0 z M 1205.29,798.285 c -11.96,0.004 -23.92,0.004 -35.88,0 0,43.766 0,87.535 0,131.293 0,37.11 -10.6,55.86 -45.67,55.86 -20.39,0 -56.27,-13.043 -56.27,-70.946 0,-38.73 0,-77.469 0,-116.207 -11.96,0.004 -23.92,0.004 -35.88,0 0,71.086 0,142.172 0,213.255 11.28,0 22.56,0 33.84,0 0,-10.06 0,-20.118 0,-30.177 0.27,0 0.54,0 0.82,0 7.74,11.414 27.72,36.297 64.42,36.297 33.03,0 74.62,-13.46 74.62,-74.215 0,-48.386 0,-96.773 0,-145.16" /><path
         id="path60"
         style="fill:#656263;fill-opacity:1;fill-rule:evenodd;stroke:none"
         d="m 403.246,790.32 c -91.133,0 -135.945,55.508 -153.418,113.5 19.731,-94.136 126.336,-186.285 462.684,-227.394 317.778,-38.836 524.858,58.527 594.708,103.84 0,0 47.21,20.765 18.88,-11.328 0,0 -200.12,-185.024 -592.823,-186.907 C 340.574,580.141 29.0586,778.375 30.9453,978.504 29.0586,1178.63 340.574,1376.87 733.277,1374.98 c 392.703,-1.89 592.823,-186.91 592.823,-186.91 28.33,-32.1 -18.88,-11.33 -18.88,-11.33 -69.85,45.31 -276.05,134.56 -594.708,103.84 -313.41,-30.2 -415.711,-136.69 -449.692,-208.43 -13.082,-27.61 -18.992,-53.65 -20.468,-79.869 8.464,68.449 51.011,149.169 160.894,149.169 124.473,0 162.559,-103.58 162.559,-175.571 0,-71.988 -38.086,-175.559 -162.559,-175.559 z m 1265.304,69.2 h 165.81 v -60.375 h -235.48 v 333.475 h 69.67 z m -255.83,119.367 h 139.33 V 799.145 h -46.44 l -6.97,41.796 c -17.65,-20.433 -43.19,-50.621 -104.04,-50.621 -80.35,0 -153.26,57.59 -153.26,174.633 0,91.027 50.62,176.957 163.02,176.497 102.18,0 142.59,-66.42 146.3,-112.4 h -69.67 c 0,13 -23.69,54.8 -72.92,54.8 -49.69,0 -95.67,-34.37 -95.67,-119.827 0,-91.031 49.69,-114.722 97.07,-114.722 15.32,0 66.41,6.043 80.81,73.387 h -77.56 z M 403.246,1101.5 c -72.453,0 -116.113,-57.13 -116.113,-135.621 0,-78.488 43.66,-135.617 116.113,-135.617 72.453,0 116.113,57.129 116.113,135.617 0,78.491 -43.66,135.621 -116.113,135.621 z m 187.551,-89.1 h 33.848 v -30.173 h 0.812 c 8.566,12.234 24.871,36.293 63.609,36.293 56.68,0 97.075,-48.043 97.075,-107.985 0,-50.969 -29.383,-117.508 -101.965,-117.508 -28.543,0 -47.301,13.453 -56.676,28.543 h -0.82 V 714.738 h -35.883 z m 90.676,-188.384 c 39.144,0 65.675,33.918 65.675,80.812 0,27.32 -11.039,81.477 -66.492,81.477 -51.781,0 -57.496,-55.864 -57.496,-90.524 0,-56.676 35.477,-71.765 58.313,-71.765 z m 321.817,42 c -1.23,-10.192 -11.013,-40.368 -37.927,-58.309 -9.785,-6.523 -23.648,-14.68 -57.898,-14.68 -59.938,0 -95.418,45.262 -95.418,106.832 0,66.059 31.808,118.661 102.348,118.661 61.574,0 91.745,-48.934 91.745,-124.372 H 850.379 c 0,-44.441 20.793,-70.132 61.98,-70.132 33.84,0 53.821,26.097 55.043,42 z m -38.036,56.679 c -2.035,33.028 -15.899,63.61 -59.527,63.61 -33.024,0 -59.125,-30.582 -59.125,-63.61 z m 239.196,-123.55 h -35.88 v 131.296 c 0,37.106 -10.61,55.864 -45.67,55.864 -20.39,0 -56.27,-13.047 -56.27,-70.95 v -116.21 h -35.88 V 1012.4 h 33.84 v -30.173 h 0.82 c 7.74,11.418 27.73,36.293 64.42,36.293 33.03,0 74.62,-13.46 74.62,-74.215 v -145.16" /><path
         id="path62"
         style="fill:#4386b5;fill-opacity:1;fill-rule:evenodd;stroke:none"
         d="m 403.246,790.32 c -91.133,0 -135.945,55.508 -153.418,113.5 19.731,-94.136 126.336,-186.285 462.684,-227.394 317.778,-38.836 524.858,58.527 594.708,103.84 0,0 47.21,20.765 18.88,-11.328 0,0 -200.12,-185.024 -592.823,-186.907 C 340.574,580.141 29.0586,778.375 30.9453,978.504 29.0586,1178.63 340.574,1376.87 733.277,1374.98 c 392.703,-1.89 592.823,-186.91 592.823,-186.91 28.33,-32.1 -18.88,-11.33 -18.88,-11.33 -69.85,45.31 -276.05,134.56 -594.708,103.84 -313.41,-30.2 -415.711,-136.69 -449.692,-208.43 -13.082,-27.61 -18.992,-53.65 -20.468,-79.869 8.464,68.449 51.011,149.169 160.894,149.169 124.473,0 162.559,-103.58 162.559,-175.571 0,-71.988 -38.086,-175.559 -162.559,-175.559 z m 1265.304,69.2 h 165.81 v -60.375 h -235.48 v 333.475 h 69.67 z m -255.83,119.367 h 139.33 V 799.145 h -46.44 l -6.97,41.796 c -17.65,-20.433 -43.19,-50.621 -104.04,-50.621 -80.35,0 -153.26,57.59 -153.26,174.633 0,91.027 50.62,176.957 163.02,176.497 102.18,0 142.59,-66.42 146.3,-112.4 h -69.67 c 0,13 -23.69,54.8 -72.92,54.8 -49.69,0 -95.67,-34.37 -95.67,-119.827 0,-91.031 49.69,-114.722 97.07,-114.722 15.32,0 66.41,6.043 80.81,73.387 h -77.56 z M 403.246,1101.5 c -72.453,0 -116.113,-57.13 -116.113,-135.621 0,-78.488 43.66,-135.617 116.113,-135.617 72.453,0 116.113,57.129 116.113,135.617 0,78.491 -43.66,135.621 -116.113,135.621 z m 187.551,-89.1 h 33.848 v -30.173 h 0.812 c 8.566,12.234 24.871,36.293 63.609,36.293 56.68,0 97.075,-48.043 97.075,-107.985 0,-50.969 -29.383,-117.508 -101.965,-117.508 -28.543,0 -47.301,13.453 -56.676,28.543 h -0.82 V 714.738 h -35.883 z m 90.676,-188.384 c 39.144,0 65.675,33.918 65.675,80.812 0,27.32 -11.039,81.477 -66.492,81.477 -51.781,0 -57.496,-55.864 -57.496,-90.524 0,-56.676 35.477,-71.765 58.313,-71.765 z m 321.817,42 c -1.23,-10.192 -11.013,-40.368 -37.927,-58.309 -9.785,-6.523 -23.648,-14.68 -57.898,-14.68 -59.938,0 -95.418,45.262 -95.418,106.832 0,66.059 31.808,118.661 102.348,118.661 61.574,0 91.745,-48.934 91.745,-124.372 H 850.379 c 0,-44.441 20.793,-70.132 61.98,-70.132 33.84,0 53.821,26.097 55.043,42 z m -38.036,56.679 c -2.035,33.028 -15.899,63.61 -59.527,63.61 -33.024,0 -59.125,-30.582 -59.125,-63.61 z m 239.196,-123.55 h -35.88 v 131.296 c 0,37.106 -10.61,55.864 -45.67,55.864 -20.39,0 -56.27,-13.047 -56.27,-70.95 v -116.21 h -35.88 V 1012.4 h 33.84 v -30.173 h 0.82 c 7.74,11.418 27.73,36.293 64.42,36.293 33.03,0 74.62,-13.46 74.62,-74.215 v -145.16" /></g></g></svg>