<?xml version="1.0" encoding="UTF-8" standalone="no"?>
<svg
   xmlns:dc="http://purl.org/dc/elements/1.1/"
   xmlns:cc="http://creativecommons.org/ns#"
   xmlns:rdf="http://www.w3.org/1999/02/22-rdf-syntax-ns#"
   xmlns:svg="http://www.w3.org/2000/svg"
   xmlns="http://www.w3.org/2000/svg"
   viewBox="0 0 2355.5867 3324.9067"
   height="3324.9067"
   width="2355.5867"
   xml:space="preserve"
   id="svg2"
   version="1.1"><metadata
     id="metadata8"><rdf:RDF><cc:Work
         rdf:about=""><dc:format>image/svg+xml</dc:format><dc:type
           rdf:resource="http://purl.org/dc/dcmitype/StillImage" /></cc:Work></rdf:RDF></metadata><defs
     id="defs6" /><g
     transform="matrix(1.3333333,0,0,-1.3333333,0,3324.9067)"
     id="g10"><g
       transform="scale(0.1)"
       id="g12"><g
         transform="scale(1.22921)"
         id="g14"><path
           id="path16"
           style="fill:#4353ad;fill-opacity:1;fill-rule:nonzero;stroke:none"
           d="M 7177.5,0 1308.01,1629.42 0,16300 H 14372.6 L 13063.2,1631.62 7177.5,0 v 0" /></g><g
         transform="scale(1.13875)"
         id="g18"><path
           id="path20"
           style="fill:#485fb5;fill-opacity:1;fill-rule:nonzero;stroke:none"
           d="M 12890.9,2769.52 14098.6,16300 H 7757.13 V 1346.3 l 5133.77,1423.22 v 0" /></g><g
         transform="scale(1.00306)"
         id="g22"><path
           id="path24"
           style="fill:#ededed;fill-opacity:1;fill-rule:nonzero;stroke:none"
           d="m 8806.49,6110.6 -9.67,-2.5 -2455.63,663.07 -157,1758.52 H 3970.74 l 308.89,-3462.1 4516.72,-1253.86 10.14,2.79 z M 3277.51,16300 3477.94,14095.1 H 8806.49 V 16300 H 3277.51 Z m 397.11,-4462.8 197.6,-2204.98 H 8806.49 V 11837.2 H 3674.62" /></g><g
         transform="scale(1.52987)"
         id="g26"><path
           id="path28"
           style="fill:#100f0d;fill-opacity:1;fill-rule:nonzero;stroke:none"
           d="m 6920.09,16300 h 1751 v -636.7 H 7652.38 v -127.4 h 1018.71 v -1464.4 h -1751 v 668.6 h 1018.78 v 127.3 H 6920.15 V 16300 Z m -2101.17,0 h 1750.94 v -636.7 h -1018.7 v -127.4 h 1018.7 V 14071.5 H 4818.97 v 668.6 H 5837.7 v 127.3 H 4818.88 V 16300 Z m -2101.15,0 h 1750.92 v -732.2 H 3450.01 v -732.3 h 1018.77 v -732.2 H 2717.77 V 16300" /></g><g
         transform="scale(1.00306)"
         id="g30"><path
           id="path32"
           style="fill:#ffffff;fill-opacity:1;fill-rule:nonzero;stroke:none"
           d="m 13924.3,11837.2 398,4462.8 H 8798.9 v -2204.9 h 3107 l -200.6,-2257.9 H 8798.9 V 9632.22 h 2715.2 L 11258,6772.47 8798.83,6108.8 V 3814.82 l 4520.27,1252.77 33.1,372.46 518.3,5805.05 53.8,592.1 v 0" /></g></g></g></svg>