<?xml version="1.0" standalone="no"?>
<!DOCTYPE svg PUBLIC "-//W3C//DTD SVG 20010904//EN"
 "http://www.w3.org/TR/2001/REC-SVG-20010904/DTD/svg10.dtd">
<svg version="1.0" xmlns="http://www.w3.org/2000/svg"
 width="800.000000pt" height="800.000000pt" viewBox="0 0 800.000000 800.000000"
 preserveAspectRatio="xMidYMid meet">
<metadata>
Created by potrace 1.11, written by Peter Selinger 2001-2013
</metadata>
<g transform="translate(0.000000,800.000000) scale(0.100000,-0.100000)"
fill="#000000" stroke="none">
<path d="M2947 6613 c-4 -4 -206 -58 -290 -78 -10 -2 -27 -7 -37 -10 -10 -3
-27 -8 -37 -10 -24 -5 -217 -55 -388 -101 -77 -20 -156 -40 -175 -45 -19 -4
-105 -26 -190 -49 -157 -42 -579 -151 -680 -176 -30 -7 -75 -20 -100 -28 -25
-7 -47 -14 -50 -14 -3 0 -25 -5 -50 -12 -25 -7 -52 -13 -60 -15 -76 -16 -150
-40 -150 -49 0 -6 20 -41 45 -78 25 -37 45 -72 45 -78 0 -5 4 -10 8 -10 5 0
14 -10 21 -22 14 -29 28 -51 125 -201 44 -67 98 -151 122 -187 23 -36 80 -125
128 -198 47 -73 86 -135 86 -138 0 -3 -9 -3 -19 1 -11 3 -28 8 -38 10 -10 2
-81 20 -158 40 -77 20 -236 61 -354 91 -117 30 -216 53 -219 49 -9 -8 17 -30
68 -57 25 -13 56 -31 70 -39 14 -9 129 -75 255 -147 293 -166 278 -157 425
-241 69 -39 132 -76 140 -81 8 -6 22 -13 30 -17 8 -3 29 -16 46 -29 29 -21 32
-29 33 -81 1 -32 3 -84 6 -115 2 -31 6 -119 10 -195 3 -76 8 -167 10 -203 2
-36 6 -123 10 -195 3 -71 8 -166 10 -210 3 -44 7 -129 10 -190 3 -60 7 -150
10 -200 3 -49 8 -130 10 -180 2 -49 6 -139 10 -200 3 -60 8 -148 10 -195 9
-186 16 -306 20 -326 5 -23 51 -42 380 -164 77 -28 149 -55 160 -60 11 -4 45
-17 75 -28 30 -11 84 -32 120 -45 36 -14 110 -42 165 -62 55 -20 109 -40 120
-45 11 -5 47 -18 80 -30 33 -11 69 -25 80 -30 11 -5 54 -21 95 -36 134 -48
150 -54 349 -129 356 -133 632 -235 637 -235 3 0 20 -6 37 -14 102 -43 304
-116 325 -116 18 0 46 18 499 304 148 94 336 212 418 264 83 52 179 114 215
137 36 23 94 60 130 83 36 23 70 46 77 52 7 5 15 10 18 10 3 0 33 18 65 40 32
22 61 40 64 40 2 0 37 22 78 48 80 53 189 123 298 192 38 24 73 52 76 62 3 10
7 57 10 106 7 160 14 306 19 407 3 55 7 141 10 190 2 50 6 135 9 190 3 55 8
154 11 220 3 66 7 154 10 195 3 41 7 134 10 205 3 72 8 153 10 180 2 28 7 120
11 205 4 85 8 175 9 200 2 25 4 58 4 74 1 38 19 55 336 331 38 33 76 67 85 75
9 8 45 40 80 70 35 30 71 62 80 70 18 17 136 121 188 166 18 16 52 46 75 66
23 21 86 75 139 120 83 71 115 108 93 108 -5 0 -97 -37 -160 -65 -16 -7 -95
-41 -175 -75 -80 -34 -158 -67 -175 -75 -93 -41 -175 -73 -175 -69 0 3 66 114
146 246 80 132 142 244 137 249 -5 5 -26 11 -48 14 -22 4 -51 8 -65 11 -23 4
-70 13 -155 28 -73 13 -334 56 -370 61 -22 3 -46 8 -54 11 -8 2 -30 7 -50 10
-20 3 -115 19 -211 36 -96 16 -184 31 -195 33 -53 8 -281 47 -383 65 -62 12
-125 23 -140 25 -15 2 -83 13 -152 25 -69 12 -136 23 -150 26 -14 2 -35 6 -46
8 -12 2 -39 7 -60 10 -22 4 -46 9 -54 11 -8 3 -37 7 -63 9 -26 3 -51 7 -55 10
-4 2 -27 7 -52 10 -25 3 -58 9 -75 11 -35 7 -126 22 -171 30 -30 5 -34 1 -87
-78 -54 -81 -397 -579 -557 -809 -44 -64 -86 -131 -92 -149 l-11 -32 -16 31
c-29 57 -776 1171 -788 1176 -6 2 -13 2 -16 -1z"/>
</g>
</svg>
