<?xml version="1.0" encoding="UTF-8"?>
<svg style="max-width: 800px; padding: 10px 0" viewBox="0 0 665 113" version="1.1" xmlns="http://www.w3.org/2000/svg" xmlns:xlink="http://www.w3.org/1999/xlink">
    <defs>
        <polygon id="path-1" points="0 0 75 0 75 12.7439539 0 12.7439539"></polygon>
        <polygon id="path-3" points="3.55271368e-15 0 49 0 49 9.53409385 3.55271368e-15 9.53409385"></polygon>
        <polygon id="path-5" points="-3.55271368e-15 0 39 0 39 9.53410385 -3.55271368e-15 9.53410385"></polygon>
        <polygon id="path-7" points="0 0 56 0 56 9.53410385 0 9.53410385"></polygon>
        <polygon id="path-9" points="7.10542736e-15 0 20 0 20 10.9400931 7.10542736e-15 10.9400931"></polygon>
        <polygon id="path-11" points="0 0 31 0 31 10.9400931 0 10.9400931"></polygon>
        <polygon id="path-13" points="0 0 31 0 31 10.9400931 0 10.9400931"></polygon>
        <polygon id="path-15" points="0 0 31 0 31 10.9400931 0 10.9400931"></polygon>
        <polygon id="path-17" points="0 0 30.71 0 30.71 10.9400931 0 10.9400931"></polygon>
        <polygon id="path-19" points="0 0 31 0 31 9.37074385 0 9.37074385"></polygon>
        <polygon id="path-21" points="0 0 43 0 43 8.82594385 0 8.82594385"></polygon>
        <polygon id="path-23" points="0 0 49 0 49 9.28115385 0 9.28115385"></polygon>
    </defs>
    <g id="Page-1" stroke="none" stroke-width="1" fill="none" fill-rule="evenodd">
        <g id="Group-42">
            <g id="Group-2" transform="translate(321.315500, 0.000000)">
                <text id="Performance" font-family="HelveticaNeue-Bold, Helvetica Neue" font-size="12" font-weight="bold" fill="currentColor">
                    <tspan x="0" y="9.74395389">Performance</tspan>
                </text>
            </g>
            <g id="Group-13" transform="translate(67.500000, 26.051230)">
                <line x1="145.5" y1="0.5" x2="145.5" y2="72.5" id="Stroke-3" stroke="#B8B8B8" stroke-width="0.5"></line>
                <line x1="290.5" y1="0.5" x2="290.5" y2="72.5" id="Stroke-5" stroke="#B8B8B8" stroke-width="0.5"></line>
                <line x1="435.5" y1="0.5" x2="435.5" y2="72.5" id="Stroke-7" stroke="#B8B8B8" stroke-width="0.5"></line>
                <line x1="580.5" y1="0.5" x2="580.5" y2="72.5" id="Stroke-9" stroke="#B8B8B8" stroke-width="0.5"></line>
                <line x1="0.5" y1="73" x2="0.5" y2="0" id="Stroke-11" stroke="#000000" stroke-linecap="square"></line>
            </g>
            <g id="Group-15" transform="translate(7.535000, 31.631660)">
                <text id="CSSNano" font-family="HelveticaNeue, Helvetica Neue" font-size="11" font-weight="normal" fill="currentColor">
                    <tspan x="3.55271368e-15" y="10">CSSNano</tspan>
                </text>
            </g>
            <g id="Group-17" transform="translate(17.105000, 55.843110)">
                <text id="ESBuild" font-family="HelveticaNeue, Helvetica Neue" font-size="11" font-weight="normal" fill="currentColor">
                    <tspan x="-3.55271368e-15" y="10">ESBuild</tspan>
                </text>
            </g>
            <g id="Group-19" transform="translate(0.000000, 80.054570)">
                <text id="Parcel-CSS" font-family="HelveticaNeue, Helvetica Neue" font-size="11" font-weight="normal" fill="currentColor">
                    <tspan x="0" y="10">Parcel CSS</tspan>
                </text>
            </g>
            <g id="Group-21" transform="translate(58.874460, 101.831270)">
                <text id="0ms" font-family="HelveticaNeue, Helvetica Neue" font-size="10" font-weight="normal" fill="currentColor">
                    <tspan x="7.10542736e-15" y="8.94009314">0ms</tspan>
                </text>
            </g>
            <g id="Group-23" transform="translate(198.314500, 101.831270)">
                <text id="150ms" font-family="HelveticaNeue, Helvetica Neue" font-size="10" font-weight="normal" fill="currentColor">
                    <tspan x="0" y="8.94009314">150ms</tspan>
                </text>
            </g>
            <g id="Group-25" transform="translate(343.314500, 101.831270)">
                <text id="300ms" font-family="HelveticaNeue, Helvetica Neue" font-size="10" font-weight="normal" fill="currentColor">
                    <tspan x="0" y="8.94009314">300ms</tspan>
                </text>
            </g>
            <g id="Group-27" transform="translate(488.314500, 101.831270)">
                <text id="450ms" font-family="HelveticaNeue, Helvetica Neue" font-size="10" font-weight="normal" fill="currentColor">
                    <tspan x="0" y="8.94009314">450ms</tspan>
                </text>
            </g>
            <g id="Group-29" transform="translate(633.314500, 101.831270)">
                <text id="600ms" font-family="HelveticaNeue, Helvetica Neue" font-size="10" font-weight="normal" fill="currentColor">
                    <tspan x="0" y="8.94009314">600ms</tspan>
                </text>
            </g>
            <polygon id="Fill-30" fill="#F8BA00" points="68.5 30.55127 593.5 30.55127 593.5 47.55127 68.5 47.55127"></polygon>
            <polygon id="Fill-32" fill="#F8BA00" points="68.5 54.55127 85.5 54.55127 85.5 71.55127 68.5 71.55127"></polygon>
            <polygon id="Fill-34" fill="#F8BA00" points="68.5 77.55127 72.5 77.55127 72.5 94.55127 68.5 94.55127"></polygon>
            <g id="Group-37" transform="translate(75.368060, 79.551270)">
                <text id="4.6ms" font-family="HelveticaNeue, Helvetica Neue" font-size="11" font-weight="normal" fill="currentColor">
                    <tspan x="0" y="10">4.6ms</tspan>
                </text>
            </g>
            <g id="Group-39" transform="translate(87.750100, 56.551270)">
                <text id="17.41ms" font-family="HelveticaNeue, Helvetica Neue" font-size="11" font-weight="normal" fill="currentColor">
                    <tspan x="0" y="10">17.41ms</tspan>
                </text>
            </g>
            <g id="Group-41" transform="translate(595.776900, 32.551270)">
                <text id="542.96ms" font-family="HelveticaNeue, Helvetica Neue" font-size="11" font-weight="normal" fill="currentColor">
                    <tspan x="0" y="10">542.96ms</tspan>
                </text>
            </g>
        </g>
    </g>
</svg>