<?xml version="1.0" encoding="UTF-8"?>
<svg style="max-width: 800px" viewBox="0 0 652 106" version="1.1" xmlns="http://www.w3.org/2000/svg" xmlns:xlink="http://www.w3.org/1999/xlink">
    <defs>
        <polygon id="path-1" points="-8.8817842e-16 0 45 0 45 10.9400971 -8.8817842e-16 10.9400971"></polygon>
        <polygon id="path-3" points="3.55271368e-15 1.42108547e-14 36 1.42108547e-14 36 10.9400971 3.55271368e-15 10.9400971"></polygon>
        <polygon id="path-5" points="0 0 51 0 51 10.9400971 0 10.9400971"></polygon>
        <polygon id="path-7" points="0 0 17 0 17 10.9400871 0 10.9400871"></polygon>
        <polygon id="path-9" points="0 0 26 0 26 10.9400871 0 10.9400871"></polygon>
        <polygon id="path-11" points="0 0 17 0 17 10.9400871 0 10.9400871"></polygon>
        <polygon id="path-13" points="0 0 26 0 26 10.9400871 0 10.9400871"></polygon>
        <polygon id="path-15" points="0 0 17 0 17 10.9400871 0 10.9400871"></polygon>
        <polygon id="path-17" points="2.84217094e-14 0 46 0 46 8.79073385 2.84217094e-14 8.79073385"></polygon>
        <polygon id="path-19" points="0 0 52 0 52 9.24594385 0 9.24594385"></polygon>
        <polygon id="path-21" points="0 0 52 0 52 8.70115385 0 8.70115385"></polygon>
    </defs>
    <g id="Page-1" stroke="none" stroke-width="1" fill="none" fill-rule="evenodd">
        <g id="Group-41" transform="translate(0.000000, -0.000000)">
            <g id="Group-11" transform="translate(62.500000, 0.000000)">
                <line x1="145.5" y1="0" x2="145.5" y2="73" id="Stroke-1" stroke="#B8B8B8" stroke-width="0.5"></line>
                <line x1="290.5" y1="0" x2="290.5" y2="73" id="Stroke-3" stroke="#B8B8B8" stroke-width="0.5"></line>
                <line x1="435.5" y1="0" x2="435.5" y2="73" id="Stroke-5" stroke="#B8B8B8" stroke-width="0.5"></line>
                <line x1="580.5" y1="0" x2="580.5" y2="73" id="Stroke-7" stroke="#B8B8B8" stroke-width="0.5"></line>
                <line x1="0.5" y1="72.5" x2="0.5" y2="0.5" id="Stroke-9" stroke="#000000" stroke-linecap="square"></line>
            </g>
            <g id="Group-13" transform="translate(6.850000, 5.486330)">
                <text id="CSSNano" font-family="HelveticaNeue, Helvetica Neue" font-size="10" font-weight="normal" fill="currentColor">
                    <tspan x="-8.8817842e-16" y="8.94009714">CSSNano</tspan>
                </text>
            </g>
            <g id="Group-15" transform="translate(15.550000, 29.697790)">
                <text id="ESBuild" font-family="HelveticaNeue, Helvetica Neue" font-size="10" font-weight="normal" fill="currentColor">
                    <tspan x="3.55271368e-15" y="8.94009714">ESBuild</tspan>
                </text>
            </g>
            <g id="Group-17" transform="translate(0.000000, 53.909250)">
                <text id="Parcel-CSS" font-family="HelveticaNeue, Helvetica Neue" font-size="10" font-weight="normal" fill="currentColor">
                    <tspan x="0" y="8.94009714">Parcel CSS</tspan>
                </text>
            </g>
            <text id="Size-(bytes)" font-family="HelveticaNeue, Helvetica Neue" font-size="10" font-weight="normal" fill="currentColor">
                <tspan x="327.105" y="102.220043">Size (bytes)</tspan>
            </text>
            <g id="Group-20" transform="translate(54.404970, 75.699950)">
                <text id="130" font-family="HelveticaNeue, Helvetica Neue" font-size="10" font-weight="normal" fill="currentColor">
                    <tspan x="0" y="8.94008714">130</tspan>
                </text>
            </g>
            <g id="Group-22" transform="translate(195.235000, 75.699950)">
                <text id="137.5" font-family="HelveticaNeue, Helvetica Neue" font-size="10" font-weight="normal" fill="currentColor">
                    <tspan x="0" y="8.94008714">137.5</tspan>
                </text>
            </g>
            <g id="Group-24" transform="translate(344.405000, 75.699950)">
                <text id="145" font-family="HelveticaNeue, Helvetica Neue" font-size="10" font-weight="normal" fill="currentColor">
                    <tspan x="0" y="8.94008714">145</tspan>
                </text>
            </g>
            <g id="Group-26" transform="translate(485.235000, 75.699950)">
                <text id="152.5" font-family="HelveticaNeue, Helvetica Neue" font-size="10" font-weight="normal" fill="currentColor">
                    <tspan x="0" y="8.94008714">152.5</tspan>
                </text>
            </g>
            <g id="Group-28" transform="translate(634.405000, 75.699950)">
                <text id="160" font-family="HelveticaNeue, Helvetica Neue" font-size="10" font-weight="normal" fill="currentColor">
                    <tspan x="0" y="8.94008714">160</tspan>
                </text>
            </g>
            <polygon id="Fill-29" fill="#CB297B" points="63.5 4.99995 563.5 4.99995 563.5 20.99995 63.5 20.99995"></polygon>
            <polygon id="Fill-31" fill="#CB297B" points="63.5 27.99995 576.5 27.99995 576.5 44.99995 63.5 44.99995"></polygon>
            <polygon id="Fill-33" fill="#CB297B" points="63.5 51.99995 252.5 51.99995 252.5 68.99995 63.5 68.99995"></polygon>
            <g id="Group-36" transform="translate(254.689000, 53.999950)">
                <text id="139.8-KB" font-family="HelveticaNeue, Helvetica Neue" font-size="11" font-weight="normal" fill="currentColor">
                    <tspan x="2.84217094e-14" y="10">139.8 KB</tspan>
                </text>
            </g>
            <g id="Group-38" transform="translate(579.013200, 29.999950)">
                <text id="156.57-KB" font-family="HelveticaNeue, Helvetica Neue" font-size="11" font-weight="normal" fill="currentColor">
                    <tspan x="0" y="10">156.57 KB</tspan>
                </text>
            </g>
            <g id="Group-40" transform="translate(565.872600, 6.999950)">
                <text id="155.89-KB" font-family="HelveticaNeue, Helvetica Neue" font-size="11" font-weight="normal" fill="currentColor">
                    <tspan x="0" y="10">155.89 KB</tspan>
                </text>
            </g>
        </g>
    </g>
</svg>